1900 0 2 0
10 Cubit 12.2 17 ACIS 19.0.2 Linux 24 Wed Feb 19 14:51:16 2014
1 9.9999999999999995e-07 1e-10
body $2 -1 -1 $-1 $3 $-1 $4 T -5 -5 -5 5 5 5 #
body $5 -1 -1 $-1 $6 $-1 $7 T -1.1547005383792499 -1.1547005383792499 -1.1547005383792499 1.1547005383792499 1.1547005383792499 1.1547005383792499 #
integer_attrib-name_attrib-gen-attrib $-1 -1 $8 $-1 $0 2 1 1 1 1 1 1 1 1 1 1 1 1 1 0 1 1 1 @8 CUBIT_ID 1 #
lump $9 -1 -1 $-1 $-1 $10 $0 T -5 -5 -5 5 5 5 #
transform $-1 -1 1 0 0 0 1 0 0 0 1 0 0 0 1 no_rotate no_reflect no_shear #
integer_attrib-name_attrib-gen-attrib $-1 -1 $11 $-1 $1 2 1 1 1 1 1 1 1 1 1 1 1 1 1 0 1 1 1 @8 CUBIT_ID 2 #
lump $12 -1 -1 $-1 $-1 $13 $1 T -1.1547005383792499 -1.1547005383792499 -1.1547005383792499 1.1547005383792499 1.1547005383792499 1.1547005383792499 #
transform $-1 -1 1 0 0 0 1 0 0 0 1 0 0 0 1 no_rotate no_reflect no_shear #
simple-snl-attrib $-1 -1 $-1 $2 $0 1 1 1 1 1 1 1 1 1 1 1 1 0 1 0 1 1 1 @17 NEW_SIMPLE_ATTRIB 1 @9 ENTITY_ID 0 3 1 -2147483648 -1 #
integer_attrib-name_attrib-gen-attrib $-1 -1 $14 $-1 $3 2 1 1 1 1 1 1 1 1 1 1 1 1 1 0 1 1 1 @8 CUBIT_ID 1 #
shell $-1 -1 -1 $-1 $15 $-1 $16 $-1 $3 T -5 -5 -5 5 5 5 #
simple-snl-attrib $-1 -1 $-1 $5 $1 1 1 1 1 1 1 1 1 1 1 1 1 0 1 0 1 1 1 @17 NEW_SIMPLE_ATTRIB 1 @9 ENTITY_ID 0 3 2 -2147483648 -1 #
integer_attrib-name_attrib-gen-attrib $-1 -1 $17 $-1 $6 2 1 1 1 1 1 1 1 1 1 1 1 1 1 0 1 1 1 @8 CUBIT_ID 2 #
shell $-1 -1 -1 $-1 $-1 $-1 $18 $-1 $6 T -1.1547005383792499 -1.1547005383792499 -1.1547005383792499 1.1547005383792499 1.1547005383792499 1.1547005383792499 #
simple-snl-attrib $-1 -1 $19 $9 $3 1 1 1 1 1 1 1 1 1 1 1 1 0 1 0 1 1 1 @17 NEW_SIMPLE_ATTRIB 1 @9 ENTITY_ID 0 3 1 -2147483648 -1 #
shell $-1 -1 -1 $-1 $-1 $-1 $20 $-1 $3 T -4.5 -4.5 -4.5 4.5 4.5 4.5 #
face $21 -1 -1 $-1 $22 $23 $10 $-1 $24 forward single T -5 -5 5 5 5 5 F #
simple-snl-attrib $-1 -1 $25 $12 $6 1 1 1 1 1 1 1 1 1 1 1 1 0 1 0 1 1 1 @17 NEW_SIMPLE_ATTRIB 1 @9 ENTITY_ID 0 3 2 -2147483648 -1 #
face $26 -1 -1 $-1 $27 $28 $13 $-1 $29 forward single T -1.1547005383792499 -1.1547005383792499 1.1547005383792499 1.1547005383792499 1.1547005383792499 1.1547005383792499 F #
simple-snl-attrib $-1 -1 $30 $14 $3 1 1 1 1 1 1 1 1 1 1 1 1 0 1 0 1 1 1 @17 NEW_SIMPLE_ATTRIB 2 @5 GROUP @9 graveyard 0 7 1 2 1012763017 0 0 0 0 #
face $31 -1 -1 $-1 $32 $33 $15 $-1 $34 reversed single T -4.5 -4.5 4.5 4.5 4.5 4.5 F #
integer_attrib-name_attrib-gen-attrib $-1 -1 $35 $-1 $16 2 1 1 1 1 1 1 1 1 1 1 1 1 1 0 1 1 1 @8 CUBIT_ID 1 #
face $36 -1 -1 $-1 $37 $38 $10 $-1 $39 reversed single T -5 -5 -5 5 5 -5 F #
loop $-1 -1 -1 $-1 $-1 $40 $16 T -5 -5 5 5 5 5 periphery $24 F #
plane-surface $-1 -1 -1 $-1 0 0 5 0 0 1 1 0 0 forward_v I I I I #
simple-snl-attrib $-1 -1 $-1 $17 $6 1 1 1 1 1 1 1 1 1 1 1 1 0 1 0 1 1 1 @17 NEW_SIMPLE_ATTRIB 7 @16 GRAPHICS_OPTIONS @14 geometry color @10 mesh color @19 geometry visibility @15 mesh visibility @11 render mode @11 transparent 0 6 5 5 1 1 0 0 #
integer_attrib-name_attrib-gen-attrib $-1 -1 $41 $-1 $18 2 1 1 1 1 1 1 1 1 1 1 1 1 1 0 1 1 1 @8 CUBIT_ID 13 #
face $42 -1 -1 $-1 $43 $44 $13 $-1 $45 reversed single T -1.1547005383792499 -1.1547005383792499 -1.1547005383792499 1.1547005383792499 1.1547005383792499 -1.1547005383792499 F #
loop $-1 -1 -1 $-1 $-1 $46 $18 T -1.1547005383792499 -1.1547005383792499 1.1547005383792499 1.1547005383792499 1.1547005383792499 1.1547005383792499 unknown #
plane-surface $-1 -1 -1 $-1 0 0 1.1547005383792499 0 0 1 1 0 0 forward_v I I I I #
simple-snl-attrib $-1 -1 $-1 $19 $3 1 1 1 1 1 1 1 1 1 1 1 1 0 1 0 1 1 1 @17 NEW_SIMPLE_ATTRIB 7 @16 GRAPHICS_OPTIONS @14 geometry color @10 mesh color @19 geometry visibility @15 mesh visibility @11 render mode @11 transparent 0 6 4 4 1 1 0 0 #
integer_attrib-name_attrib-gen-attrib $-1 -1 $47 $-1 $20 2 1 1 1 1 1 1 1 1 1 1 1 1 1 0 1 1 1 @8 CUBIT_ID 7 #
face $48 -1 -1 $-1 $49 $50 $15 $-1 $51 forward single T -4.5 -4.5 -4.5 4.5 4.5 -4.5 F #
loop $-1 -1 -1 $-1 $-1 $52 $20 T -4.5 -4.5 4.5 4.5 4.5 4.5 unknown #
plane-surface $-1 -1 -1 $-1 0 0 4.5 0 0 1 1 0 0 forward_v I I I I #
simple-snl-attrib $-1 -1 $53 $21 $16 1 1 1 1 1 1 1 1 1 1 1 1 0 1 0 1 1 1 @17 NEW_SIMPLE_ATTRIB 1 @9 ENTITY_ID 0 3 1 -2147483648 -1 #
integer_attrib-name_attrib-gen-attrib $-1 -1 $54 $-1 $22 2 1 1 1 1 1 1 1 1 1 1 1 1 1 0 1 1 1 @8 CUBIT_ID 2 #
face $55 -1 -1 $-1 $56 $57 $10 $-1 $58 reversed single T -5 -5 -5 5 -5 5 F #
loop $-1 -1 -1 $-1 $-1 $59 $22 T -5 -5 -5 5 5 -5 unknown #
plane-surface $-1 -1 -1 $-1 0 0 -5 0 0 1 1 0 0 forward_v I I I I #
coedge $-1 -1 -1 $-1 $60 $61 $62 $63 forward $23 $-1 #
simple-snl-attrib $-1 -1 $64 $26 $18 1 1 1 1 1 1 1 1 1 1 1 1 0 1 0 1 1 1 @17 NEW_SIMPLE_ATTRIB 1 @9 ENTITY_ID 0 3 13 -2147483648 -1 #
integer_attrib-name_attrib-gen-attrib $-1 -1 $65 $-1 $27 2 1 1 1 1 1 1 1 1 1 1 1 1 1 0 1 1 1 @8 CUBIT_ID 14 #
face $66 -1 -1 $-1 $67 $68 $13 $-1 $69 reversed single T -1.1547005383792499 -1.1547005383792499 -1.1547005383792499 1.1547005383792499 -1.1547005383792499 1.1547005383792499 F #
loop $-1 -1 -1 $-1 $-1 $70 $27 T -1.1547005383792499 -1.1547005383792499 -1.1547005383792499 1.1547005383792499 1.1547005383792499 -1.1547005383792499 unknown #
plane-surface $-1 -1 -1 $-1 0 0 -1.1547005383792499 0 0 1 1 0 0 forward_v I I I I #
coedge $-1 -1 -1 $-1 $71 $72 $73 $74 forward $28 $-1 #
simple-snl-attrib $-1 -1 $75 $31 $20 1 1 1 1 1 1 1 1 1 1 1 1 0 1 0 1 1 1 @17 NEW_SIMPLE_ATTRIB 1 @9 ENTITY_ID 0 3 7 -2147483648 -1 #
integer_attrib-name_attrib-gen-attrib $-1 -1 $76 $-1 $32 2 1 1 1 1 1 1 1 1 1 1 1 1 1 0 1 1 1 @8 CUBIT_ID 8 #
face $77 -1 -1 $-1 $78 $79 $15 $-1 $80 forward single T -4.5 -4.5 -4.5 4.5 -4.5 4.5 F #
loop $-1 -1 -1 $-1 $-1 $81 $32 T -4.5 -4.5 -4.5 4.5 4.5 -4.5 unknown #
plane-surface $-1 -1 -1 $-1 0 0 -4.5 0 0 1 1 0 0 forward_v I I I I #
coedge $-1 -1 -1 $-1 $82 $83 $84 $85 reversed $33 $-1 #
simple-snl-attrib $-1 -1 $-1 $35 $16 1 1 1 1 1 1 1 1 1 1 1 1 0 1 0 1 1 1 @17 NEW_SIMPLE_ATTRIB 3 @13 MESH_INTERVAL @4 LIMP @4 LIMP 2 1 0 5 1 0 0 1 1 #
simple-snl-attrib $-1 -1 $86 $36 $22 1 1 1 1 1 1 1 1 1 1 1 1 0 1 0 1 1 1 @17 NEW_SIMPLE_ATTRIB 1 @9 ENTITY_ID 0 3 2 -2147483648 -1 #
integer_attrib-name_attrib-gen-attrib $-1 -1 $87 $-1 $37 2 1 1 1 1 1 1 1 1 1 1 1 1 1 0 1 1 1 @8 CUBIT_ID 3 #
face $88 -1 -1 $-1 $89 $90 $10 $-1 $91 reversed single T -5 -5 -5 -5 5 5 F #
loop $-1 -1 -1 $-1 $-1 $92 $37 T -5 -5 -5 5 -5 5 unknown #
plane-surface $-1 -1 -1 $-1 0 -5 0 0 1 -0 -0 0 1 forward_v I I I I #
coedge $-1 -1 -1 $-1 $93 $94 $95 $96 forward $38 $-1 #
coedge $-1 -1 -1 $-1 $97 $40 $98 $99 forward $23 $-1 #
coedge $-1 -1 -1 $-1 $40 $97 $100 $101 forward $23 $-1 #
coedge $-1 -1 -1 $-1 $102 $103 $40 $63 reversed $104 $-1 #
edge $105 -1 -1 $-1 $106 -5 $107 5 $62 $108 forward @7 unknown T 5 -5 5 5 5 5 #
simple-snl-attrib $-1 -1 $-1 $41 $18 1 1 1 1 1 1 1 1 1 1 1 1 0 1 0 1 1 1 @17 NEW_SIMPLE_ATTRIB 3 @13 MESH_INTERVAL @4 LIMP @4 LIMP 2 1 0 5 1 0 0 1 1 #
simple-snl-attrib $-1 -1 $109 $42 $27 1 1 1 1 1 1 1 1 1 1 1 1 0 1 0 1 1 1 @17 NEW_SIMPLE_ATTRIB 1 @9 ENTITY_ID 0 3 14 -2147483648 -1 #
integer_attrib-name_attrib-gen-attrib $-1 -1 $110 $-1 $43 2 1 1 1 1 1 1 1 1 1 1 1 1 1 0 1 1 1 @8 CUBIT_ID 15 #
face $111 -1 -1 $-1 $112 $113 $13 $-1 $114 reversed single T -1.1547005383792499 -1.1547005383792499 -1.1547005383792499 -1.1547005383792499 1.1547005383792499 1.1547005383792499 F #
loop $-1 -1 -1 $-1 $-1 $115 $43 T -1.1547005383792499 -1.1547005383792499 -1.1547005383792499 1.1547005383792499 -1.1547005383792499 1.1547005383792499 unknown #
plane-surface $-1 -1 -1 $-1 0 -1.1547005383792499 0 0 1 -0 -0 0 1 forward_v I I I I #
coedge $-1 -1 -1 $-1 $116 $117 $118 $119 forward $44 $-1 #
coedge $-1 -1 -1 $-1 $120 $46 $121 $122 forward $28 $-1 #
coedge $-1 -1 -1 $-1 $46 $120 $123 $124 forward $28 $-1 #
coedge $-1 -1 -1 $-1 $125 $126 $46 $74 reversed $127 $-1 #
edge $128 -1 -1 $-1 $129 -1.1547005383792499 $130 1.1547005383792499 $73 $131 forward @7 unknown T 1.1547005383792499 -1.1547005383792499 1.1547005383792499 1.1547005383792499 1.1547005383792499 1.1547005383792499 #
simple-snl-attrib $-1 -1 $-1 $47 $20 1 1 1 1 1 1 1 1 1 1 1 1 0 1 0 1 1 1 @17 NEW_SIMPLE_ATTRIB 3 @13 MESH_INTERVAL @4 LIMP @4 LIMP 2 1 0 5 1 0 0 1 1 #
simple-snl-attrib $-1 -1 $132 $48 $32 1 1 1 1 1 1 1 1 1 1 1 1 0 1 0 1 1 1 @17 NEW_SIMPLE_ATTRIB 1 @9 ENTITY_ID 0 3 8 -2147483648 -1 #
integer_attrib-name_attrib-gen-attrib $-1 -1 $133 $-1 $49 2 1 1 1 1 1 1 1 1 1 1 1 1 1 0 1 1 1 @8 CUBIT_ID 9 #
face $134 -1 -1 $-1 $135 $136 $15 $-1 $137 forward single T -4.5 -4.5 -4.5 -4.5 4.5 4.5 F #
loop $-1 -1 -1 $-1 $-1 $138 $49 T -4.5 -4.5 -4.5 4.5 -4.5 4.5 periphery $80 F #
plane-surface $-1 -1 -1 $-1 0 -4.5 0 0 1 -0 -0 0 1 forward_v I I I I #
coedge $-1 -1 -1 $-1 $139 $140 $141 $142 reversed $50 $-1 #
coedge $-1 -1 -1 $-1 $143 $52 $144 $145 reversed $33 $-1 #
coedge $-1 -1 -1 $-1 $52 $143 $146 $147 reversed $33 $-1 #
coedge $-1 -1 -1 $-1 $148 $149 $52 $85 forward $150 $-1 #
edge $151 -1 -1 $-1 $152 -4.5 $153 4.5 $84 $154 forward @7 unknown T 4.5 -4.5 4.5 4.5 4.5 4.5 #
simple-snl-attrib $-1 -1 $-1 $54 $22 1 1 1 1 1 1 1 1 1 1 1 1 0 1 0 1 1 1 @17 NEW_SIMPLE_ATTRIB 3 @13 MESH_INTERVAL @4 LIMP @4 LIMP 2 1 0 5 1 0 0 1 1 #
simple-snl-attrib $-1 -1 $155 $55 $37 1 1 1 1 1 1 1 1 1 1 1 1 0 1 0 1 1 1 @17 NEW_SIMPLE_ATTRIB 1 @9 ENTITY_ID 0 3 3 -2147483648 -1 #
integer_attrib-name_attrib-gen-attrib $-1 -1 $156 $-1 $56 2 1 1 1 1 1 1 1 1 1 1 1 1 1 0 1 1 1 @8 CUBIT_ID 4 #
face $157 -1 -1 $-1 $158 $159 $10 $-1 $160 reversed single T -5 5 -5 5 5 5 F #
loop $-1 -1 -1 $-1 $-1 $161 $56 T -5 -5 -5 -5 5 5 periphery $91 T #
plane-surface $-1 -1 -1 $-1 -5 0 0 1 0 0 0 0 -1 forward_v I I I I #
coedge $-1 -1 -1 $-1 $162 $100 $163 $164 forward $57 $-1 #
coedge $-1 -1 -1 $-1 $165 $59 $162 $166 forward $38 $-1 #
coedge $-1 -1 -1 $-1 $59 $165 $167 $168 forward $38 $-1 #
coedge $-1 -1 -1 $-1 $103 $102 $59 $96 reversed $104 $-1 #
edge $169 -1 -1 $-1 $170 -5 $171 5 $95 $172 forward @7 unknown T 5 -5 -5 5 5 -5 #
coedge $-1 -1 -1 $-1 $61 $60 $173 $174 forward $23 $-1 #
coedge $-1 -1 -1 $-1 $175 $176 $60 $99 reversed $159 $-1 #
edge $177 -1 -1 $-1 $107 -5 $178 5 $98 $179 forward @7 unknown T -5 5 5 5 5 5 #
coedge $-1 -1 -1 $-1 $92 $180 $61 $101 reversed $57 $-1 #
edge $181 -1 -1 $-1 $182 -5 $106 5 $100 $183 forward @7 unknown T -5 -5 5 5 -5 5 #
coedge $-1 -1 -1 $-1 $95 $62 $180 $184 forward $104 $-1 #
coedge $-1 -1 -1 $-1 $62 $95 $175 $185 reversed $104 $-1 #
loop $-1 -1 -1 $-1 $-1 $102 $158 T 5 -5 -5 5 5 5 unknown #
integer_attrib-name_attrib-gen-attrib $-1 -1 $186 $-1 $63 2 1 1 1 1 1 1 1 1 1 1 1 1 1 0 1 1 1 @8 CUBIT_ID 1 #
vertex $187 -1 -1 $-1 $63 $188 #
vertex $189 -1 -1 $-1 $63 $190 #
straight-curve $-1 -1 -1 $-1 5 0 5 0 1 0 I I #
simple-snl-attrib $-1 -1 $-1 $65 $27 1 1 1 1 1 1 1 1 1 1 1 1 0 1 0 1 1 1 @17 NEW_SIMPLE_ATTRIB 3 @13 MESH_INTERVAL @4 LIMP @4 LIMP 2 1 0 5 1 0 0 1 1 #
simple-snl-attrib $-1 -1 $191 $66 $43 1 1 1 1 1 1 1 1 1 1 1 1 0 1 0 1 1 1 @17 NEW_SIMPLE_ATTRIB 1 @9 ENTITY_ID 0 3 15 -2147483648 -1 #
integer_attrib-name_attrib-gen-attrib $-1 -1 $192 $-1 $67 2 1 1 1 1 1 1 1 1 1 1 1 1 1 0 1 1 1 @8 CUBIT_ID 16 #
face $193 -1 -1 $-1 $194 $195 $13 $-1 $196 reversed single T -1.1547005383792499 1.1547005383792499 -1.1547005383792499 1.1547005383792499 1.1547005383792499 1.1547005383792499 F #
loop $-1 -1 -1 $-1 $-1 $197 $67 T -1.1547005383792499 -1.1547005383792499 -1.1547005383792499 -1.1547005383792499 1.1547005383792499 1.1547005383792499 unknown #
plane-surface $-1 -1 -1 $-1 -1.1547005383792499 0 0 1 0 0 0 0 -1 forward_v I I I I #
coedge $-1 -1 -1 $-1 $198 $123 $199 $200 forward $68 $-1 #
coedge $-1 -1 -1 $-1 $201 $70 $198 $202 forward $44 $-1 #
coedge $-1 -1 -1 $-1 $70 $201 $203 $204 forward $44 $-1 #
coedge $-1 -1 -1 $-1 $126 $125 $70 $119 reversed $127 $-1 #
edge $205 -1 -1 $-1 $206 -1.1547005383792499 $207 1.1547005383792499 $118 $208 forward @7 unknown T 1.1547005383792499 -1.1547005383792499 -1.1547005383792499 1.1547005383792499 1.1547005383792499 -1.1547005383792499 #
coedge $-1 -1 -1 $-1 $72 $71 $209 $210 forward $28 $-1 #
coedge $-1 -1 -1 $-1 $211 $212 $71 $122 reversed $195 $-1 #
edge $213 -1 -1 $-1 $130 -1.1547005383792499 $214 1.1547005383792499 $121 $215 forward @7 unknown T -1.1547005383792499 1.1547005383792499 1.1547005383792499 1.1547005383792499 1.1547005383792499 1.1547005383792499 #
coedge $-1 -1 -1 $-1 $115 $216 $72 $124 reversed $68 $-1 #
edge $217 -1 -1 $-1 $218 -1.1547005383792499 $129 1.1547005383792499 $123 $219 forward @7 unknown T -1.1547005383792499 -1.1547005383792499 1.1547005383792499 1.1547005383792499 -1.1547005383792499 1.1547005383792499 #
coedge $-1 -1 -1 $-1 $118 $73 $216 $220 forward $127 $-1 #
coedge $-1 -1 -1 $-1 $73 $118 $211 $221 reversed $127 $-1 #
loop $-1 -1 -1 $-1 $-1 $125 $194 T 1.1547005383792499 -1.1547005383792499 -1.1547005383792499 1.1547005383792499 1.1547005383792499 1.1547005383792499 unknown #
integer_attrib-name_attrib-gen-attrib $-1 -1 $222 $-1 $74 2 1 1 1 1 1 1 1 1 1 1 1 1 1 0 1 1 1 @8 CUBIT_ID 25 #
vertex $223 -1 -1 $-1 $74 $224 #
vertex $225 -1 -1 $-1 $74 $226 #
straight-curve $-1 -1 -1 $-1 1.1547005383792499 0 1.1547005383792499 0 1 0 I I #
simple-snl-attrib $-1 -1 $-1 $76 $32 1 1 1 1 1 1 1 1 1 1 1 1 0 1 0 1 1 1 @17 NEW_SIMPLE_ATTRIB 3 @13 MESH_INTERVAL @4 LIMP @4 LIMP 2 1 0 5 1 0 0 1 1 #
simple-snl-attrib $-1 -1 $227 $77 $49 1 1 1 1 1 1 1 1 1 1 1 1 0 1 0 1 1 1 @17 NEW_SIMPLE_ATTRIB 1 @9 ENTITY_ID 0 3 9 -2147483648 -1 #
integer_attrib-name_attrib-gen-attrib $-1 -1 $228 $-1 $78 2 1 1 1 1 1 1 1 1 1 1 1 1 1 0 1 1 1 @8 CUBIT_ID 10 #
face $229 -1 -1 $-1 $230 $231 $15 $-1 $232 forward single T -4.5 4.5 -4.5 4.5 4.5 4.5 F #
loop $-1 -1 -1 $-1 $-1 $233 $78 T -4.5 -4.5 -4.5 -4.5 4.5 4.5 unknown #
plane-surface $-1 -1 -1 $-1 -4.5 0 0 1 0 0 0 0 -1 forward_v I I I I #
coedge $-1 -1 -1 $-1 $144 $234 $235 $236 reversed $79 $-1 #
coedge $-1 -1 -1 $-1 $237 $81 $238 $239 reversed $50 $-1 #
coedge $-1 -1 -1 $-1 $81 $237 $234 $240 reversed $50 $-1 #
coedge $-1 -1 -1 $-1 $149 $148 $81 $142 forward $150 $-1 #
edge $241 -1 -1 $-1 $242 -4.5 $243 4.5 $141 $244 forward @7 unknown T 4.5 -4.5 -4.5 4.5 4.5 -4.5 #
coedge $-1 -1 -1 $-1 $83 $82 $245 $246 reversed $33 $-1 #
coedge $-1 -1 -1 $-1 $247 $138 $82 $145 forward $79 $-1 #
edge $248 -1 -1 $-1 $249 -4.5 $152 4.5 $144 $250 forward @7 unknown T -4.5 -4.5 4.5 4.5 -4.5 4.5 #
coedge $-1 -1 -1 $-1 $251 $252 $83 $147 forward $231 $-1 #
edge $253 -1 -1 $-1 $153 -4.5 $254 4.5 $146 $255 forward @7 unknown T -4.5 4.5 4.5 4.5 4.5 4.5 #
coedge $-1 -1 -1 $-1 $141 $84 $252 $256 forward $150 $-1 #
coedge $-1 -1 -1 $-1 $84 $141 $247 $257 reversed $150 $-1 #
loop $-1 -1 -1 $-1 $-1 $149 $230 T 4.5 -4.5 -4.5 4.5 4.5 4.5 unknown #
integer_attrib-name_attrib-gen-attrib $-1 -1 $258 $-1 $85 2 1 1 1 1 1 1 1 1 1 1 1 1 1 0 1 1 1 @8 CUBIT_ID 13 #
vertex $259 -1 -1 $-1 $85 $260 #
vertex $261 -1 -1 $-1 $85 $262 #
straight-curve $-1 -1 -1 $-1 4.5 0 4.5 0 1 0 I I #
simple-snl-attrib $-1 -1 $-1 $87 $37 1 1 1 1 1 1 1 1 1 1 1 1 0 1 0 1 1 1 @17 NEW_SIMPLE_ATTRIB 3 @13 MESH_INTERVAL @4 LIMP @4 LIMP 2 1 0 5 1 0 0 1 1 #
simple-snl-attrib $-1 -1 $263 $88 $56 1 1 1 1 1 1 1 1 1 1 1 1 0 1 0 1 1 1 @17 NEW_SIMPLE_ATTRIB 1 @9 ENTITY_ID 0 3 4 -2147483648 -1 #
integer_attrib-name_attrib-gen-attrib $-1 -1 $264 $-1 $89 2 1 1 1 1 1 1 1 1 1 1 1 1 1 0 1 1 1 @8 CUBIT_ID 5 #
face $265 -1 -1 $-1 $-1 $104 $10 $-1 $266 reversed single T 5 -5 -5 5 5 5 F #
loop $-1 -1 -1 $-1 $-1 $175 $89 T -5 5 -5 5 5 5 unknown #
plane-surface $-1 -1 -1 $-1 0 5 0 0 -1 0 0 0 -1 forward_v I I I I #
coedge $-1 -1 -1 $-1 $267 $173 $176 $268 forward $90 $-1 #
coedge $-1 -1 -1 $-1 $180 $92 $93 $166 reversed $57 $-1 #
coedge $-1 -1 -1 $-1 $173 $267 $92 $164 reversed $90 $-1 #
edge $269 -1 -1 $-1 $182 -5 $270 5 $163 $271 forward @7 unknown T -5 -5 -5 -5 -5 5 #
coedge $-1 -1 -1 $-1 $94 $93 $267 $272 forward $38 $-1 #
edge $273 -1 -1 $-1 $171 -5 $270 5 $162 $274 forward @7 unknown T -5 -5 -5 5 -5 -5 #
coedge $-1 -1 -1 $-1 $176 $175 $94 $168 reversed $159 $-1 #
edge $275 -1 -1 $-1 $276 -5 $170 5 $167 $277 forward @7 unknown T -5 5 -5 5 5 -5 #
integer_attrib-name_attrib-gen-attrib $-1 -1 $278 $-1 $96 2 1 1 1 1 1 1 1 1 1 1 1 1 1 0 1 1 1 @8 CUBIT_ID 5 #
vertex $279 -1 -1 $-1 $96 $280 #
vertex $281 -1 -1 $-1 $184 $282 #
straight-curve $-1 -1 -1 $-1 5 0 -5 0 -1 0 I I #
coedge $-1 -1 -1 $-1 $161 $163 $97 $174 reversed $90 $-1 #
edge $283 -1 -1 $-1 $178 -5 $182 5 $173 $284 forward @7 unknown T -5 -5 5 -5 5 5 #
coedge $-1 -1 -1 $-1 $167 $98 $103 $185 forward $159 $-1 #
coedge $-1 -1 -1 $-1 $98 $167 $161 $268 reversed $159 $-1 #
integer_attrib-name_attrib-gen-attrib $-1 -1 $285 $-1 $99 2 1 1 1 1 1 1 1 1 1 1 1 1 1 0 1 1 1 @8 CUBIT_ID 2 #
vertex $286 -1 -1 $-1 $99 $287 #
straight-curve $-1 -1 -1 $-1 0 5 5 -1 0 0 I I #
coedge $-1 -1 -1 $-1 $100 $162 $102 $184 reversed $57 $-1 #
integer_attrib-name_attrib-gen-attrib $-1 -1 $288 $-1 $101 2 1 1 1 1 1 1 1 1 1 1 1 1 1 0 1 1 1 @8 CUBIT_ID 4 #
vertex $289 -1 -1 $-1 $174 $290 #
straight-curve $-1 -1 -1 $-1 0 -5 5 1 0 0 I I #
edge $291 -1 -1 $-1 $106 -5 $171 5 $102 $292 forward @7 unknown T 5 -5 -5 5 -5 5 #
edge $293 -1 -1 $-1 $107 -5 $170 5 $103 $294 forward @7 unknown T 5 5 -5 5 5 5 #
simple-snl-attrib $-1 -1 $-1 $105 $63 1 1 1 1 1 1 1 1 1 1 1 1 0 1 0 1 1 1 @17 NEW_SIMPLE_ATTRIB 1 @9 ENTITY_ID 0 3 1 -2147483648 -1 #
integer_attrib-name_attrib-gen-attrib $-1 -1 $295 $-1 $106 2 1 1 1 1 1 1 1 1 1 1 1 1 1 0 1 1 1 @8 CUBIT_ID 1 #
point $-1 -1 -1 $-1 5 -5 5 #
integer_attrib-name_attrib-gen-attrib $-1 -1 $296 $-1 $107 2 1 1 1 1 1 1 1 1 1 1 1 1 1 0 1 1 1 @8 CUBIT_ID 2 #
point $-1 -1 -1 $-1 5 5 5 #
simple-snl-attrib $-1 -1 $-1 $110 $43 1 1 1 1 1 1 1 1 1 1 1 1 0 1 0 1 1 1 @17 NEW_SIMPLE_ATTRIB 3 @13 MESH_INTERVAL @4 LIMP @4 LIMP 2 1 0 5 1 0 0 1 1 #
simple-snl-attrib $-1 -1 $297 $111 $67 1 1 1 1 1 1 1 1 1 1 1 1 0 1 0 1 1 1 @17 NEW_SIMPLE_ATTRIB 1 @9 ENTITY_ID 0 3 16 -2147483648 -1 #
integer_attrib-name_attrib-gen-attrib $-1 -1 $298 $-1 $112 2 1 1 1 1 1 1 1 1 1 1 1 1 1 0 1 1 1 @8 CUBIT_ID 17 #
face $299 -1 -1 $-1 $-1 $127 $13 $-1 $300 reversed single T 1.1547005383792499 -1.1547005383792499 -1.1547005383792499 1.1547005383792499 1.1547005383792499 1.1547005383792499 F #
loop $-1 -1 -1 $-1 $-1 $211 $112 T -1.1547005383792499 1.1547005383792499 -1.1547005383792499 1.1547005383792499 1.1547005383792499 1.1547005383792499 unknown #
plane-surface $-1 -1 -1 $-1 0 1.1547005383792499 0 0 -1 0 0 0 -1 forward_v I I I I #
coedge $-1 -1 -1 $-1 $301 $209 $212 $302 forward $113 $-1 #
coedge $-1 -1 -1 $-1 $216 $115 $116 $202 reversed $68 $-1 #
coedge $-1 -1 -1 $-1 $209 $301 $115 $200 reversed $113 $-1 #
edge $303 -1 -1 $-1 $218 -1.1547005383792499 $304 1.1547005383792499 $199 $305 forward @7 unknown T -1.1547005383792499 -1.1547005383792499 -1.1547005383792499 -1.1547005383792499 -1.1547005383792499 1.1547005383792499 #
coedge $-1 -1 -1 $-1 $117 $116 $301 $306 forward $44 $-1 #
edge $307 -1 -1 $-1 $207 -1.1547005383792499 $304 1.1547005383792499 $198 $308 forward @7 unknown T -1.1547005383792499 -1.1547005383792499 -1.1547005383792499 1.1547005383792499 -1.1547005383792499 -1.1547005383792499 #
coedge $-1 -1 -1 $-1 $212 $211 $117 $204 reversed $195 $-1 #
edge $309 -1 -1 $-1 $310 -1.1547005383792499 $206 1.1547005383792499 $203 $311 forward @7 unknown T -1.1547005383792499 1.1547005383792499 -1.1547005383792499 1.1547005383792499 1.1547005383792499 -1.1547005383792499 #
integer_attrib-name_attrib-gen-attrib $-1 -1 $312 $-1 $119 2 1 1 1 1 1 1 1 1 1 1 1 1 1 0 1 1 1 @8 CUBIT_ID 29 #
vertex $313 -1 -1 $-1 $119 $314 #
vertex $315 -1 -1 $-1 $220 $316 #
straight-curve $-1 -1 -1 $-1 1.1547005383792499 0 -1.1547005383792499 0 -1 0 I I #
coedge $-1 -1 -1 $-1 $197 $199 $120 $210 reversed $113 $-1 #
edge $317 -1 -1 $-1 $214 -1.1547005383792499 $218 1.1547005383792499 $209 $318 forward @7 unknown T -1.1547005383792499 -1.1547005383792499 1.1547005383792499 -1.1547005383792499 1.1547005383792499 1.1547005383792499 #
coedge $-1 -1 -1 $-1 $203 $121 $126 $221 forward $195 $-1 #
coedge $-1 -1 -1 $-1 $121 $203 $197 $302 reversed $195 $-1 #
integer_attrib-name_attrib-gen-attrib $-1 -1 $319 $-1 $122 2 1 1 1 1 1 1 1 1 1 1 1 1 1 0 1 1 1 @8 CUBIT_ID 26 #
vertex $320 -1 -1 $-1 $122 $321 #
straight-curve $-1 -1 -1 $-1 0 1.1547005383792499 1.1547005383792499 -1 0 0 I I #
coedge $-1 -1 -1 $-1 $123 $198 $125 $220 reversed $68 $-1 #
integer_attrib-name_attrib-gen-attrib $-1 -1 $322 $-1 $124 2 1 1 1 1 1 1 1 1 1 1 1 1 1 0 1 1 1 @8 CUBIT_ID 28 #
vertex $323 -1 -1 $-1 $210 $324 #
straight-curve $-1 -1 -1 $-1 0 -1.1547005383792499 1.1547005383792499 1 0 0 I I #
edge $325 -1 -1 $-1 $129 -1.1547005383792499 $207 1.1547005383792499 $125 $326 forward @7 unknown T 1.1547005383792499 -1.1547005383792499 -1.1547005383792499 1.1547005383792499 -1.1547005383792499 1.1547005383792499 #
edge $327 -1 -1 $-1 $130 -1.1547005383792499 $206 1.1547005383792499 $126 $328 forward @7 unknown T 1.1547005383792499 1.1547005383792499 -1.1547005383792499 1.1547005383792499 1.1547005383792499 1.1547005383792499 #
simple-snl-attrib $-1 -1 $-1 $128 $74 1 1 1 1 1 1 1 1 1 1 1 1 0 1 0 1 1 1 @17 NEW_SIMPLE_ATTRIB 1 @9 ENTITY_ID 0 3 25 -2147483648 -1 #
integer_attrib-name_attrib-gen-attrib $-1 -1 $329 $-1 $129 2 1 1 1 1 1 1 1 1 1 1 1 1 1 0 1 1 1 @8 CUBIT_ID 17 #
point $-1 -1 -1 $-1 1.1547005383792499 -1.1547005383792499 1.1547005383792499 #
integer_attrib-name_attrib-gen-attrib $-1 -1 $330 $-1 $130 2 1 1 1 1 1 1 1 1 1 1 1 1 1 0 1 1 1 @8 CUBIT_ID 18 #
point $-1 -1 -1 $-1 1.1547005383792499 1.1547005383792499 1.1547005383792499 #
simple-snl-attrib $-1 -1 $-1 $133 $49 1 1 1 1 1 1 1 1 1 1 1 1 0 1 0 1 1 1 @17 NEW_SIMPLE_ATTRIB 3 @13 MESH_INTERVAL @4 LIMP @4 LIMP 2 1 0 5 1 0 0 1 1 #
simple-snl-attrib $-1 -1 $331 $134 $78 1 1 1 1 1 1 1 1 1 1 1 1 0 1 0 1 1 1 @17 NEW_SIMPLE_ATTRIB 1 @9 ENTITY_ID 0 3 10 -2147483648 -1 #
integer_attrib-name_attrib-gen-attrib $-1 -1 $332 $-1 $135 2 1 1 1 1 1 1 1 1 1 1 1 1 1 0 1 1 1 @8 CUBIT_ID 11 #
face $333 -1 -1 $-1 $-1 $150 $15 $-1 $334 forward single T 4.5 -4.5 -4.5 4.5 4.5 4.5 F #
loop $-1 -1 -1 $-1 $-1 $252 $135 T -4.5 4.5 -4.5 4.5 4.5 4.5 unknown #
plane-surface $-1 -1 -1 $-1 0 4.5 0 0 -1 0 0 0 -1 forward_v I I I I #
coedge $-1 -1 -1 $-1 $245 $335 $251 $336 reversed $136 $-1 #
coedge $-1 -1 -1 $-1 $138 $247 $140 $240 forward $79 $-1 #
coedge $-1 -1 -1 $-1 $335 $245 $138 $236 forward $136 $-1 #
edge $337 -1 -1 $-1 $249 -4.5 $338 4.5 $235 $339 forward @7 unknown T -4.5 -4.5 -4.5 -4.5 -4.5 4.5 #
coedge $-1 -1 -1 $-1 $140 $139 $335 $340 reversed $50 $-1 #
coedge $-1 -1 -1 $-1 $252 $251 $139 $239 forward $231 $-1 #
edge $341 -1 -1 $-1 $342 -4.5 $242 4.5 $238 $343 forward @7 unknown T -4.5 4.5 -4.5 4.5 4.5 -4.5 #
edge $344 -1 -1 $-1 $243 -4.5 $338 4.5 $234 $345 forward @7 unknown T -4.5 -4.5 -4.5 4.5 -4.5 -4.5 #
integer_attrib-name_attrib-gen-attrib $-1 -1 $346 $-1 $142 2 1 1 1 1 1 1 1 1 1 1 1 1 1 0 1 1 1 @8 CUBIT_ID 17 #
vertex $347 -1 -1 $-1 $142 $348 #
vertex $349 -1 -1 $-1 $257 $350 #
straight-curve $-1 -1 -1 $-1 4.5 0 -4.5 0 -1 0 I I #
coedge $-1 -1 -1 $-1 $235 $233 $143 $246 forward $136 $-1 #
edge $351 -1 -1 $-1 $254 -4.5 $249 4.5 $245 $352 forward @7 unknown T -4.5 -4.5 4.5 -4.5 4.5 4.5 #
coedge $-1 -1 -1 $-1 $234 $144 $149 $257 forward $79 $-1 #
integer_attrib-name_attrib-gen-attrib $-1 -1 $353 $-1 $145 2 1 1 1 1 1 1 1 1 1 1 1 1 1 0 1 1 1 @8 CUBIT_ID 14 #
vertex $354 -1 -1 $-1 $246 $355 #
straight-curve $-1 -1 -1 $-1 0 -4.5 4.5 1 0 0 I I #
coedge $-1 -1 -1 $-1 $238 $146 $233 $336 forward $231 $-1 #
coedge $-1 -1 -1 $-1 $146 $238 $148 $256 reversed $231 $-1 #
integer_attrib-name_attrib-gen-attrib $-1 -1 $356 $-1 $147 2 1 1 1 1 1 1 1 1 1 1 1 1 1 0 1 1 1 @8 CUBIT_ID 16 #
vertex $357 -1 -1 $-1 $147 $358 #
straight-curve $-1 -1 -1 $-1 0 4.5 4.5 -1 0 0 I I #
edge $359 -1 -1 $-1 $153 -4.5 $242 4.5 $148 $360 forward @7 unknown T 4.5 4.5 -4.5 4.5 4.5 4.5 #
edge $361 -1 -1 $-1 $152 -4.5 $243 4.5 $149 $362 forward @7 unknown T 4.5 -4.5 -4.5 4.5 -4.5 4.5 #
simple-snl-attrib $-1 -1 $-1 $151 $85 1 1 1 1 1 1 1 1 1 1 1 1 0 1 0 1 1 1 @17 NEW_SIMPLE_ATTRIB 1 @9 ENTITY_ID 0 3 13 -2147483648 -1 #
integer_attrib-name_attrib-gen-attrib $-1 -1 $363 $-1 $152 2 1 1 1 1 1 1 1 1 1 1 1 1 1 0 1 1 1 @8 CUBIT_ID 9 #
point $-1 -1 -1 $-1 4.5 -4.5 4.5 #
integer_attrib-name_attrib-gen-attrib $-1 -1 $364 $-1 $153 2 1 1 1 1 1 1 1 1 1 1 1 1 1 0 1 1 1 @8 CUBIT_ID 10 #
point $-1 -1 -1 $-1 4.5 4.5 4.5 #
simple-snl-attrib $-1 -1 $-1 $156 $56 1 1 1 1 1 1 1 1 1 1 1 1 0 1 0 1 1 1 @17 NEW_SIMPLE_ATTRIB 3 @13 MESH_INTERVAL @4 LIMP @4 LIMP 2 1 0 5 1 0 0 1 1 #
simple-snl-attrib $-1 -1 $365 $157 $89 1 1 1 1 1 1 1 1 1 1 1 1 0 1 0 1 1 1 @17 NEW_SIMPLE_ATTRIB 1 @9 ENTITY_ID 0 3 5 -2147483648 -1 #
integer_attrib-name_attrib-gen-attrib $-1 -1 $366 $-1 $158 2 1 1 1 1 1 1 1 1 1 1 1 1 1 0 1 1 1 @8 CUBIT_ID 6 #
plane-surface $-1 -1 -1 $-1 5 0 0 -1 0 0 0 -0 1 forward_v I I I I #
coedge $-1 -1 -1 $-1 $163 $161 $165 $272 reversed $90 $-1 #
edge $367 -1 -1 $-1 $178 -5 $276 5 $176 $368 forward @7 unknown T -5 5 -5 -5 5 5 #
integer_attrib-name_attrib-gen-attrib $-1 -1 $369 $-1 $164 2 1 1 1 1 1 1 1 1 1 1 1 1 1 0 1 1 1 @8 CUBIT_ID 9 #
vertex $370 -1 -1 $-1 $272 $371 #
straight-curve $-1 -1 -1 $-1 -5 -5 0 0 0 -1 I I #
edge $372 -1 -1 $-1 $270 -5 $276 5 $267 $373 forward @7 unknown T -5 -5 -5 -5 5 -5 #
integer_attrib-name_attrib-gen-attrib $-1 -1 $374 $-1 $166 2 1 1 1 1 1 1 1 1 1 1 1 1 1 0 1 1 1 @8 CUBIT_ID 6 #
straight-curve $-1 -1 -1 $-1 0 -5 -5 -1 0 0 I I #
integer_attrib-name_attrib-gen-attrib $-1 -1 $375 $-1 $168 2 1 1 1 1 1 1 1 1 1 1 1 1 1 0 1 1 1 @8 CUBIT_ID 8 #
vertex $376 -1 -1 $-1 $168 $377 #
straight-curve $-1 -1 -1 $-1 0 5 -5 1 0 0 I I #
simple-snl-attrib $-1 -1 $-1 $169 $96 1 1 1 1 1 1 1 1 1 1 1 1 0 1 0 1 1 1 @17 NEW_SIMPLE_ATTRIB 1 @9 ENTITY_ID 0 3 5 -2147483648 -1 #
integer_attrib-name_attrib-gen-attrib $-1 -1 $378 $-1 $170 2 1 1 1 1 1 1 1 1 1 1 1 1 1 0 1 1 1 @8 CUBIT_ID 5 #
point $-1 -1 -1 $-1 5 5 -5 #
integer_attrib-name_attrib-gen-attrib $-1 -1 $379 $-1 $171 2 1 1 1 1 1 1 1 1 1 1 1 1 1 0 1 1 1 @8 CUBIT_ID 6 #
point $-1 -1 -1 $-1 5 -5 -5 #
integer_attrib-name_attrib-gen-attrib $-1 -1 $380 $-1 $174 2 1 1 1 1 1 1 1 1 1 1 1 1 1 0 1 1 1 @8 CUBIT_ID 3 #
straight-curve $-1 -1 -1 $-1 -5 0 5 0 -1 0 I I #
simple-snl-attrib $-1 -1 $-1 $177 $99 1 1 1 1 1 1 1 1 1 1 1 1 0 1 0 1 1 1 @17 NEW_SIMPLE_ATTRIB 1 @9 ENTITY_ID 0 3 2 -2147483648 -1 #
integer_attrib-name_attrib-gen-attrib $-1 -1 $381 $-1 $178 2 1 1 1 1 1 1 1 1 1 1 1 1 1 0 1 1 1 @8 CUBIT_ID 3 #
point $-1 -1 -1 $-1 -5 5 5 #
simple-snl-attrib $-1 -1 $-1 $181 $101 1 1 1 1 1 1 1 1 1 1 1 1 0 1 0 1 1 1 @17 NEW_SIMPLE_ATTRIB 1 @9 ENTITY_ID 0 3 4 -2147483648 -1 #
integer_attrib-name_attrib-gen-attrib $-1 -1 $382 $-1 $182 2 1 1 1 1 1 1 1 1 1 1 1 1 1 0 1 1 1 @8 CUBIT_ID 4 #
point $-1 -1 -1 $-1 -5 -5 5 #
integer_attrib-name_attrib-gen-attrib $-1 -1 $383 $-1 $184 2 1 1 1 1 1 1 1 1 1 1 1 1 1 0 1 1 1 @8 CUBIT_ID 10 #
straight-curve $-1 -1 -1 $-1 5 -5 0 0 0 -1 I I #
integer_attrib-name_attrib-gen-attrib $-1 -1 $384 $-1 $185 2 1 1 1 1 1 1 1 1 1 1 1 1 1 0 1 1 1 @8 CUBIT_ID 12 #
straight-curve $-1 -1 -1 $-1 5 5 0 0 0 -1 I I #
simple-snl-attrib $-1 -1 $-1 $187 $106 1 1 1 1 1 1 1 1 1 1 1 1 0 1 0 1 1 1 @17 NEW_SIMPLE_ATTRIB 1 @9 ENTITY_ID 0 3 1 -2147483648 -1 #
simple-snl-attrib $-1 -1 $-1 $189 $107 1 1 1 1 1 1 1 1 1 1 1 1 0 1 0 1 1 1 @17 NEW_SIMPLE_ATTRIB 1 @9 ENTITY_ID 0 3 2 -2147483648 -1 #
simple-snl-attrib $-1 -1 $-1 $192 $67 1 1 1 1 1 1 1 1 1 1 1 1 0 1 0 1 1 1 @17 NEW_SIMPLE_ATTRIB 3 @13 MESH_INTERVAL @4 LIMP @4 LIMP 2 1 0 5 1 0 0 1 1 #
simple-snl-attrib $-1 -1 $385 $193 $112 1 1 1 1 1 1 1 1 1 1 1 1 0 1 0 1 1 1 @17 NEW_SIMPLE_ATTRIB 1 @9 ENTITY_ID 0 3 17 -2147483648 -1 #
integer_attrib-name_attrib-gen-attrib $-1 -1 $386 $-1 $194 2 1 1 1 1 1 1 1 1 1 1 1 1 1 0 1 1 1 @8 CUBIT_ID 18 #
plane-surface $-1 -1 -1 $-1 1.1547005383792499 0 0 -1 0 0 0 -0 1 forward_v I I I I #
coedge $-1 -1 -1 $-1 $199 $197 $201 $306 reversed $113 $-1 #
edge $387 -1 -1 $-1 $214 -1.1547005383792499 $310 1.1547005383792499 $212 $388 forward @7 unknown T -1.1547005383792499 1.1547005383792499 -1.1547005383792499 -1.1547005383792499 1.1547005383792499 1.1547005383792499 #
integer_attrib-name_attrib-gen-attrib $-1 -1 $389 $-1 $200 2 1 1 1 1 1 1 1 1 1 1 1 1 1 0 1 1 1 @8 CUBIT_ID 33 #
vertex $390 -1 -1 $-1 $306 $391 #
straight-curve $-1 -1 -1 $-1 -1.1547005383792499 -1.1547005383792499 0 0 0 -1 I I #
edge $392 -1 -1 $-1 $304 -1.1547005383792499 $310 1.1547005383792499 $301 $393 forward @7 unknown T -1.1547005383792499 -1.1547005383792499 -1.1547005383792499 -1.1547005383792499 1.1547005383792499 -1.1547005383792499 #
integer_attrib-name_attrib-gen-attrib $-1 -1 $394 $-1 $202 2 1 1 1 1 1 1 1 1 1 1 1 1 1 0 1 1 1 @8 CUBIT_ID 30 #
straight-curve $-1 -1 -1 $-1 0 -1.1547005383792499 -1.1547005383792499 -1 0 0 I I #
integer_attrib-name_attrib-gen-attrib $-1 -1 $395 $-1 $204 2 1 1 1 1 1 1 1 1 1 1 1 1 1 0 1 1 1 @8 CUBIT_ID 32 #
vertex $396 -1 -1 $-1 $204 $397 #
straight-curve $-1 -1 -1 $-1 0 1.1547005383792499 -1.1547005383792499 1 0 0 I I #
simple-snl-attrib $-1 -1 $-1 $205 $119 1 1 1 1 1 1 1 1 1 1 1 1 0 1 0 1 1 1 @17 NEW_SIMPLE_ATTRIB 1 @9 ENTITY_ID 0 3 29 -2147483648 -1 #
integer_attrib-name_attrib-gen-attrib $-1 -1 $398 $-1 $206 2 1 1 1 1 1 1 1 1 1 1 1 1 1 0 1 1 1 @8 CUBIT_ID 21 #
point $-1 -1 -1 $-1 1.1547005383792499 1.1547005383792499 -1.1547005383792499 #
integer_attrib-name_attrib-gen-attrib $-1 -1 $399 $-1 $207 2 1 1 1 1 1 1 1 1 1 1 1 1 1 0 1 1 1 @8 CUBIT_ID 22 #
point $-1 -1 -1 $-1 1.1547005383792499 -1.1547005383792499 -1.1547005383792499 #
integer_attrib-name_attrib-gen-attrib $-1 -1 $400 $-1 $210 2 1 1 1 1 1 1 1 1 1 1 1 1 1 0 1 1 1 @8 CUBIT_ID 27 #
straight-curve $-1 -1 -1 $-1 -1.1547005383792499 0 1.1547005383792499 0 -1 0 I I #
simple-snl-attrib $-1 -1 $-1 $213 $122 1 1 1 1 1 1 1 1 1 1 1 1 0 1 0 1 1 1 @17 NEW_SIMPLE_ATTRIB 1 @9 ENTITY_ID 0 3 26 -2147483648 -1 #
integer_attrib-name_attrib-gen-attrib $-1 -1 $401 $-1 $214 2 1 1 1 1 1 1 1 1 1 1 1 1 1 0 1 1 1 @8 CUBIT_ID 19 #
point $-1 -1 -1 $-1 -1.1547005383792499 1.1547005383792499 1.1547005383792499 #
simple-snl-attrib $-1 -1 $-1 $217 $124 1 1 1 1 1 1 1 1 1 1 1 1 0 1 0 1 1 1 @17 NEW_SIMPLE_ATTRIB 1 @9 ENTITY_ID 0 3 28 -2147483648 -1 #
integer_attrib-name_attrib-gen-attrib $-1 -1 $402 $-1 $218 2 1 1 1 1 1 1 1 1 1 1 1 1 1 0 1 1 1 @8 CUBIT_ID 20 #
point $-1 -1 -1 $-1 -1.1547005383792499 -1.1547005383792499 1.1547005383792499 #
integer_attrib-name_attrib-gen-attrib $-1 -1 $403 $-1 $220 2 1 1 1 1 1 1 1 1 1 1 1 1 1 0 1 1 1 @8 CUBIT_ID 34 #
straight-curve $-1 -1 -1 $-1 1.1547005383792499 -1.1547005383792499 0 0 0 -1 I I #
integer_attrib-name_attrib-gen-attrib $-1 -1 $404 $-1 $221 2 1 1 1 1 1 1 1 1 1 1 1 1 1 0 1 1 1 @8 CUBIT_ID 36 #
straight-curve $-1 -1 -1 $-1 1.1547005383792499 1.1547005383792499 0 0 0 -1 I I #
simple-snl-attrib $-1 -1 $-1 $223 $129 1 1 1 1 1 1 1 1 1 1 1 1 0 1 0 1 1 1 @17 NEW_SIMPLE_ATTRIB 1 @9 ENTITY_ID 0 3 17 -2147483648 -1 #
simple-snl-attrib $-1 -1 $-1 $225 $130 1 1 1 1 1 1 1 1 1 1 1 1 0 1 0 1 1 1 @17 NEW_SIMPLE_ATTRIB 1 @9 ENTITY_ID 0 3 18 -2147483648 -1 #
simple-snl-attrib $-1 -1 $-1 $228 $78 1 1 1 1 1 1 1 1 1 1 1 1 0 1 0 1 1 1 @17 NEW_SIMPLE_ATTRIB 3 @13 MESH_INTERVAL @4 LIMP @4 LIMP 2 1 0 5 1 0 0 1 1 #
simple-snl-attrib $-1 -1 $405 $229 $135 1 1 1 1 1 1 1 1 1 1 1 1 0 1 0 1 1 1 @17 NEW_SIMPLE_ATTRIB 1 @9 ENTITY_ID 0 3 11 -2147483648 -1 #
integer_attrib-name_attrib-gen-attrib $-1 -1 $406 $-1 $230 2 1 1 1 1 1 1 1 1 1 1 1 1 1 0 1 1 1 @8 CUBIT_ID 12 #
plane-surface $-1 -1 -1 $-1 4.5 0 0 -1 0 0 0 -0 1 forward_v I I I I #
coedge $-1 -1 -1 $-1 $233 $235 $237 $340 forward $136 $-1 #
edge $407 -1 -1 $-1 $254 -4.5 $342 4.5 $251 $408 forward @7 unknown T -4.5 4.5 -4.5 -4.5 4.5 4.5 #
integer_attrib-name_attrib-gen-attrib $-1 -1 $409 $-1 $236 2 1 1 1 1 1 1 1 1 1 1 1 1 1 0 1 1 1 @8 CUBIT_ID 21 #
vertex $410 -1 -1 $-1 $340 $411 #
straight-curve $-1 -1 -1 $-1 -4.5 -4.5 0 0 0 -1 I I #
edge $412 -1 -1 $-1 $338 -4.5 $342 4.5 $335 $413 forward @7 unknown T -4.5 -4.5 -4.5 -4.5 4.5 -4.5 #
integer_attrib-name_attrib-gen-attrib $-1 -1 $414 $-1 $239 2 1 1 1 1 1 1 1 1 1 1 1 1 1 0 1 1 1 @8 CUBIT_ID 18 #
vertex $415 -1 -1 $-1 $239 $416 #
straight-curve $-1 -1 -1 $-1 0 4.5 -4.5 1 0 0 I I #
integer_attrib-name_attrib-gen-attrib $-1 -1 $417 $-1 $240 2 1 1 1 1 1 1 1 1 1 1 1 1 1 0 1 1 1 @8 CUBIT_ID 20 #
straight-curve $-1 -1 -1 $-1 0 -4.5 -4.5 -1 0 0 I I #
simple-snl-attrib $-1 -1 $-1 $241 $142 1 1 1 1 1 1 1 1 1 1 1 1 0 1 0 1 1 1 @17 NEW_SIMPLE_ATTRIB 1 @9 ENTITY_ID 0 3 17 -2147483648 -1 #
integer_attrib-name_attrib-gen-attrib $-1 -1 $418 $-1 $242 2 1 1 1 1 1 1 1 1 1 1 1 1 1 0 1 1 1 @8 CUBIT_ID 13 #
point $-1 -1 -1 $-1 4.5 4.5 -4.5 #
integer_attrib-name_attrib-gen-attrib $-1 -1 $419 $-1 $243 2 1 1 1 1 1 1 1 1 1 1 1 1 1 0 1 1 1 @8 CUBIT_ID 14 #
point $-1 -1 -1 $-1 4.5 -4.5 -4.5 #
integer_attrib-name_attrib-gen-attrib $-1 -1 $420 $-1 $246 2 1 1 1 1 1 1 1 1 1 1 1 1 1 0 1 1 1 @8 CUBIT_ID 15 #
straight-curve $-1 -1 -1 $-1 -4.5 0 4.5 0 -1 0 I I #
simple-snl-attrib $-1 -1 $-1 $248 $145 1 1 1 1 1 1 1 1 1 1 1 1 0 1 0 1 1 1 @17 NEW_SIMPLE_ATTRIB 1 @9 ENTITY_ID 0 3 14 -2147483648 -1 #
integer_attrib-name_attrib-gen-attrib $-1 -1 $421 $-1 $249 2 1 1 1 1 1 1 1 1 1 1 1 1 1 0 1 1 1 @8 CUBIT_ID 11 #
point $-1 -1 -1 $-1 -4.5 -4.5 4.5 #
simple-snl-attrib $-1 -1 $-1 $253 $147 1 1 1 1 1 1 1 1 1 1 1 1 0 1 0 1 1 1 @17 NEW_SIMPLE_ATTRIB 1 @9 ENTITY_ID 0 3 16 -2147483648 -1 #
integer_attrib-name_attrib-gen-attrib $-1 -1 $422 $-1 $254 2 1 1 1 1 1 1 1 1 1 1 1 1 1 0 1 1 1 @8 CUBIT_ID 12 #
point $-1 -1 -1 $-1 -4.5 4.5 4.5 #
integer_attrib-name_attrib-gen-attrib $-1 -1 $423 $-1 $256 2 1 1 1 1 1 1 1 1 1 1 1 1 1 0 1 1 1 @8 CUBIT_ID 24 #
straight-curve $-1 -1 -1 $-1 4.5 4.5 0 0 0 -1 I I #
integer_attrib-name_attrib-gen-attrib $-1 -1 $424 $-1 $257 2 1 1 1 1 1 1 1 1 1 1 1 1 1 0 1 1 1 @8 CUBIT_ID 22 #
straight-curve $-1 -1 -1 $-1 4.5 -4.5 0 0 0 -1 I I #
simple-snl-attrib $-1 -1 $-1 $259 $152 1 1 1 1 1 1 1 1 1 1 1 1 0 1 0 1 1 1 @17 NEW_SIMPLE_ATTRIB 1 @9 ENTITY_ID 0 3 9 -2147483648 -1 #
simple-snl-attrib $-1 -1 $-1 $261 $153 1 1 1 1 1 1 1 1 1 1 1 1 0 1 0 1 1 1 @17 NEW_SIMPLE_ATTRIB 1 @9 ENTITY_ID 0 3 10 -2147483648 -1 #
simple-snl-attrib $-1 -1 $-1 $264 $89 1 1 1 1 1 1 1 1 1 1 1 1 0 1 0 1 1 1 @17 NEW_SIMPLE_ATTRIB 3 @13 MESH_INTERVAL @4 LIMP @4 LIMP 2 1 0 5 1 0 0 1 1 #
simple-snl-attrib $-1 -1 $425 $265 $158 1 1 1 1 1 1 1 1 1 1 1 1 0 1 0 1 1 1 @17 NEW_SIMPLE_ATTRIB 1 @9 ENTITY_ID 0 3 6 -2147483648 -1 #
integer_attrib-name_attrib-gen-attrib $-1 -1 $426 $-1 $268 2 1 1 1 1 1 1 1 1 1 1 1 1 1 0 1 1 1 @8 CUBIT_ID 11 #
straight-curve $-1 -1 -1 $-1 -5 5 0 0 0 -1 I I #
simple-snl-attrib $-1 -1 $-1 $269 $164 1 1 1 1 1 1 1 1 1 1 1 1 0 1 0 1 1 1 @17 NEW_SIMPLE_ATTRIB 1 @9 ENTITY_ID 0 3 9 -2147483648 -1 #
integer_attrib-name_attrib-gen-attrib $-1 -1 $427 $-1 $270 2 1 1 1 1 1 1 1 1 1 1 1 1 1 0 1 1 1 @8 CUBIT_ID 7 #
point $-1 -1 -1 $-1 -5 -5 -5 #
integer_attrib-name_attrib-gen-attrib $-1 -1 $428 $-1 $272 2 1 1 1 1 1 1 1 1 1 1 1 1 1 0 1 1 1 @8 CUBIT_ID 7 #
straight-curve $-1 -1 -1 $-1 -5 0 -5 0 1 0 I I #
simple-snl-attrib $-1 -1 $-1 $273 $166 1 1 1 1 1 1 1 1 1 1 1 1 0 1 0 1 1 1 @17 NEW_SIMPLE_ATTRIB 1 @9 ENTITY_ID 0 3 6 -2147483648 -1 #
simple-snl-attrib $-1 -1 $-1 $275 $168 1 1 1 1 1 1 1 1 1 1 1 1 0 1 0 1 1 1 @17 NEW_SIMPLE_ATTRIB 1 @9 ENTITY_ID 0 3 8 -2147483648 -1 #
integer_attrib-name_attrib-gen-attrib $-1 -1 $429 $-1 $276 2 1 1 1 1 1 1 1 1 1 1 1 1 1 0 1 1 1 @8 CUBIT_ID 8 #
point $-1 -1 -1 $-1 -5 5 -5 #
simple-snl-attrib $-1 -1 $-1 $279 $170 1 1 1 1 1 1 1 1 1 1 1 1 0 1 0 1 1 1 @17 NEW_SIMPLE_ATTRIB 1 @9 ENTITY_ID 0 3 5 -2147483648 -1 #
simple-snl-attrib $-1 -1 $-1 $281 $171 1 1 1 1 1 1 1 1 1 1 1 1 0 1 0 1 1 1 @17 NEW_SIMPLE_ATTRIB 1 @9 ENTITY_ID 0 3 6 -2147483648 -1 #
simple-snl-attrib $-1 -1 $-1 $283 $174 1 1 1 1 1 1 1 1 1 1 1 1 0 1 0 1 1 1 @17 NEW_SIMPLE_ATTRIB 1 @9 ENTITY_ID 0 3 3 -2147483648 -1 #
simple-snl-attrib $-1 -1 $-1 $286 $178 1 1 1 1 1 1 1 1 1 1 1 1 0 1 0 1 1 1 @17 NEW_SIMPLE_ATTRIB 1 @9 ENTITY_ID 0 3 3 -2147483648 -1 #
simple-snl-attrib $-1 -1 $-1 $289 $182 1 1 1 1 1 1 1 1 1 1 1 1 0 1 0 1 1 1 @17 NEW_SIMPLE_ATTRIB 1 @9 ENTITY_ID 0 3 4 -2147483648 -1 #
simple-snl-attrib $-1 -1 $-1 $291 $184 1 1 1 1 1 1 1 1 1 1 1 1 0 1 0 1 1 1 @17 NEW_SIMPLE_ATTRIB 1 @9 ENTITY_ID 0 3 10 -2147483648 -1 #
simple-snl-attrib $-1 -1 $-1 $293 $185 1 1 1 1 1 1 1 1 1 1 1 1 0 1 0 1 1 1 @17 NEW_SIMPLE_ATTRIB 1 @9 ENTITY_ID 0 3 12 -2147483648 -1 #
simple-snl-attrib $-1 -1 $-1 $298 $112 1 1 1 1 1 1 1 1 1 1 1 1 0 1 0 1 1 1 @17 NEW_SIMPLE_ATTRIB 3 @13 MESH_INTERVAL @4 LIMP @4 LIMP 2 1 0 5 1 0 0 1 1 #
simple-snl-attrib $-1 -1 $430 $299 $194 1 1 1 1 1 1 1 1 1 1 1 1 0 1 0 1 1 1 @17 NEW_SIMPLE_ATTRIB 1 @9 ENTITY_ID 0 3 18 -2147483648 -1 #
integer_attrib-name_attrib-gen-attrib $-1 -1 $431 $-1 $302 2 1 1 1 1 1 1 1 1 1 1 1 1 1 0 1 1 1 @8 CUBIT_ID 35 #
straight-curve $-1 -1 -1 $-1 -1.1547005383792499 1.1547005383792499 0 0 0 -1 I I #
simple-snl-attrib $-1 -1 $-1 $303 $200 1 1 1 1 1 1 1 1 1 1 1 1 0 1 0 1 1 1 @17 NEW_SIMPLE_ATTRIB 1 @9 ENTITY_ID 0 3 33 -2147483648 -1 #
integer_attrib-name_attrib-gen-attrib $-1 -1 $432 $-1 $304 2 1 1 1 1 1 1 1 1 1 1 1 1 1 0 1 1 1 @8 CUBIT_ID 23 #
point $-1 -1 -1 $-1 -1.1547005383792499 -1.1547005383792499 -1.1547005383792499 #
integer_attrib-name_attrib-gen-attrib $-1 -1 $433 $-1 $306 2 1 1 1 1 1 1 1 1 1 1 1 1 1 0 1 1 1 @8 CUBIT_ID 31 #
straight-curve $-1 -1 -1 $-1 -1.1547005383792499 0 -1.1547005383792499 0 1 0 I I #
simple-snl-attrib $-1 -1 $-1 $307 $202 1 1 1 1 1 1 1 1 1 1 1 1 0 1 0 1 1 1 @17 NEW_SIMPLE_ATTRIB 1 @9 ENTITY_ID 0 3 30 -2147483648 -1 #
simple-snl-attrib $-1 -1 $-1 $309 $204 1 1 1 1 1 1 1 1 1 1 1 1 0 1 0 1 1 1 @17 NEW_SIMPLE_ATTRIB 1 @9 ENTITY_ID 0 3 32 -2147483648 -1 #
integer_attrib-name_attrib-gen-attrib $-1 -1 $434 $-1 $310 2 1 1 1 1 1 1 1 1 1 1 1 1 1 0 1 1 1 @8 CUBIT_ID 24 #
point $-1 -1 -1 $-1 -1.1547005383792499 1.1547005383792499 -1.1547005383792499 #
simple-snl-attrib $-1 -1 $-1 $313 $206 1 1 1 1 1 1 1 1 1 1 1 1 0 1 0 1 1 1 @17 NEW_SIMPLE_ATTRIB 1 @9 ENTITY_ID 0 3 21 -2147483648 -1 #
simple-snl-attrib $-1 -1 $-1 $315 $207 1 1 1 1 1 1 1 1 1 1 1 1 0 1 0 1 1 1 @17 NEW_SIMPLE_ATTRIB 1 @9 ENTITY_ID 0 3 22 -2147483648 -1 #
simple-snl-attrib $-1 -1 $-1 $317 $210 1 1 1 1 1 1 1 1 1 1 1 1 0 1 0 1 1 1 @17 NEW_SIMPLE_ATTRIB 1 @9 ENTITY_ID 0 3 27 -2147483648 -1 #
simple-snl-attrib $-1 -1 $-1 $320 $214 1 1 1 1 1 1 1 1 1 1 1 1 0 1 0 1 1 1 @17 NEW_SIMPLE_ATTRIB 1 @9 ENTITY_ID 0 3 19 -2147483648 -1 #
simple-snl-attrib $-1 -1 $-1 $323 $218 1 1 1 1 1 1 1 1 1 1 1 1 0 1 0 1 1 1 @17 NEW_SIMPLE_ATTRIB 1 @9 ENTITY_ID 0 3 20 -2147483648 -1 #
simple-snl-attrib $-1 -1 $-1 $325 $220 1 1 1 1 1 1 1 1 1 1 1 1 0 1 0 1 1 1 @17 NEW_SIMPLE_ATTRIB 1 @9 ENTITY_ID 0 3 34 -2147483648 -1 #
simple-snl-attrib $-1 -1 $-1 $327 $221 1 1 1 1 1 1 1 1 1 1 1 1 0 1 0 1 1 1 @17 NEW_SIMPLE_ATTRIB 1 @9 ENTITY_ID 0 3 36 -2147483648 -1 #
simple-snl-attrib $-1 -1 $-1 $332 $135 1 1 1 1 1 1 1 1 1 1 1 1 0 1 0 1 1 1 @17 NEW_SIMPLE_ATTRIB 3 @13 MESH_INTERVAL @4 LIMP @4 LIMP 2 1 0 5 1 0 0 1 1 #
simple-snl-attrib $-1 -1 $435 $333 $230 1 1 1 1 1 1 1 1 1 1 1 1 0 1 0 1 1 1 @17 NEW_SIMPLE_ATTRIB 1 @9 ENTITY_ID 0 3 12 -2147483648 -1 #
integer_attrib-name_attrib-gen-attrib $-1 -1 $436 $-1 $336 2 1 1 1 1 1 1 1 1 1 1 1 1 1 0 1 1 1 @8 CUBIT_ID 23 #
straight-curve $-1 -1 -1 $-1 -4.5 4.5 0 0 0 -1 I I #
simple-snl-attrib $-1 -1 $-1 $337 $236 1 1 1 1 1 1 1 1 1 1 1 1 0 1 0 1 1 1 @17 NEW_SIMPLE_ATTRIB 1 @9 ENTITY_ID 0 3 21 -2147483648 -1 #
integer_attrib-name_attrib-gen-attrib $-1 -1 $437 $-1 $338 2 1 1 1 1 1 1 1 1 1 1 1 1 1 0 1 1 1 @8 CUBIT_ID 16 #
point $-1 -1 -1 $-1 -4.5 -4.5 -4.5 #
integer_attrib-name_attrib-gen-attrib $-1 -1 $438 $-1 $340 2 1 1 1 1 1 1 1 1 1 1 1 1 1 0 1 1 1 @8 CUBIT_ID 19 #
straight-curve $-1 -1 -1 $-1 -4.5 0 -4.5 0 1 0 I I #
simple-snl-attrib $-1 -1 $-1 $341 $239 1 1 1 1 1 1 1 1 1 1 1 1 0 1 0 1 1 1 @17 NEW_SIMPLE_ATTRIB 1 @9 ENTITY_ID 0 3 18 -2147483648 -1 #
integer_attrib-name_attrib-gen-attrib $-1 -1 $439 $-1 $342 2 1 1 1 1 1 1 1 1 1 1 1 1 1 0 1 1 1 @8 CUBIT_ID 15 #
point $-1 -1 -1 $-1 -4.5 4.5 -4.5 #
simple-snl-attrib $-1 -1 $-1 $344 $240 1 1 1 1 1 1 1 1 1 1 1 1 0 1 0 1 1 1 @17 NEW_SIMPLE_ATTRIB 1 @9 ENTITY_ID 0 3 20 -2147483648 -1 #
simple-snl-attrib $-1 -1 $-1 $347 $242 1 1 1 1 1 1 1 1 1 1 1 1 0 1 0 1 1 1 @17 NEW_SIMPLE_ATTRIB 1 @9 ENTITY_ID 0 3 13 -2147483648 -1 #
simple-snl-attrib $-1 -1 $-1 $349 $243 1 1 1 1 1 1 1 1 1 1 1 1 0 1 0 1 1 1 @17 NEW_SIMPLE_ATTRIB 1 @9 ENTITY_ID 0 3 14 -2147483648 -1 #
simple-snl-attrib $-1 -1 $-1 $351 $246 1 1 1 1 1 1 1 1 1 1 1 1 0 1 0 1 1 1 @17 NEW_SIMPLE_ATTRIB 1 @9 ENTITY_ID 0 3 15 -2147483648 -1 #
simple-snl-attrib $-1 -1 $-1 $354 $249 1 1 1 1 1 1 1 1 1 1 1 1 0 1 0 1 1 1 @17 NEW_SIMPLE_ATTRIB 1 @9 ENTITY_ID 0 3 11 -2147483648 -1 #
simple-snl-attrib $-1 -1 $-1 $357 $254 1 1 1 1 1 1 1 1 1 1 1 1 0 1 0 1 1 1 @17 NEW_SIMPLE_ATTRIB 1 @9 ENTITY_ID 0 3 12 -2147483648 -1 #
simple-snl-attrib $-1 -1 $-1 $359 $256 1 1 1 1 1 1 1 1 1 1 1 1 0 1 0 1 1 1 @17 NEW_SIMPLE_ATTRIB 1 @9 ENTITY_ID 0 3 24 -2147483648 -1 #
simple-snl-attrib $-1 -1 $-1 $361 $257 1 1 1 1 1 1 1 1 1 1 1 1 0 1 0 1 1 1 @17 NEW_SIMPLE_ATTRIB 1 @9 ENTITY_ID 0 3 22 -2147483648 -1 #
simple-snl-attrib $-1 -1 $-1 $366 $158 1 1 1 1 1 1 1 1 1 1 1 1 0 1 0 1 1 1 @17 NEW_SIMPLE_ATTRIB 3 @13 MESH_INTERVAL @4 LIMP @4 LIMP 2 1 0 5 1 0 0 1 1 #
simple-snl-attrib $-1 -1 $-1 $367 $268 1 1 1 1 1 1 1 1 1 1 1 1 0 1 0 1 1 1 @17 NEW_SIMPLE_ATTRIB 1 @9 ENTITY_ID 0 3 11 -2147483648 -1 #
simple-snl-attrib $-1 -1 $-1 $370 $270 1 1 1 1 1 1 1 1 1 1 1 1 0 1 0 1 1 1 @17 NEW_SIMPLE_ATTRIB 1 @9 ENTITY_ID 0 3 7 -2147483648 -1 #
simple-snl-attrib $-1 -1 $-1 $372 $272 1 1 1 1 1 1 1 1 1 1 1 1 0 1 0 1 1 1 @17 NEW_SIMPLE_ATTRIB 1 @9 ENTITY_ID 0 3 7 -2147483648 -1 #
simple-snl-attrib $-1 -1 $-1 $376 $276 1 1 1 1 1 1 1 1 1 1 1 1 0 1 0 1 1 1 @17 NEW_SIMPLE_ATTRIB 1 @9 ENTITY_ID 0 3 8 -2147483648 -1 #
simple-snl-attrib $-1 -1 $-1 $386 $194 1 1 1 1 1 1 1 1 1 1 1 1 0 1 0 1 1 1 @17 NEW_SIMPLE_ATTRIB 3 @13 MESH_INTERVAL @4 LIMP @4 LIMP 2 1 0 5 1 0 0 1 1 #
simple-snl-attrib $-1 -1 $-1 $387 $302 1 1 1 1 1 1 1 1 1 1 1 1 0 1 0 1 1 1 @17 NEW_SIMPLE_ATTRIB 1 @9 ENTITY_ID 0 3 35 -2147483648 -1 #
simple-snl-attrib $-1 -1 $-1 $390 $304 1 1 1 1 1 1 1 1 1 1 1 1 0 1 0 1 1 1 @17 NEW_SIMPLE_ATTRIB 1 @9 ENTITY_ID 0 3 23 -2147483648 -1 #
simple-snl-attrib $-1 -1 $-1 $392 $306 1 1 1 1 1 1 1 1 1 1 1 1 0 1 0 1 1 1 @17 NEW_SIMPLE_ATTRIB 1 @9 ENTITY_ID 0 3 31 -2147483648 -1 #
simple-snl-attrib $-1 -1 $-1 $396 $310 1 1 1 1 1 1 1 1 1 1 1 1 0 1 0 1 1 1 @17 NEW_SIMPLE_ATTRIB 1 @9 ENTITY_ID 0 3 24 -2147483648 -1 #
simple-snl-attrib $-1 -1 $-1 $406 $230 1 1 1 1 1 1 1 1 1 1 1 1 0 1 0 1 1 1 @17 NEW_SIMPLE_ATTRIB 3 @13 MESH_INTERVAL @4 LIMP @4 LIMP 2 1 0 5 1 0 0 1 1 #
simple-snl-attrib $-1 -1 $-1 $407 $336 1 1 1 1 1 1 1 1 1 1 1 1 0 1 0 1 1 1 @17 NEW_SIMPLE_ATTRIB 1 @9 ENTITY_ID 0 3 23 -2147483648 -1 #
simple-snl-attrib $-1 -1 $-1 $410 $338 1 1 1 1 1 1 1 1 1 1 1 1 0 1 0 1 1 1 @17 NEW_SIMPLE_ATTRIB 1 @9 ENTITY_ID 0 3 16 -2147483648 -1 #
simple-snl-attrib $-1 -1 $-1 $412 $340 1 1 1 1 1 1 1 1 1 1 1 1 0 1 0 1 1 1 @17 NEW_SIMPLE_ATTRIB 1 @9 ENTITY_ID 0 3 19 -2147483648 -1 #
simple-snl-attrib $-1 -1 $-1 $415 $342 1 1 1 1 1 1 1 1 1 1 1 1 0 1 0 1 1 1 @17 NEW_SIMPLE_ATTRIB 1 @9 ENTITY_ID 0 3 15 -2147483648 -1 #
End-of-ACIS-data