1900 0 2 0           
10 Cubit 14.0 17 ACIS 22.0.2 Linux 24 Fri Jul 15 14:29:40 2016 
1 9.9999999999999995e-07 1e-10 
body $2 -1 -1 $-1 $3 $-1 $4 T -5 -5 -5 5 5 5 #
body $5 -1 -1 $-1 $6 $-1 $7 T -12.5 -12.5 -12.5 12.5 12.5 12.5 #
integer_attrib-name_attrib-gen-attrib $-1 -1 $8 $-1 $0 2 1 1 1 1 1 1 1 1 1 1 1 1 1 0 1 1 1 @8 CUBIT_ID 1 #
lump $9 -1 -1 $-1 $-1 $10 $0 T -5 -5 -5 5 5 5 #
transform $-1 -1 1 0 0 0 1 0 0 0 1 0 0 0 1 no_rotate no_reflect no_shear #
integer_attrib-name_attrib-gen-attrib $-1 -1 $11 $-1 $1 2 1 1 1 1 1 1 1 1 1 1 1 1 1 0 1 1 1 @8 CUBIT_ID 3 #
lump $12 -1 -1 $-1 $-1 $13 $1 T -12.5 -12.5 -12.5 12.5 12.5 12.5 #
transform $-1 -1 1 0 0 0 1 0 0 0 1 0 0 0 1 no_rotate no_reflect no_shear #
simple-snl-attrib $-1 -1 $-1 $2 $0 1 1 1 1 1 1 1 1 1 1 1 1 0 1 0 1 1 1 @17 NEW_SIMPLE_ATTRIB 1 @9 ENTITY_ID 0 3 1 -2147483648 -1 #
integer_attrib-name_attrib-gen-attrib $-1 -1 $14 $-1 $3 2 1 1 1 1 1 1 1 1 1 1 1 1 1 0 1 1 1 @8 CUBIT_ID 1 #
shell $-1 -1 -1 $-1 $-1 $-1 $15 $-1 $3 T -5 -5 -5 5 5 5 #
simple-snl-attrib $-1 -1 $-1 $5 $1 1 1 1 1 1 1 1 1 1 1 1 1 0 1 0 1 1 1 @17 NEW_SIMPLE_ATTRIB 1 @9 ENTITY_ID 0 3 3 -2147483648 -1 #
integer_attrib-name_attrib-gen-attrib $-1 -1 $16 $-1 $6 2 1 1 1 1 1 1 1 1 1 1 1 1 1 0 1 1 1 @8 CUBIT_ID 4 #
shell $-1 -1 -1 $-1 $17 $-1 $18 $-1 $6 T -12.5 -12.5 -12.5 12.5 12.5 12.5 #
simple-snl-attrib $-1 -1 $19 $9 $3 1 1 1 1 1 1 1 1 1 1 1 1 0 1 0 1 1 1 @17 NEW_SIMPLE_ATTRIB 1 @9 ENTITY_ID 0 3 1 -2147483648 -1 #
face $20 -1 -1 $-1 $-1 $-1 $10 $-1 $21 forward single T -5 -5 -5 5 5 5 F #
simple-snl-attrib $-1 -1 $22 $12 $6 1 1 1 1 1 1 1 1 1 1 1 1 0 1 0 1 1 1 @17 NEW_SIMPLE_ATTRIB 1 @9 ENTITY_ID 0 3 4 -2147483648 -1 #
shell $-1 -1 -1 $-1 $-1 $-1 $23 $-1 $6 T -10 -10 -10 10 10 10 #
face $24 -1 -1 $-1 $25 $26 $13 $-1 $27 forward single T -12.5 -12.5 12.5 12.5 12.5 12.5 F #
simple-snl-attrib $-1 -1 $-1 $14 $3 1 1 1 1 1 1 1 1 1 1 1 1 0 1 0 1 1 1 @17 NEW_SIMPLE_ATTRIB 3 @5 GROUP @15 mat_1_rho_-18.9 @26 estimator_4.cell.tl.flux.n 0 11 2 3 4 833052224 510989541 0 0 0 0 0 0 #
integer_attrib-name_attrib-gen-attrib $-1 -1 $28 $-1 $15 2 1 1 1 1 1 1 1 1 1 1 1 1 1 0 1 1 1 @8 CUBIT_ID 1 #
sphere-surface $-1 -1 -1 $-1 0 0 0 5 1 0 0 0 0 1 forward_v I I I I #
simple-snl-attrib $-1 -1 $-1 $16 $6 1 1 1 1 1 1 1 1 1 1 1 1 0 1 0 1 1 1 @17 NEW_SIMPLE_ATTRIB 2 @5 GROUP @16 termination.cell 0 7 1 2 310159858 0 0 0 0 #
face $29 -1 -1 $-1 $30 $31 $17 $-1 $32 reversed single T -10 -10 10 10 10 10 F #
integer_attrib-name_attrib-gen-attrib $-1 -1 $33 $-1 $18 2 1 1 1 1 1 1 1 1 1 1 1 1 1 0 1 1 1 @8 CUBIT_ID 8 #
face $34 -1 -1 $-1 $35 $36 $13 $-1 $37 reversed single T -12.5 -12.5 -12.5 12.5 12.5 -12.5 F #
loop $-1 -1 -1 $-1 $-1 $38 $18 T -12.5 -12.5 12.5 12.5 12.5 12.5 unknown #
plane-surface $-1 -1 -1 $-1 0 0 12.5 0 0 1 1 0 0 forward_v I I I I #
simple-snl-attrib $-1 -1 $-1 $20 $15 1 1 1 1 1 1 1 1 1 1 1 1 0 1 0 1 1 1 @17 NEW_SIMPLE_ATTRIB 1 @9 ENTITY_ID 0 3 1 -2147483648 -1 #
integer_attrib-name_attrib-gen-attrib $-1 -1 $39 $-1 $23 2 1 1 1 1 1 1 1 1 1 1 1 1 1 0 1 1 1 @8 CUBIT_ID 14 #
face $40 -1 -1 $-1 $41 $42 $17 $-1 $43 forward single T -10 -10 -10 10 10 -10 F #
loop $-1 -1 -1 $-1 $-1 $44 $23 T -10 -10 10 10 10 10 unknown #
plane-surface $-1 -1 -1 $-1 0 0 10 0 0 1 1 0 0 forward_v I I I I #
simple-snl-attrib $-1 -1 $-1 $24 $18 1 1 1 1 1 1 1 1 1 1 1 1 0 1 0 1 1 1 @17 NEW_SIMPLE_ATTRIB 1 @9 ENTITY_ID 0 3 8 -2147483648 -1 #
integer_attrib-name_attrib-gen-attrib $-1 -1 $45 $-1 $25 2 1 1 1 1 1 1 1 1 1 1 1 1 1 0 1 1 1 @8 CUBIT_ID 9 #
face $46 -1 -1 $-1 $47 $48 $13 $-1 $49 reversed single T -12.5 -12.5 -12.5 12.5 -12.5 12.5 F #
loop $-1 -1 -1 $-1 $-1 $50 $25 T -12.5 -12.5 -12.5 12.5 12.5 -12.5 unknown #
plane-surface $-1 -1 -1 $-1 0 0 -12.5 0 0 1 1 0 0 forward_v I I I I #
coedge $-1 -1 -1 $-1 $51 $52 $53 $54 forward $26 $-1 #
simple-snl-attrib $-1 -1 $-1 $29 $23 1 1 1 1 1 1 1 1 1 1 1 1 0 1 0 1 1 1 @17 NEW_SIMPLE_ATTRIB 1 @9 ENTITY_ID 0 3 14 -2147483648 -1 #
integer_attrib-name_attrib-gen-attrib $-1 -1 $55 $-1 $30 2 1 1 1 1 1 1 1 1 1 1 1 1 1 0 1 1 1 @8 CUBIT_ID 15 #
face $56 -1 -1 $-1 $57 $58 $17 $-1 $59 forward single T -10 -10 -10 10 -10 10 F #
loop $-1 -1 -1 $-1 $-1 $60 $30 T -10 -10 -10 10 10 -10 unknown #
plane-surface $-1 -1 -1 $-1 0 0 -10 0 0 1 1 0 0 forward_v I I I I #
coedge $-1 -1 -1 $-1 $61 $62 $63 $64 reversed $31 $-1 #
simple-snl-attrib $-1 -1 $-1 $34 $25 1 1 1 1 1 1 1 1 1 1 1 1 0 1 0 1 1 1 @17 NEW_SIMPLE_ATTRIB 1 @9 ENTITY_ID 0 3 9 -2147483648 -1 #
integer_attrib-name_attrib-gen-attrib $-1 -1 $65 $-1 $35 2 1 1 1 1 1 1 1 1 1 1 1 1 1 0 1 1 1 @8 CUBIT_ID 10 #
face $66 -1 -1 $-1 $67 $68 $13 $-1 $69 reversed single T -12.5 -12.5 -12.5 -12.5 12.5 12.5 F #
loop $-1 -1 -1 $-1 $-1 $70 $35 T -12.5 -12.5 -12.5 12.5 -12.5 12.5 unknown #
plane-surface $-1 -1 -1 $-1 0 -12.5 0 0 1 -0 -0 0 1 forward_v I I I I #
coedge $-1 -1 -1 $-1 $71 $72 $73 $74 forward $36 $-1 #
coedge $-1 -1 -1 $-1 $75 $38 $76 $77 forward $26 $-1 #
coedge $-1 -1 -1 $-1 $38 $75 $78 $79 forward $26 $-1 #
coedge $-1 -1 -1 $-1 $80 $81 $38 $54 reversed $82 $-1 #
edge $83 -1 -1 $-1 $84 -12.5 $85 12.5 $53 $86 forward @7 unknown T 12.5 -12.5 12.5 12.5 12.5 12.5 #
simple-snl-attrib $-1 -1 $-1 $40 $30 1 1 1 1 1 1 1 1 1 1 1 1 0 1 0 1 1 1 @17 NEW_SIMPLE_ATTRIB 1 @9 ENTITY_ID 0 3 15 -2147483648 -1 #
integer_attrib-name_attrib-gen-attrib $-1 -1 $87 $-1 $41 2 1 1 1 1 1 1 1 1 1 1 1 1 1 0 1 1 1 @8 CUBIT_ID 16 #
face $88 -1 -1 $-1 $89 $90 $17 $-1 $91 forward single T -10 -10 -10 -10 10 10 F #
loop $-1 -1 -1 $-1 $-1 $92 $41 T -10 -10 -10 10 -10 10 unknown #
plane-surface $-1 -1 -1 $-1 0 -10 0 0 1 -0 -0 0 1 forward_v I I I I #
coedge $-1 -1 -1 $-1 $93 $94 $95 $96 reversed $42 $-1 #
coedge $-1 -1 -1 $-1 $97 $44 $98 $99 reversed $31 $-1 #
coedge $-1 -1 -1 $-1 $44 $97 $100 $101 reversed $31 $-1 #
coedge $-1 -1 -1 $-1 $102 $103 $44 $64 forward $104 $-1 #
edge $105 -1 -1 $-1 $106 -10 $107 10 $63 $108 forward @7 unknown T 10 -10 10 10 10 10 #
simple-snl-attrib $-1 -1 $-1 $46 $35 1 1 1 1 1 1 1 1 1 1 1 1 0 1 0 1 1 1 @17 NEW_SIMPLE_ATTRIB 1 @9 ENTITY_ID 0 3 10 -2147483648 -1 #
integer_attrib-name_attrib-gen-attrib $-1 -1 $109 $-1 $47 2 1 1 1 1 1 1 1 1 1 1 1 1 1 0 1 1 1 @8 CUBIT_ID 11 #
face $110 -1 -1 $-1 $111 $112 $13 $-1 $113 reversed single T -12.5 12.5 -12.5 12.5 12.5 12.5 F #
loop $-1 -1 -1 $-1 $-1 $114 $47 T -12.5 -12.5 -12.5 -12.5 12.5 12.5 unknown #
plane-surface $-1 -1 -1 $-1 -12.5 0 0 1 0 0 0 0 -1 forward_v I I I I #
coedge $-1 -1 -1 $-1 $115 $78 $116 $117 forward $48 $-1 #
coedge $-1 -1 -1 $-1 $118 $50 $115 $119 forward $36 $-1 #
coedge $-1 -1 -1 $-1 $50 $118 $120 $121 forward $36 $-1 #
coedge $-1 -1 -1 $-1 $81 $80 $50 $74 reversed $82 $-1 #
edge $122 -1 -1 $-1 $123 -12.5 $124 12.5 $73 $125 forward @7 unknown T 12.5 -12.5 -12.5 12.5 12.5 -12.5 #
coedge $-1 -1 -1 $-1 $52 $51 $126 $127 forward $26 $-1 #
coedge $-1 -1 -1 $-1 $128 $129 $51 $77 reversed $112 $-1 #
edge $130 -1 -1 $-1 $85 -12.5 $131 12.5 $76 $132 forward @7 unknown T -12.5 12.5 12.5 12.5 12.5 12.5 #
coedge $-1 -1 -1 $-1 $70 $133 $52 $79 reversed $48 $-1 #
edge $134 -1 -1 $-1 $135 -12.5 $84 12.5 $78 $136 forward @7 unknown T -12.5 -12.5 12.5 12.5 -12.5 12.5 #
coedge $-1 -1 -1 $-1 $73 $53 $133 $137 forward $82 $-1 #
coedge $-1 -1 -1 $-1 $53 $73 $128 $138 reversed $82 $-1 #
loop $-1 -1 -1 $-1 $-1 $80 $111 T 12.5 -12.5 -12.5 12.5 12.5 12.5 unknown #
integer_attrib-name_attrib-gen-attrib $-1 -1 $139 $-1 $54 2 1 1 1 1 1 1 1 1 1 1 1 1 1 0 1 1 1 @8 CUBIT_ID 13 #
vertex $140 -1 -1 $-1 $54 $141 #
vertex $142 -1 -1 $-1 $54 $143 #
straight-curve $-1 -1 -1 $-1 12.5 0 12.5 0 1 0 I I #
simple-snl-attrib $-1 -1 $-1 $56 $41 1 1 1 1 1 1 1 1 1 1 1 1 0 1 0 1 1 1 @17 NEW_SIMPLE_ATTRIB 1 @9 ENTITY_ID 0 3 16 -2147483648 -1 #
integer_attrib-name_attrib-gen-attrib $-1 -1 $144 $-1 $57 2 1 1 1 1 1 1 1 1 1 1 1 1 1 0 1 1 1 @8 CUBIT_ID 17 #
face $145 -1 -1 $-1 $146 $147 $17 $-1 $148 forward single T -10 10 -10 10 10 10 F #
loop $-1 -1 -1 $-1 $-1 $149 $57 T -10 -10 -10 -10 10 10 unknown #
plane-surface $-1 -1 -1 $-1 -10 0 0 1 0 0 0 0 -1 forward_v I I I I #
coedge $-1 -1 -1 $-1 $98 $150 $151 $152 reversed $58 $-1 #
coedge $-1 -1 -1 $-1 $153 $60 $154 $155 reversed $42 $-1 #
coedge $-1 -1 -1 $-1 $60 $153 $150 $156 reversed $42 $-1 #
coedge $-1 -1 -1 $-1 $103 $102 $60 $96 forward $104 $-1 #
edge $157 -1 -1 $-1 $158 -10 $159 10 $95 $160 forward @7 unknown T 10 -10 -10 10 10 -10 #
coedge $-1 -1 -1 $-1 $62 $61 $161 $162 reversed $31 $-1 #
coedge $-1 -1 -1 $-1 $163 $92 $61 $99 forward $58 $-1 #
edge $164 -1 -1 $-1 $165 -10 $106 10 $98 $166 forward @7 unknown T -10 -10 10 10 -10 10 #
coedge $-1 -1 -1 $-1 $167 $168 $62 $101 forward $147 $-1 #
edge $169 -1 -1 $-1 $107 -10 $170 10 $100 $171 forward @7 unknown T -10 10 10 10 10 10 #
coedge $-1 -1 -1 $-1 $95 $63 $168 $172 forward $104 $-1 #
coedge $-1 -1 -1 $-1 $63 $95 $163 $173 reversed $104 $-1 #
loop $-1 -1 -1 $-1 $-1 $103 $146 T 10 -10 -10 10 10 10 unknown #
integer_attrib-name_attrib-gen-attrib $-1 -1 $174 $-1 $64 2 1 1 1 1 1 1 1 1 1 1 1 1 1 0 1 1 1 @8 CUBIT_ID 25 #
vertex $175 -1 -1 $-1 $64 $176 #
vertex $177 -1 -1 $-1 $64 $178 #
straight-curve $-1 -1 -1 $-1 10 0 10 0 1 0 I I #
simple-snl-attrib $-1 -1 $-1 $66 $47 1 1 1 1 1 1 1 1 1 1 1 1 0 1 0 1 1 1 @17 NEW_SIMPLE_ATTRIB 1 @9 ENTITY_ID 0 3 11 -2147483648 -1 #
integer_attrib-name_attrib-gen-attrib $-1 -1 $179 $-1 $67 2 1 1 1 1 1 1 1 1 1 1 1 1 1 0 1 1 1 @8 CUBIT_ID 12 #
face $180 -1 -1 $-1 $-1 $82 $13 $-1 $181 reversed single T 12.5 -12.5 -12.5 12.5 12.5 12.5 F #
loop $-1 -1 -1 $-1 $-1 $128 $67 T -12.5 12.5 -12.5 12.5 12.5 12.5 unknown #
plane-surface $-1 -1 -1 $-1 0 12.5 0 0 -1 0 0 0 -1 forward_v I I I I #
coedge $-1 -1 -1 $-1 $182 $126 $129 $183 forward $68 $-1 #
coedge $-1 -1 -1 $-1 $133 $70 $71 $119 reversed $48 $-1 #
coedge $-1 -1 -1 $-1 $126 $182 $70 $117 reversed $68 $-1 #
edge $184 -1 -1 $-1 $135 -12.5 $185 12.5 $116 $186 forward @7 unknown T -12.5 -12.5 -12.5 -12.5 -12.5 12.5 #
coedge $-1 -1 -1 $-1 $72 $71 $182 $187 forward $36 $-1 #
edge $188 -1 -1 $-1 $124 -12.5 $185 12.5 $115 $189 forward @7 unknown T -12.5 -12.5 -12.5 12.5 -12.5 -12.5 #
coedge $-1 -1 -1 $-1 $129 $128 $72 $121 reversed $112 $-1 #
edge $190 -1 -1 $-1 $191 -12.5 $123 12.5 $120 $192 forward @7 unknown T -12.5 12.5 -12.5 12.5 12.5 -12.5 #
integer_attrib-name_attrib-gen-attrib $-1 -1 $193 $-1 $74 2 1 1 1 1 1 1 1 1 1 1 1 1 1 0 1 1 1 @8 CUBIT_ID 17 #
vertex $194 -1 -1 $-1 $74 $195 #
vertex $196 -1 -1 $-1 $137 $197 #
straight-curve $-1 -1 -1 $-1 12.5 0 -12.5 0 -1 0 I I #
coedge $-1 -1 -1 $-1 $114 $116 $75 $127 reversed $68 $-1 #
edge $198 -1 -1 $-1 $131 -12.5 $135 12.5 $126 $199 forward @7 unknown T -12.5 -12.5 12.5 -12.5 12.5 12.5 #
coedge $-1 -1 -1 $-1 $120 $76 $81 $138 forward $112 $-1 #
coedge $-1 -1 -1 $-1 $76 $120 $114 $183 reversed $112 $-1 #
integer_attrib-name_attrib-gen-attrib $-1 -1 $200 $-1 $77 2 1 1 1 1 1 1 1 1 1 1 1 1 1 0 1 1 1 @8 CUBIT_ID 14 #
vertex $201 -1 -1 $-1 $77 $202 #
straight-curve $-1 -1 -1 $-1 0 12.5 12.5 -1 0 0 I I #
coedge $-1 -1 -1 $-1 $78 $115 $80 $137 reversed $48 $-1 #
integer_attrib-name_attrib-gen-attrib $-1 -1 $203 $-1 $79 2 1 1 1 1 1 1 1 1 1 1 1 1 1 0 1 1 1 @8 CUBIT_ID 16 #
vertex $204 -1 -1 $-1 $127 $205 #
straight-curve $-1 -1 -1 $-1 0 -12.5 12.5 1 0 0 I I #
edge $206 -1 -1 $-1 $84 -12.5 $124 12.5 $80 $207 forward @7 unknown T 12.5 -12.5 -12.5 12.5 -12.5 12.5 #
edge $208 -1 -1 $-1 $85 -12.5 $123 12.5 $81 $209 forward @7 unknown T 12.5 12.5 -12.5 12.5 12.5 12.5 #
simple-snl-attrib $-1 -1 $-1 $83 $54 1 1 1 1 1 1 1 1 1 1 1 1 0 1 0 1 1 1 @17 NEW_SIMPLE_ATTRIB 1 @9 ENTITY_ID 0 3 13 -2147483648 -1 #
integer_attrib-name_attrib-gen-attrib $-1 -1 $210 $-1 $84 2 1 1 1 1 1 1 1 1 1 1 1 1 1 0 1 1 1 @8 CUBIT_ID 9 #
point $-1 -1 -1 $-1 12.5 -12.5 12.5 #
integer_attrib-name_attrib-gen-attrib $-1 -1 $211 $-1 $85 2 1 1 1 1 1 1 1 1 1 1 1 1 1 0 1 1 1 @8 CUBIT_ID 10 #
point $-1 -1 -1 $-1 12.5 12.5 12.5 #
simple-snl-attrib $-1 -1 $-1 $88 $57 1 1 1 1 1 1 1 1 1 1 1 1 0 1 0 1 1 1 @17 NEW_SIMPLE_ATTRIB 1 @9 ENTITY_ID 0 3 17 -2147483648 -1 #
integer_attrib-name_attrib-gen-attrib $-1 -1 $212 $-1 $89 2 1 1 1 1 1 1 1 1 1 1 1 1 1 0 1 1 1 @8 CUBIT_ID 18 #
face $213 -1 -1 $-1 $-1 $104 $17 $-1 $214 forward single T 10 -10 -10 10 10 10 F #
loop $-1 -1 -1 $-1 $-1 $168 $89 T -10 10 -10 10 10 10 unknown #
plane-surface $-1 -1 -1 $-1 0 10 0 0 -1 0 0 0 -1 forward_v I I I I #
coedge $-1 -1 -1 $-1 $161 $215 $167 $216 reversed $90 $-1 #
coedge $-1 -1 -1 $-1 $92 $163 $94 $156 forward $58 $-1 #
coedge $-1 -1 -1 $-1 $215 $161 $92 $152 forward $90 $-1 #
edge $217 -1 -1 $-1 $165 -10 $218 10 $151 $219 forward @7 unknown T -10 -10 -10 -10 -10 10 #
coedge $-1 -1 -1 $-1 $94 $93 $215 $220 reversed $42 $-1 #
coedge $-1 -1 -1 $-1 $168 $167 $93 $155 forward $147 $-1 #
edge $221 -1 -1 $-1 $222 -10 $158 10 $154 $223 forward @7 unknown T -10 10 -10 10 10 -10 #
edge $224 -1 -1 $-1 $159 -10 $218 10 $150 $225 forward @7 unknown T -10 -10 -10 10 -10 -10 #
integer_attrib-name_attrib-gen-attrib $-1 -1 $226 $-1 $96 2 1 1 1 1 1 1 1 1 1 1 1 1 1 0 1 1 1 @8 CUBIT_ID 29 #
vertex $227 -1 -1 $-1 $96 $228 #
vertex $229 -1 -1 $-1 $173 $230 #
straight-curve $-1 -1 -1 $-1 10 0 -10 0 -1 0 I I #
coedge $-1 -1 -1 $-1 $151 $149 $97 $162 forward $90 $-1 #
edge $231 -1 -1 $-1 $170 -10 $165 10 $161 $232 forward @7 unknown T -10 -10 10 -10 10 10 #
coedge $-1 -1 -1 $-1 $150 $98 $103 $173 forward $58 $-1 #
integer_attrib-name_attrib-gen-attrib $-1 -1 $233 $-1 $99 2 1 1 1 1 1 1 1 1 1 1 1 1 1 0 1 1 1 @8 CUBIT_ID 26 #
vertex $234 -1 -1 $-1 $162 $235 #
straight-curve $-1 -1 -1 $-1 0 -10 10 1 0 0 I I #
coedge $-1 -1 -1 $-1 $154 $100 $149 $216 forward $147 $-1 #
coedge $-1 -1 -1 $-1 $100 $154 $102 $172 reversed $147 $-1 #
integer_attrib-name_attrib-gen-attrib $-1 -1 $236 $-1 $101 2 1 1 1 1 1 1 1 1 1 1 1 1 1 0 1 1 1 @8 CUBIT_ID 28 #
vertex $237 -1 -1 $-1 $101 $238 #
straight-curve $-1 -1 -1 $-1 0 10 10 -1 0 0 I I #
edge $239 -1 -1 $-1 $107 -10 $158 10 $102 $240 forward @7 unknown T 10 10 -10 10 10 10 #
edge $241 -1 -1 $-1 $106 -10 $159 10 $103 $242 forward @7 unknown T 10 -10 -10 10 -10 10 #
simple-snl-attrib $-1 -1 $-1 $105 $64 1 1 1 1 1 1 1 1 1 1 1 1 0 1 0 1 1 1 @17 NEW_SIMPLE_ATTRIB 1 @9 ENTITY_ID 0 3 25 -2147483648 -1 #
integer_attrib-name_attrib-gen-attrib $-1 -1 $243 $-1 $106 2 1 1 1 1 1 1 1 1 1 1 1 1 1 0 1 1 1 @8 CUBIT_ID 17 #
point $-1 -1 -1 $-1 10 -10 10 #
integer_attrib-name_attrib-gen-attrib $-1 -1 $244 $-1 $107 2 1 1 1 1 1 1 1 1 1 1 1 1 1 0 1 1 1 @8 CUBIT_ID 18 #
point $-1 -1 -1 $-1 10 10 10 #
simple-snl-attrib $-1 -1 $-1 $110 $67 1 1 1 1 1 1 1 1 1 1 1 1 0 1 0 1 1 1 @17 NEW_SIMPLE_ATTRIB 1 @9 ENTITY_ID 0 3 12 -2147483648 -1 #
integer_attrib-name_attrib-gen-attrib $-1 -1 $245 $-1 $111 2 1 1 1 1 1 1 1 1 1 1 1 1 1 0 1 1 1 @8 CUBIT_ID 13 #
plane-surface $-1 -1 -1 $-1 12.5 0 0 -1 0 0 0 -0 1 forward_v I I I I #
coedge $-1 -1 -1 $-1 $116 $114 $118 $187 reversed $68 $-1 #
edge $246 -1 -1 $-1 $131 -12.5 $191 12.5 $129 $247 forward @7 unknown T -12.5 12.5 -12.5 -12.5 12.5 12.5 #
integer_attrib-name_attrib-gen-attrib $-1 -1 $248 $-1 $117 2 1 1 1 1 1 1 1 1 1 1 1 1 1 0 1 1 1 @8 CUBIT_ID 21 #
vertex $249 -1 -1 $-1 $187 $250 #
straight-curve $-1 -1 -1 $-1 -12.5 -12.5 0 0 0 -1 I I #
edge $251 -1 -1 $-1 $185 -12.5 $191 12.5 $182 $252 forward @7 unknown T -12.5 -12.5 -12.5 -12.5 12.5 -12.5 #
integer_attrib-name_attrib-gen-attrib $-1 -1 $253 $-1 $119 2 1 1 1 1 1 1 1 1 1 1 1 1 1 0 1 1 1 @8 CUBIT_ID 18 #
straight-curve $-1 -1 -1 $-1 0 -12.5 -12.5 -1 0 0 I I #
integer_attrib-name_attrib-gen-attrib $-1 -1 $254 $-1 $121 2 1 1 1 1 1 1 1 1 1 1 1 1 1 0 1 1 1 @8 CUBIT_ID 20 #
vertex $255 -1 -1 $-1 $121 $256 #
straight-curve $-1 -1 -1 $-1 0 12.5 -12.5 1 0 0 I I #
simple-snl-attrib $-1 -1 $-1 $122 $74 1 1 1 1 1 1 1 1 1 1 1 1 0 1 0 1 1 1 @17 NEW_SIMPLE_ATTRIB 1 @9 ENTITY_ID 0 3 17 -2147483648 -1 #
integer_attrib-name_attrib-gen-attrib $-1 -1 $257 $-1 $123 2 1 1 1 1 1 1 1 1 1 1 1 1 1 0 1 1 1 @8 CUBIT_ID 13 #
point $-1 -1 -1 $-1 12.5 12.5 -12.5 #
integer_attrib-name_attrib-gen-attrib $-1 -1 $258 $-1 $124 2 1 1 1 1 1 1 1 1 1 1 1 1 1 0 1 1 1 @8 CUBIT_ID 14 #
point $-1 -1 -1 $-1 12.5 -12.5 -12.5 #
integer_attrib-name_attrib-gen-attrib $-1 -1 $259 $-1 $127 2 1 1 1 1 1 1 1 1 1 1 1 1 1 0 1 1 1 @8 CUBIT_ID 15 #
straight-curve $-1 -1 -1 $-1 -12.5 0 12.5 0 -1 0 I I #
simple-snl-attrib $-1 -1 $-1 $130 $77 1 1 1 1 1 1 1 1 1 1 1 1 0 1 0 1 1 1 @17 NEW_SIMPLE_ATTRIB 1 @9 ENTITY_ID 0 3 14 -2147483648 -1 #
integer_attrib-name_attrib-gen-attrib $-1 -1 $260 $-1 $131 2 1 1 1 1 1 1 1 1 1 1 1 1 1 0 1 1 1 @8 CUBIT_ID 11 #
point $-1 -1 -1 $-1 -12.5 12.5 12.5 #
simple-snl-attrib $-1 -1 $-1 $134 $79 1 1 1 1 1 1 1 1 1 1 1 1 0 1 0 1 1 1 @17 NEW_SIMPLE_ATTRIB 1 @9 ENTITY_ID 0 3 16 -2147483648 -1 #
integer_attrib-name_attrib-gen-attrib $-1 -1 $261 $-1 $135 2 1 1 1 1 1 1 1 1 1 1 1 1 1 0 1 1 1 @8 CUBIT_ID 12 #
point $-1 -1 -1 $-1 -12.5 -12.5 12.5 #
integer_attrib-name_attrib-gen-attrib $-1 -1 $262 $-1 $137 2 1 1 1 1 1 1 1 1 1 1 1 1 1 0 1 1 1 @8 CUBIT_ID 22 #
straight-curve $-1 -1 -1 $-1 12.5 -12.5 0 0 0 -1 I I #
integer_attrib-name_attrib-gen-attrib $-1 -1 $263 $-1 $138 2 1 1 1 1 1 1 1 1 1 1 1 1 1 0 1 1 1 @8 CUBIT_ID 24 #
straight-curve $-1 -1 -1 $-1 12.5 12.5 0 0 0 -1 I I #
simple-snl-attrib $-1 -1 $-1 $140 $84 1 1 1 1 1 1 1 1 1 1 1 1 0 1 0 1 1 1 @17 NEW_SIMPLE_ATTRIB 1 @9 ENTITY_ID 0 3 9 -2147483648 -1 #
simple-snl-attrib $-1 -1 $-1 $142 $85 1 1 1 1 1 1 1 1 1 1 1 1 0 1 0 1 1 1 @17 NEW_SIMPLE_ATTRIB 1 @9 ENTITY_ID 0 3 10 -2147483648 -1 #
simple-snl-attrib $-1 -1 $-1 $145 $89 1 1 1 1 1 1 1 1 1 1 1 1 0 1 0 1 1 1 @17 NEW_SIMPLE_ATTRIB 1 @9 ENTITY_ID 0 3 18 -2147483648 -1 #
integer_attrib-name_attrib-gen-attrib $-1 -1 $264 $-1 $146 2 1 1 1 1 1 1 1 1 1 1 1 1 1 0 1 1 1 @8 CUBIT_ID 19 #
plane-surface $-1 -1 -1 $-1 10 0 0 -1 0 0 0 -0 1 forward_v I I I I #
coedge $-1 -1 -1 $-1 $149 $151 $153 $220 forward $90 $-1 #
edge $265 -1 -1 $-1 $170 -10 $222 10 $167 $266 forward @7 unknown T -10 10 -10 -10 10 10 #
integer_attrib-name_attrib-gen-attrib $-1 -1 $267 $-1 $152 2 1 1 1 1 1 1 1 1 1 1 1 1 1 0 1 1 1 @8 CUBIT_ID 33 #
vertex $268 -1 -1 $-1 $220 $269 #
straight-curve $-1 -1 -1 $-1 -10 -10 0 0 0 -1 I I #
edge $270 -1 -1 $-1 $218 -10 $222 10 $215 $271 forward @7 unknown T -10 -10 -10 -10 10 -10 #
integer_attrib-name_attrib-gen-attrib $-1 -1 $272 $-1 $155 2 1 1 1 1 1 1 1 1 1 1 1 1 1 0 1 1 1 @8 CUBIT_ID 30 #
vertex $273 -1 -1 $-1 $155 $274 #
straight-curve $-1 -1 -1 $-1 0 10 -10 1 0 0 I I #
integer_attrib-name_attrib-gen-attrib $-1 -1 $275 $-1 $156 2 1 1 1 1 1 1 1 1 1 1 1 1 1 0 1 1 1 @8 CUBIT_ID 32 #
straight-curve $-1 -1 -1 $-1 0 -10 -10 -1 0 0 I I #
simple-snl-attrib $-1 -1 $-1 $157 $96 1 1 1 1 1 1 1 1 1 1 1 1 0 1 0 1 1 1 @17 NEW_SIMPLE_ATTRIB 1 @9 ENTITY_ID 0 3 29 -2147483648 -1 #
integer_attrib-name_attrib-gen-attrib $-1 -1 $276 $-1 $158 2 1 1 1 1 1 1 1 1 1 1 1 1 1 0 1 1 1 @8 CUBIT_ID 21 #
point $-1 -1 -1 $-1 10 10 -10 #
integer_attrib-name_attrib-gen-attrib $-1 -1 $277 $-1 $159 2 1 1 1 1 1 1 1 1 1 1 1 1 1 0 1 1 1 @8 CUBIT_ID 22 #
point $-1 -1 -1 $-1 10 -10 -10 #
integer_attrib-name_attrib-gen-attrib $-1 -1 $278 $-1 $162 2 1 1 1 1 1 1 1 1 1 1 1 1 1 0 1 1 1 @8 CUBIT_ID 27 #
straight-curve $-1 -1 -1 $-1 -10 0 10 0 -1 0 I I #
simple-snl-attrib $-1 -1 $-1 $164 $99 1 1 1 1 1 1 1 1 1 1 1 1 0 1 0 1 1 1 @17 NEW_SIMPLE_ATTRIB 1 @9 ENTITY_ID 0 3 26 -2147483648 -1 #
integer_attrib-name_attrib-gen-attrib $-1 -1 $279 $-1 $165 2 1 1 1 1 1 1 1 1 1 1 1 1 1 0 1 1 1 @8 CUBIT_ID 19 #
point $-1 -1 -1 $-1 -10 -10 10 #
simple-snl-attrib $-1 -1 $-1 $169 $101 1 1 1 1 1 1 1 1 1 1 1 1 0 1 0 1 1 1 @17 NEW_SIMPLE_ATTRIB 1 @9 ENTITY_ID 0 3 28 -2147483648 -1 #
integer_attrib-name_attrib-gen-attrib $-1 -1 $280 $-1 $170 2 1 1 1 1 1 1 1 1 1 1 1 1 1 0 1 1 1 @8 CUBIT_ID 20 #
point $-1 -1 -1 $-1 -10 10 10 #
integer_attrib-name_attrib-gen-attrib $-1 -1 $281 $-1 $172 2 1 1 1 1 1 1 1 1 1 1 1 1 1 0 1 1 1 @8 CUBIT_ID 36 #
straight-curve $-1 -1 -1 $-1 10 10 0 0 0 -1 I I #
integer_attrib-name_attrib-gen-attrib $-1 -1 $282 $-1 $173 2 1 1 1 1 1 1 1 1 1 1 1 1 1 0 1 1 1 @8 CUBIT_ID 34 #
straight-curve $-1 -1 -1 $-1 10 -10 0 0 0 -1 I I #
simple-snl-attrib $-1 -1 $-1 $175 $106 1 1 1 1 1 1 1 1 1 1 1 1 0 1 0 1 1 1 @17 NEW_SIMPLE_ATTRIB 1 @9 ENTITY_ID 0 3 17 -2147483648 -1 #
simple-snl-attrib $-1 -1 $-1 $177 $107 1 1 1 1 1 1 1 1 1 1 1 1 0 1 0 1 1 1 @17 NEW_SIMPLE_ATTRIB 1 @9 ENTITY_ID 0 3 18 -2147483648 -1 #
simple-snl-attrib $-1 -1 $-1 $180 $111 1 1 1 1 1 1 1 1 1 1 1 1 0 1 0 1 1 1 @17 NEW_SIMPLE_ATTRIB 1 @9 ENTITY_ID 0 3 13 -2147483648 -1 #
integer_attrib-name_attrib-gen-attrib $-1 -1 $283 $-1 $183 2 1 1 1 1 1 1 1 1 1 1 1 1 1 0 1 1 1 @8 CUBIT_ID 23 #
straight-curve $-1 -1 -1 $-1 -12.5 12.5 0 0 0 -1 I I #
simple-snl-attrib $-1 -1 $-1 $184 $117 1 1 1 1 1 1 1 1 1 1 1 1 0 1 0 1 1 1 @17 NEW_SIMPLE_ATTRIB 1 @9 ENTITY_ID 0 3 21 -2147483648 -1 #
integer_attrib-name_attrib-gen-attrib $-1 -1 $284 $-1 $185 2 1 1 1 1 1 1 1 1 1 1 1 1 1 0 1 1 1 @8 CUBIT_ID 15 #
point $-1 -1 -1 $-1 -12.5 -12.5 -12.5 #
integer_attrib-name_attrib-gen-attrib $-1 -1 $285 $-1 $187 2 1 1 1 1 1 1 1 1 1 1 1 1 1 0 1 1 1 @8 CUBIT_ID 19 #
straight-curve $-1 -1 -1 $-1 -12.5 0 -12.5 0 1 0 I I #
simple-snl-attrib $-1 -1 $-1 $188 $119 1 1 1 1 1 1 1 1 1 1 1 1 0 1 0 1 1 1 @17 NEW_SIMPLE_ATTRIB 1 @9 ENTITY_ID 0 3 18 -2147483648 -1 #
simple-snl-attrib $-1 -1 $-1 $190 $121 1 1 1 1 1 1 1 1 1 1 1 1 0 1 0 1 1 1 @17 NEW_SIMPLE_ATTRIB 1 @9 ENTITY_ID 0 3 20 -2147483648 -1 #
integer_attrib-name_attrib-gen-attrib $-1 -1 $286 $-1 $191 2 1 1 1 1 1 1 1 1 1 1 1 1 1 0 1 1 1 @8 CUBIT_ID 16 #
point $-1 -1 -1 $-1 -12.5 12.5 -12.5 #
simple-snl-attrib $-1 -1 $-1 $194 $123 1 1 1 1 1 1 1 1 1 1 1 1 0 1 0 1 1 1 @17 NEW_SIMPLE_ATTRIB 1 @9 ENTITY_ID 0 3 13 -2147483648 -1 #
simple-snl-attrib $-1 -1 $-1 $196 $124 1 1 1 1 1 1 1 1 1 1 1 1 0 1 0 1 1 1 @17 NEW_SIMPLE_ATTRIB 1 @9 ENTITY_ID 0 3 14 -2147483648 -1 #
simple-snl-attrib $-1 -1 $-1 $198 $127 1 1 1 1 1 1 1 1 1 1 1 1 0 1 0 1 1 1 @17 NEW_SIMPLE_ATTRIB 1 @9 ENTITY_ID 0 3 15 -2147483648 -1 #
simple-snl-attrib $-1 -1 $-1 $201 $131 1 1 1 1 1 1 1 1 1 1 1 1 0 1 0 1 1 1 @17 NEW_SIMPLE_ATTRIB 1 @9 ENTITY_ID 0 3 11 -2147483648 -1 #
simple-snl-attrib $-1 -1 $-1 $204 $135 1 1 1 1 1 1 1 1 1 1 1 1 0 1 0 1 1 1 @17 NEW_SIMPLE_ATTRIB 1 @9 ENTITY_ID 0 3 12 -2147483648 -1 #
simple-snl-attrib $-1 -1 $-1 $206 $137 1 1 1 1 1 1 1 1 1 1 1 1 0 1 0 1 1 1 @17 NEW_SIMPLE_ATTRIB 1 @9 ENTITY_ID 0 3 22 -2147483648 -1 #
simple-snl-attrib $-1 -1 $-1 $208 $138 1 1 1 1 1 1 1 1 1 1 1 1 0 1 0 1 1 1 @17 NEW_SIMPLE_ATTRIB 1 @9 ENTITY_ID 0 3 24 -2147483648 -1 #
simple-snl-attrib $-1 -1 $-1 $213 $146 1 1 1 1 1 1 1 1 1 1 1 1 0 1 0 1 1 1 @17 NEW_SIMPLE_ATTRIB 1 @9 ENTITY_ID 0 3 19 -2147483648 -1 #
integer_attrib-name_attrib-gen-attrib $-1 -1 $287 $-1 $216 2 1 1 1 1 1 1 1 1 1 1 1 1 1 0 1 1 1 @8 CUBIT_ID 35 #
straight-curve $-1 -1 -1 $-1 -10 10 0 0 0 -1 I I #
simple-snl-attrib $-1 -1 $-1 $217 $152 1 1 1 1 1 1 1 1 1 1 1 1 0 1 0 1 1 1 @17 NEW_SIMPLE_ATTRIB 1 @9 ENTITY_ID 0 3 33 -2147483648 -1 #
integer_attrib-name_attrib-gen-attrib $-1 -1 $288 $-1 $218 2 1 1 1 1 1 1 1 1 1 1 1 1 1 0 1 1 1 @8 CUBIT_ID 24 #
point $-1 -1 -1 $-1 -10 -10 -10 #
integer_attrib-name_attrib-gen-attrib $-1 -1 $289 $-1 $220 2 1 1 1 1 1 1 1 1 1 1 1 1 1 0 1 1 1 @8 CUBIT_ID 31 #
straight-curve $-1 -1 -1 $-1 -10 0 -10 0 1 0 I I #
simple-snl-attrib $-1 -1 $-1 $221 $155 1 1 1 1 1 1 1 1 1 1 1 1 0 1 0 1 1 1 @17 NEW_SIMPLE_ATTRIB 1 @9 ENTITY_ID 0 3 30 -2147483648 -1 #
integer_attrib-name_attrib-gen-attrib $-1 -1 $290 $-1 $222 2 1 1 1 1 1 1 1 1 1 1 1 1 1 0 1 1 1 @8 CUBIT_ID 23 #
point $-1 -1 -1 $-1 -10 10 -10 #
simple-snl-attrib $-1 -1 $-1 $224 $156 1 1 1 1 1 1 1 1 1 1 1 1 0 1 0 1 1 1 @17 NEW_SIMPLE_ATTRIB 1 @9 ENTITY_ID 0 3 32 -2147483648 -1 #
simple-snl-attrib $-1 -1 $-1 $227 $158 1 1 1 1 1 1 1 1 1 1 1 1 0 1 0 1 1 1 @17 NEW_SIMPLE_ATTRIB 1 @9 ENTITY_ID 0 3 21 -2147483648 -1 #
simple-snl-attrib $-1 -1 $-1 $229 $159 1 1 1 1 1 1 1 1 1 1 1 1 0 1 0 1 1 1 @17 NEW_SIMPLE_ATTRIB 1 @9 ENTITY_ID 0 3 22 -2147483648 -1 #
simple-snl-attrib $-1 -1 $-1 $231 $162 1 1 1 1 1 1 1 1 1 1 1 1 0 1 0 1 1 1 @17 NEW_SIMPLE_ATTRIB 1 @9 ENTITY_ID 0 3 27 -2147483648 -1 #
simple-snl-attrib $-1 -1 $-1 $234 $165 1 1 1 1 1 1 1 1 1 1 1 1 0 1 0 1 1 1 @17 NEW_SIMPLE_ATTRIB 1 @9 ENTITY_ID 0 3 19 -2147483648 -1 #
simple-snl-attrib $-1 -1 $-1 $237 $170 1 1 1 1 1 1 1 1 1 1 1 1 0 1 0 1 1 1 @17 NEW_SIMPLE_ATTRIB 1 @9 ENTITY_ID 0 3 20 -2147483648 -1 #
simple-snl-attrib $-1 -1 $-1 $239 $172 1 1 1 1 1 1 1 1 1 1 1 1 0 1 0 1 1 1 @17 NEW_SIMPLE_ATTRIB 1 @9 ENTITY_ID 0 3 36 -2147483648 -1 #
simple-snl-attrib $-1 -1 $-1 $241 $173 1 1 1 1 1 1 1 1 1 1 1 1 0 1 0 1 1 1 @17 NEW_SIMPLE_ATTRIB 1 @9 ENTITY_ID 0 3 34 -2147483648 -1 #
simple-snl-attrib $-1 -1 $-1 $246 $183 1 1 1 1 1 1 1 1 1 1 1 1 0 1 0 1 1 1 @17 NEW_SIMPLE_ATTRIB 1 @9 ENTITY_ID 0 3 23 -2147483648 -1 #
simple-snl-attrib $-1 -1 $-1 $249 $185 1 1 1 1 1 1 1 1 1 1 1 1 0 1 0 1 1 1 @17 NEW_SIMPLE_ATTRIB 1 @9 ENTITY_ID 0 3 15 -2147483648 -1 #
simple-snl-attrib $-1 -1 $-1 $251 $187 1 1 1 1 1 1 1 1 1 1 1 1 0 1 0 1 1 1 @17 NEW_SIMPLE_ATTRIB 1 @9 ENTITY_ID 0 3 19 -2147483648 -1 #
simple-snl-attrib $-1 -1 $-1 $255 $191 1 1 1 1 1 1 1 1 1 1 1 1 0 1 0 1 1 1 @17 NEW_SIMPLE_ATTRIB 1 @9 ENTITY_ID 0 3 16 -2147483648 -1 #
simple-snl-attrib $-1 -1 $-1 $265 $216 1 1 1 1 1 1 1 1 1 1 1 1 0 1 0 1 1 1 @17 NEW_SIMPLE_ATTRIB 1 @9 ENTITY_ID 0 3 35 -2147483648 -1 #
simple-snl-attrib $-1 -1 $-1 $268 $218 1 1 1 1 1 1 1 1 1 1 1 1 0 1 0 1 1 1 @17 NEW_SIMPLE_ATTRIB 1 @9 ENTITY_ID 0 3 24 -2147483648 -1 #
simple-snl-attrib $-1 -1 $-1 $270 $220 1 1 1 1 1 1 1 1 1 1 1 1 0 1 0 1 1 1 @17 NEW_SIMPLE_ATTRIB 1 @9 ENTITY_ID 0 3 31 -2147483648 -1 #
simple-snl-attrib $-1 -1 $-1 $273 $222 1 1 1 1 1 1 1 1 1 1 1 1 0 1 0 1 1 1 @17 NEW_SIMPLE_ATTRIB 1 @9 ENTITY_ID 0 3 23 -2147483648 -1 #
End-of-ACIS-data 