1900 0 6 0           
10 Cubit 14.0 17 ACIS 22.0.2 Linux 24 Fri Oct 21 13:46:55 2016 
1 9.9999999999999995e-07 1e-10 
body $6 -1 -1 $-1 $7 $-1 $-1 T -1 -1 -1 1 1 1 #
body $8 -1 -1 $-1 $9 $-1 $-1 T -2 -2 -2 2 2 2 #
body $10 -1 -1 $-1 $11 $-1 $-1 T -3 -3 -3 3 3 3 #
body $12 -1 -1 $-1 $13 $-1 $-1 T -4 -4 -4 4 4 4 #
body $14 -1 -1 $-1 $15 $-1 $-1 T -5 -5 -5 5 5 5 #
body $16 -1 -1 $-1 $17 $-1 $-1 T -7 -7 -7 7 7 7 #
integer_attrib-name_attrib-gen-attrib $-1 -1 $18 $-1 $0 2 1 1 1 1 1 1 1 1 1 1 1 1 1 0 1 1 1 @8 CUBIT_ID 1 #
lump $19 -1 -1 $-1 $-1 $20 $0 T -1 -1 -1 1 1 1 #
integer_attrib-name_attrib-gen-attrib $-1 -1 $21 $-1 $1 2 1 1 1 1 1 1 1 1 1 1 1 1 1 0 1 1 1 @8 CUBIT_ID 3 #
lump $22 -1 -1 $-1 $-1 $23 $1 T -2 -2 -2 2 2 2 #
integer_attrib-name_attrib-gen-attrib $-1 -1 $24 $-1 $2 2 1 1 1 1 1 1 1 1 1 1 1 1 1 0 1 1 1 @8 CUBIT_ID 5 #
lump $25 -1 -1 $-1 $-1 $26 $2 T -3 -3 -3 3 3 3 #
integer_attrib-name_attrib-gen-attrib $-1 -1 $27 $-1 $3 2 1 1 1 1 1 1 1 1 1 1 1 1 1 0 1 1 1 @8 CUBIT_ID 7 #
lump $28 -1 -1 $-1 $-1 $29 $3 T -4 -4 -4 4 4 4 #
integer_attrib-name_attrib-gen-attrib $-1 -1 $30 $-1 $4 2 1 1 1 1 1 1 1 1 1 1 1 1 1 0 1 1 1 @8 CUBIT_ID 9 #
lump $31 -1 -1 $-1 $-1 $32 $4 T -5 -5 -5 5 5 5 #
integer_attrib-name_attrib-gen-attrib $-1 -1 $33 $-1 $5 2 1 1 1 1 1 1 1 1 1 1 1 1 1 0 1 1 1 @8 CUBIT_ID 12 #
lump $34 -1 -1 $-1 $-1 $35 $5 T -7 -7 -7 7 7 7 #
simple-snl-attrib $-1 -1 $-1 $6 $0 1 1 1 1 1 1 1 1 1 1 1 1 0 1 0 1 1 1 @17 NEW_SIMPLE_ATTRIB 1 @9 ENTITY_ID 0 3 1 -2147483648 -1 #
integer_attrib-name_attrib-gen-attrib $-1 -1 $36 $-1 $7 2 1 1 1 1 1 1 1 1 1 1 1 1 1 0 1 1 1 @8 CUBIT_ID 1 #
shell $-1 -1 -1 $-1 $-1 $-1 $37 $-1 $7 T -1 -1 -1 1 1 1 #
simple-snl-attrib $-1 -1 $-1 $8 $1 1 1 1 1 1 1 1 1 1 1 1 1 0 1 0 1 1 1 @17 NEW_SIMPLE_ATTRIB 1 @9 ENTITY_ID 0 3 3 -2147483648 -1 #
integer_attrib-name_attrib-gen-attrib $-1 -1 $38 $-1 $9 2 1 1 1 1 1 1 1 1 1 1 1 1 1 0 1 1 1 @8 CUBIT_ID 3 #
shell $-1 -1 -1 $-1 $39 $-1 $40 $-1 $9 T -2 -2 -2 2 2 2 #
simple-snl-attrib $-1 -1 $-1 $10 $2 1 1 1 1 1 1 1 1 1 1 1 1 0 1 0 1 1 1 @17 NEW_SIMPLE_ATTRIB 1 @9 ENTITY_ID 0 3 5 -2147483648 -1 #
integer_attrib-name_attrib-gen-attrib $-1 -1 $41 $-1 $11 2 1 1 1 1 1 1 1 1 1 1 1 1 1 0 1 1 1 @8 CUBIT_ID 5 #
shell $-1 -1 -1 $-1 $42 $-1 $43 $-1 $11 T -3 -3 -3 3 3 3 #
simple-snl-attrib $-1 -1 $-1 $12 $3 1 1 1 1 1 1 1 1 1 1 1 1 0 1 0 1 1 1 @17 NEW_SIMPLE_ATTRIB 1 @9 ENTITY_ID 0 3 7 -2147483648 -1 #
integer_attrib-name_attrib-gen-attrib $-1 -1 $44 $-1 $13 2 1 1 1 1 1 1 1 1 1 1 1 1 1 0 1 1 1 @8 CUBIT_ID 7 #
shell $-1 -1 -1 $-1 $45 $-1 $46 $-1 $13 T -4 -4 -4 4 4 4 #
simple-snl-attrib $-1 -1 $-1 $14 $4 1 1 1 1 1 1 1 1 1 1 1 1 0 1 0 1 1 1 @17 NEW_SIMPLE_ATTRIB 1 @9 ENTITY_ID 0 3 9 -2147483648 -1 #
integer_attrib-name_attrib-gen-attrib $-1 -1 $47 $-1 $15 2 1 1 1 1 1 1 1 1 1 1 1 1 1 0 1 1 1 @8 CUBIT_ID 9 #
shell $-1 -1 -1 $-1 $48 $-1 $49 $-1 $15 T -5 -5 -5 5 5 5 #
simple-snl-attrib $-1 -1 $-1 $16 $5 1 1 1 1 1 1 1 1 1 1 1 1 0 1 0 1 1 1 @17 NEW_SIMPLE_ATTRIB 1 @9 ENTITY_ID 0 3 12 -2147483648 -1 #
integer_attrib-name_attrib-gen-attrib $-1 -1 $50 $-1 $17 2 1 1 1 1 1 1 1 1 1 1 1 1 1 0 1 1 1 @8 CUBIT_ID 13 #
shell $-1 -1 -1 $-1 $51 $-1 $52 $-1 $17 T -7 -7 -7 7 7 7 #
simple-snl-attrib $-1 -1 $53 $19 $7 1 1 1 1 1 1 1 1 1 1 1 1 0 1 0 1 1 1 @17 NEW_SIMPLE_ATTRIB 1 @9 ENTITY_ID 0 3 1 -2147483648 -1 #
face $54 -1 -1 $-1 $-1 $-1 $20 $-1 $55 forward single T -1 -1 -1 1 1 1 F #
simple-snl-attrib $-1 -1 $56 $22 $9 1 1 1 1 1 1 1 1 1 1 1 1 0 1 0 1 1 1 @17 NEW_SIMPLE_ATTRIB 1 @9 ENTITY_ID 0 3 3 -2147483648 -1 #
shell $-1 -1 -1 $-1 $-1 $-1 $57 $-1 $9 T -1 -1 -1 1 1 1 #
face $58 -1 -1 $-1 $-1 $-1 $23 $-1 $59 forward single T -2 -2 -2 2 2 2 F #
simple-snl-attrib $-1 -1 $60 $25 $11 1 1 1 1 1 1 1 1 1 1 1 1 0 1 0 1 1 1 @17 NEW_SIMPLE_ATTRIB 1 @9 ENTITY_ID 0 3 5 -2147483648 -1 #
shell $-1 -1 -1 $-1 $-1 $-1 $61 $-1 $11 T -2 -2 -2 2 2 2 #
face $62 -1 -1 $-1 $-1 $-1 $26 $-1 $63 forward single T -3 -3 -3 3 3 3 F #
simple-snl-attrib $-1 -1 $64 $28 $13 1 1 1 1 1 1 1 1 1 1 1 1 0 1 0 1 1 1 @17 NEW_SIMPLE_ATTRIB 1 @9 ENTITY_ID 0 3 7 -2147483648 -1 #
shell $-1 -1 -1 $-1 $-1 $-1 $65 $-1 $13 T -3 -3 -3 3 3 3 #
face $66 -1 -1 $-1 $-1 $-1 $29 $-1 $67 forward single T -4 -4 -4 4 4 4 F #
simple-snl-attrib $-1 -1 $68 $31 $15 1 1 1 1 1 1 1 1 1 1 1 1 0 1 0 1 1 1 @17 NEW_SIMPLE_ATTRIB 1 @9 ENTITY_ID 0 3 9 -2147483648 -1 #
shell $-1 -1 -1 $-1 $-1 $-1 $69 $-1 $15 T -4 -4 -4 4 4 4 #
face $70 -1 -1 $-1 $-1 $-1 $32 $-1 $71 forward single T -5 -5 -5 5 5 5 F #
simple-snl-attrib $-1 -1 $72 $34 $17 1 1 1 1 1 1 1 1 1 1 1 1 0 1 0 1 1 1 @17 NEW_SIMPLE_ATTRIB 1 @9 ENTITY_ID 0 3 13 -2147483648 -1 #
shell $-1 -1 -1 $-1 $-1 $-1 $73 $-1 $17 T -6.5 -6.5 -6.5 6.5 6.5 6.5 #
face $74 -1 -1 $-1 $75 $76 $35 $-1 $77 forward single T -7 -7 7 7 7 7 F #
simple-snl-attrib $-1 -1 $-1 $36 $7 1 1 1 1 1 1 1 1 1 1 1 1 0 1 0 1 1 1 @17 NEW_SIMPLE_ATTRIB 2 @5 GROUP @22 material_1_density_1.0 0 7 1 2 727751688 0 0 0 0 #
integer_attrib-name_attrib-gen-attrib $-1 -1 $78 $-1 $37 2 1 1 1 1 1 1 1 1 1 1 1 1 1 0 1 1 1 @8 CUBIT_ID 1 #
sphere-surface $-1 -1 -1 $-1 0 0 0 1 1 0 0 0 0 1 forward_v I I I I #
simple-snl-attrib $-1 -1 $-1 $38 $9 1 1 1 1 1 1 1 1 1 1 1 1 0 1 0 1 1 1 @17 NEW_SIMPLE_ATTRIB 2 @5 GROUP @23 material_2_density_-1.0 0 7 1 3 2057057200 0 0 0 0 #
face $79 -1 -1 $-1 $-1 $-1 $39 $-1 $80 reversed single T -1 -1 -1 1 1 1 F #
integer_attrib-name_attrib-gen-attrib $-1 -1 $81 $-1 $40 2 1 1 1 1 1 1 1 1 1 1 1 1 1 0 1 1 1 @8 CUBIT_ID 3 #
sphere-surface $-1 -1 -1 $-1 0 0 0 2 1 0 0 0 0 1 forward_v I I I I #
simple-snl-attrib $-1 -1 $-1 $41 $11 1 1 1 1 1 1 1 1 1 1 1 1 0 1 0 1 1 1 @17 NEW_SIMPLE_ATTRIB 2 @5 GROUP @23 material_3_density_-2.0 0 7 1 4 831190427 0 0 0 0 #
face $82 -1 -1 $-1 $-1 $-1 $42 $-1 $83 reversed single T -2 -2 -2 2 2 2 F #
integer_attrib-name_attrib-gen-attrib $-1 -1 $84 $-1 $43 2 1 1 1 1 1 1 1 1 1 1 1 1 1 0 1 1 1 @8 CUBIT_ID 6 #
sphere-surface $-1 -1 -1 $-1 0 0 0 3 1 0 0 0 0 1 forward_v I I I I #
simple-snl-attrib $-1 -1 $-1 $44 $13 1 1 1 1 1 1 1 1 1 1 1 1 0 1 0 1 1 1 @17 NEW_SIMPLE_ATTRIB 2 @5 GROUP @23 material_2_density_-1.0 0 7 1 3 2057057200 1 0 0 0 #
face $85 -1 -1 $-1 $-1 $-1 $45 $-1 $86 reversed single T -3 -3 -3 3 3 3 F #
integer_attrib-name_attrib-gen-attrib $-1 -1 $87 $-1 $46 2 1 1 1 1 1 1 1 1 1 1 1 1 1 0 1 1 1 @8 CUBIT_ID 9 #
sphere-surface $-1 -1 -1 $-1 0 0 0 4 1 0 0 0 0 1 forward_v I I I I #
simple-snl-attrib $-1 -1 $-1 $47 $15 1 1 1 1 1 1 1 1 1 1 1 1 0 1 0 1 1 1 @17 NEW_SIMPLE_ATTRIB 2 @5 GROUP @22 material_4_density_0.1 0 7 1 5 1216769398 0 0 0 0 #
face $88 -1 -1 $-1 $-1 $-1 $48 $-1 $89 reversed single T -4 -4 -4 4 4 4 F #
integer_attrib-name_attrib-gen-attrib $-1 -1 $90 $-1 $49 2 1 1 1 1 1 1 1 1 1 1 1 1 1 0 1 1 1 @8 CUBIT_ID 12 #
sphere-surface $-1 -1 -1 $-1 0 0 0 5 1 0 0 0 0 1 forward_v I I I I #
simple-snl-attrib $-1 -1 $-1 $50 $17 1 1 1 1 1 1 1 1 1 1 1 1 0 1 0 1 1 1 @17 NEW_SIMPLE_ATTRIB 2 @5 GROUP @16 termination.cell 0 7 1 6 910345531 0 0 0 0 #
face $91 -1 -1 $-1 $92 $93 $51 $-1 $94 reversed single T -6.5 -6.5 6.5 6.5 6.5 6.5 F #
integer_attrib-name_attrib-gen-attrib $-1 -1 $95 $-1 $52 2 1 1 1 1 1 1 1 1 1 1 1 1 1 0 1 1 1 @8 CUBIT_ID 26 #
face $96 -1 -1 $-1 $97 $98 $35 $-1 $99 reversed single T -7 -7 -7 7 7 -7 F #
loop $-1 -1 -1 $-1 $-1 $100 $52 T -7 -7 7 7 7 7 unknown #
plane-surface $-1 -1 -1 $-1 0 0 7 0 0 1 1 0 0 forward_v I I I I #
simple-snl-attrib $-1 -1 $101 $54 $37 1 1 1 1 1 1 1 1 1 1 1 1 0 1 0 1 1 1 @17 NEW_SIMPLE_ATTRIB 1 @9 UNIQUE_ID 0 1 1252080723 #
integer_attrib-name_attrib-gen-attrib $-1 -1 $102 $-1 $57 2 1 1 1 1 1 1 1 1 1 1 1 1 1 0 1 1 1 @8 CUBIT_ID 1 #
sphere-surface $-1 -1 -1 $-1 0 0 0 1 1 0 0 0 0 1 forward_v I I I I #
simple-snl-attrib $-1 -1 $103 $58 $40 1 1 1 1 1 1 1 1 1 1 1 1 0 1 0 1 1 1 @17 NEW_SIMPLE_ATTRIB 1 @9 UNIQUE_ID 0 1 1523652437 #
integer_attrib-name_attrib-gen-attrib $-1 -1 $104 $-1 $61 2 1 1 1 1 1 1 1 1 1 1 1 1 1 0 1 1 1 @8 CUBIT_ID 3 #
sphere-surface $-1 -1 -1 $-1 0 0 0 2 1 0 0 0 0 1 forward_v I I I I #
simple-snl-attrib $-1 -1 $105 $62 $43 1 1 1 1 1 1 1 1 1 1 1 1 0 1 0 1 1 1 @17 NEW_SIMPLE_ATTRIB 1 @9 UNIQUE_ID 0 1 281972604 #
integer_attrib-name_attrib-gen-attrib $-1 -1 $106 $-1 $65 2 1 1 1 1 1 1 1 1 1 1 1 1 1 0 1 1 1 @8 CUBIT_ID 6 #
sphere-surface $-1 -1 -1 $-1 0 0 0 3 1 0 0 0 0 1 forward_v I I I I #
simple-snl-attrib $-1 -1 $107 $66 $46 1 1 1 1 1 1 1 1 1 1 1 1 0 1 0 1 1 1 @17 NEW_SIMPLE_ATTRIB 1 @9 UNIQUE_ID 0 1 1197148219 #
integer_attrib-name_attrib-gen-attrib $-1 -1 $108 $-1 $69 2 1 1 1 1 1 1 1 1 1 1 1 1 1 0 1 1 1 @8 CUBIT_ID 9 #
sphere-surface $-1 -1 -1 $-1 0 0 0 4 1 0 0 0 0 1 forward_v I I I I #
simple-snl-attrib $-1 -1 $-1 $70 $49 1 1 1 1 1 1 1 1 1 1 1 1 0 1 0 1 1 1 @17 NEW_SIMPLE_ATTRIB 1 @9 ENTITY_ID 0 3 12 -2147483648 -1 #
integer_attrib-name_attrib-gen-attrib $-1 -1 $109 $-1 $73 2 1 1 1 1 1 1 1 1 1 1 1 1 1 0 1 1 1 @8 CUBIT_ID 32 #
face $110 -1 -1 $-1 $111 $112 $51 $-1 $113 forward single T -6.5 -6.5 -6.5 6.5 6.5 -6.5 F #
loop $-1 -1 -1 $-1 $-1 $114 $73 T -6.5 -6.5 6.5 6.5 6.5 6.5 unknown #
plane-surface $-1 -1 -1 $-1 0 0 6.5 0 0 1 1 0 0 forward_v I I I I #
simple-snl-attrib $-1 -1 $-1 $74 $52 1 1 1 1 1 1 1 1 1 1 1 1 0 1 0 1 1 1 @17 NEW_SIMPLE_ATTRIB 1 @9 ENTITY_ID 0 3 26 -2147483648 -1 #
integer_attrib-name_attrib-gen-attrib $-1 -1 $115 $-1 $75 2 1 1 1 1 1 1 1 1 1 1 1 1 1 0 1 1 1 @8 CUBIT_ID 27 #
face $116 -1 -1 $-1 $117 $118 $35 $-1 $119 reversed single T -7 -7 -7 7 -7 7 F #
loop $-1 -1 -1 $-1 $-1 $120 $75 T -7 -7 -7 7 7 -7 unknown #
plane-surface $-1 -1 -1 $-1 0 0 -7 0 0 1 1 0 0 forward_v I I I I #
coedge $-1 -1 -1 $-1 $121 $122 $123 $124 forward $76 $-1 #
simple-snl-attrib $-1 -1 $125 $78 $37 1 1 1 1 1 1 1 1 1 1 1 1 0 1 0 1 1 1 @17 NEW_SIMPLE_ATTRIB 1 @9 ENTITY_ID 0 3 1 -2147483648 -1 #
simple-snl-attrib $-1 -1 $126 $79 $57 1 1 1 1 1 1 1 1 1 1 1 1 0 1 0 1 1 1 @17 NEW_SIMPLE_ATTRIB 1 @9 UNIQUE_ID 0 1 1252080723 #
simple-snl-attrib $-1 -1 $127 $81 $40 1 1 1 1 1 1 1 1 1 1 1 1 0 1 0 1 1 1 @17 NEW_SIMPLE_ATTRIB 1 @9 ENTITY_ID 0 3 3 -2147483648 -1 #
simple-snl-attrib $-1 -1 $128 $82 $61 1 1 1 1 1 1 1 1 1 1 1 1 0 1 0 1 1 1 @17 NEW_SIMPLE_ATTRIB 1 @9 UNIQUE_ID 0 1 1523652437 #
simple-snl-attrib $-1 -1 $129 $84 $43 1 1 1 1 1 1 1 1 1 1 1 1 0 1 0 1 1 1 @17 NEW_SIMPLE_ATTRIB 1 @9 ENTITY_ID 0 3 6 -2147483648 -1 #
simple-snl-attrib $-1 -1 $130 $85 $65 1 1 1 1 1 1 1 1 1 1 1 1 0 1 0 1 1 1 @17 NEW_SIMPLE_ATTRIB 1 @9 UNIQUE_ID 0 1 281972604 #
simple-snl-attrib $-1 -1 $131 $87 $46 1 1 1 1 1 1 1 1 1 1 1 1 0 1 0 1 1 1 @17 NEW_SIMPLE_ATTRIB 1 @9 ENTITY_ID 0 3 9 -2147483648 -1 #
simple-snl-attrib $-1 -1 $132 $88 $69 1 1 1 1 1 1 1 1 1 1 1 1 0 1 0 1 1 1 @17 NEW_SIMPLE_ATTRIB 1 @9 UNIQUE_ID 0 1 1197148219 #
simple-snl-attrib $-1 -1 $-1 $91 $73 1 1 1 1 1 1 1 1 1 1 1 1 0 1 0 1 1 1 @17 NEW_SIMPLE_ATTRIB 1 @9 ENTITY_ID 0 3 32 -2147483648 -1 #
integer_attrib-name_attrib-gen-attrib $-1 -1 $133 $-1 $92 2 1 1 1 1 1 1 1 1 1 1 1 1 1 0 1 1 1 @8 CUBIT_ID 33 #
face $134 -1 -1 $-1 $135 $136 $51 $-1 $137 forward single T -6.5 -6.5 -6.5 6.5 -6.5 6.5 F #
loop $-1 -1 -1 $-1 $-1 $138 $92 T -6.5 -6.5 -6.5 6.5 6.5 -6.5 unknown #
plane-surface $-1 -1 -1 $-1 0 0 -6.5 0 0 1 1 0 0 forward_v I I I I #
coedge $-1 -1 -1 $-1 $139 $140 $141 $142 reversed $93 $-1 #
simple-snl-attrib $-1 -1 $-1 $96 $75 1 1 1 1 1 1 1 1 1 1 1 1 0 1 0 1 1 1 @17 NEW_SIMPLE_ATTRIB 1 @9 ENTITY_ID 0 3 27 -2147483648 -1 #
integer_attrib-name_attrib-gen-attrib $-1 -1 $143 $-1 $97 2 1 1 1 1 1 1 1 1 1 1 1 1 1 0 1 1 1 @8 CUBIT_ID 28 #
face $144 -1 -1 $-1 $145 $146 $35 $-1 $147 reversed single T -7 -7 -7 -7 7 7 F #
loop $-1 -1 -1 $-1 $-1 $148 $97 T -7 -7 -7 7 -7 7 unknown #
plane-surface $-1 -1 -1 $-1 0 -7 0 0 1 -0 -0 0 1 forward_v I I I I #
coedge $-1 -1 -1 $-1 $149 $150 $151 $152 forward $98 $-1 #
coedge $-1 -1 -1 $-1 $153 $100 $154 $155 forward $76 $-1 #
coedge $-1 -1 -1 $-1 $100 $153 $156 $157 forward $76 $-1 #
coedge $-1 -1 -1 $-1 $158 $159 $100 $124 reversed $160 $-1 #
edge $161 -1 -1 $-1 $162 -7 $163 7 $123 $164 forward @7 unknown T 7 -7 7 7 7 7 #
simple-snl-attrib $-1 -1 $-1 $101 $37 1 1 1 1 1 1 1 1 1 1 1 1 0 1 0 1 1 1 @17 NEW_SIMPLE_ATTRIB 1 @13 MERGE_PARTNER 0 4 1252080723 1 1 1 #
simple-snl-attrib $-1 -1 $165 $102 $57 1 1 1 1 1 1 1 1 1 1 1 1 0 1 0 1 1 1 @17 NEW_SIMPLE_ATTRIB 1 @9 ENTITY_ID 0 3 1 -2147483648 -1 #
simple-snl-attrib $-1 -1 $-1 $103 $40 1 1 1 1 1 1 1 1 1 1 1 1 0 1 0 1 1 1 @17 NEW_SIMPLE_ATTRIB 1 @13 MERGE_PARTNER 0 4 1523652437 1 3 1 #
simple-snl-attrib $-1 -1 $166 $104 $61 1 1 1 1 1 1 1 1 1 1 1 1 0 1 0 1 1 1 @17 NEW_SIMPLE_ATTRIB 1 @9 ENTITY_ID 0 3 3 -2147483648 -1 #
simple-snl-attrib $-1 -1 $-1 $105 $43 1 1 1 1 1 1 1 1 1 1 1 1 0 1 0 1 1 1 @17 NEW_SIMPLE_ATTRIB 1 @13 MERGE_PARTNER 0 4 281972604 1 6 1 #
simple-snl-attrib $-1 -1 $167 $106 $65 1 1 1 1 1 1 1 1 1 1 1 1 0 1 0 1 1 1 @17 NEW_SIMPLE_ATTRIB 1 @9 ENTITY_ID 0 3 6 -2147483648 -1 #
simple-snl-attrib $-1 -1 $-1 $107 $46 1 1 1 1 1 1 1 1 1 1 1 1 0 1 0 1 1 1 @17 NEW_SIMPLE_ATTRIB 1 @13 MERGE_PARTNER 0 4 1197148219 1 9 1 #
simple-snl-attrib $-1 -1 $168 $108 $69 1 1 1 1 1 1 1 1 1 1 1 1 0 1 0 1 1 1 @17 NEW_SIMPLE_ATTRIB 1 @9 ENTITY_ID 0 3 9 -2147483648 -1 #
simple-snl-attrib $-1 -1 $-1 $110 $92 1 1 1 1 1 1 1 1 1 1 1 1 0 1 0 1 1 1 @17 NEW_SIMPLE_ATTRIB 1 @9 ENTITY_ID 0 3 33 -2147483648 -1 #
integer_attrib-name_attrib-gen-attrib $-1 -1 $169 $-1 $111 2 1 1 1 1 1 1 1 1 1 1 1 1 1 0 1 1 1 @8 CUBIT_ID 34 #
face $170 -1 -1 $-1 $171 $172 $51 $-1 $173 forward single T -6.5 -6.5 -6.5 -6.5 6.5 6.5 F #
loop $-1 -1 -1 $-1 $-1 $174 $111 T -6.5 -6.5 -6.5 6.5 -6.5 6.5 unknown #
plane-surface $-1 -1 -1 $-1 0 -6.5 0 0 1 -0 -0 0 1 forward_v I I I I #
coedge $-1 -1 -1 $-1 $175 $176 $177 $178 reversed $112 $-1 #
coedge $-1 -1 -1 $-1 $179 $114 $180 $181 reversed $93 $-1 #
coedge $-1 -1 -1 $-1 $114 $179 $182 $183 reversed $93 $-1 #
coedge $-1 -1 -1 $-1 $184 $185 $114 $142 forward $186 $-1 #
edge $187 -1 -1 $-1 $188 -6.5 $189 6.5 $141 $190 forward @7 unknown T 6.5 -6.5 6.5 6.5 6.5 6.5 #
simple-snl-attrib $-1 -1 $-1 $116 $97 1 1 1 1 1 1 1 1 1 1 1 1 0 1 0 1 1 1 @17 NEW_SIMPLE_ATTRIB 1 @9 ENTITY_ID 0 3 28 -2147483648 -1 #
integer_attrib-name_attrib-gen-attrib $-1 -1 $191 $-1 $117 2 1 1 1 1 1 1 1 1 1 1 1 1 1 0 1 1 1 @8 CUBIT_ID 29 #
face $192 -1 -1 $-1 $193 $194 $35 $-1 $195 reversed single T -7 7 -7 7 7 7 F #
loop $-1 -1 -1 $-1 $-1 $196 $117 T -7 -7 -7 -7 7 7 unknown #
plane-surface $-1 -1 -1 $-1 -7 0 0 1 0 0 0 0 -1 forward_v I I I I #
coedge $-1 -1 -1 $-1 $197 $156 $198 $199 forward $118 $-1 #
coedge $-1 -1 -1 $-1 $200 $120 $197 $201 forward $98 $-1 #
coedge $-1 -1 -1 $-1 $120 $200 $202 $203 forward $98 $-1 #
coedge $-1 -1 -1 $-1 $159 $158 $120 $152 reversed $160 $-1 #
edge $204 -1 -1 $-1 $205 -7 $206 7 $151 $207 forward @7 unknown T 7 -7 -7 7 7 -7 #
coedge $-1 -1 -1 $-1 $122 $121 $208 $209 forward $76 $-1 #
coedge $-1 -1 -1 $-1 $210 $211 $121 $155 reversed $194 $-1 #
edge $212 -1 -1 $-1 $163 -7 $213 7 $154 $214 forward @7 unknown T -7 7 7 7 7 7 #
coedge $-1 -1 -1 $-1 $148 $215 $122 $157 reversed $118 $-1 #
edge $216 -1 -1 $-1 $217 -7 $162 7 $156 $218 forward @7 unknown T -7 -7 7 7 -7 7 #
coedge $-1 -1 -1 $-1 $151 $123 $215 $219 forward $160 $-1 #
coedge $-1 -1 -1 $-1 $123 $151 $210 $220 reversed $160 $-1 #
loop $-1 -1 -1 $-1 $-1 $158 $193 T 7 -7 -7 7 7 7 unknown #
integer_attrib-name_attrib-gen-attrib $-1 -1 $221 $-1 $124 2 1 1 1 1 1 1 1 1 1 1 1 1 1 0 1 1 1 @8 CUBIT_ID 25 #
vertex $222 -1 -1 $-1 $124 $223 #
vertex $224 -1 -1 $-1 $124 $225 #
straight-curve $-1 -1 -1 $-1 7 0 7 0 1 0 I I #
simple-snl-attrib $-1 -1 $-1 $126 $57 1 1 1 1 1 1 1 1 1 1 1 1 0 1 0 1 1 1 @17 NEW_SIMPLE_ATTRIB 1 @13 MERGE_PARTNER 0 4 1252080723 -1 4 0 #
simple-snl-attrib $-1 -1 $-1 $128 $61 1 1 1 1 1 1 1 1 1 1 1 1 0 1 0 1 1 1 @17 NEW_SIMPLE_ATTRIB 1 @13 MERGE_PARTNER 0 4 1523652437 -1 7 0 #
simple-snl-attrib $-1 -1 $-1 $130 $65 1 1 1 1 1 1 1 1 1 1 1 1 0 1 0 1 1 1 @17 NEW_SIMPLE_ATTRIB 1 @13 MERGE_PARTNER 0 4 281972604 -1 10 0 #
simple-snl-attrib $-1 -1 $-1 $132 $69 1 1 1 1 1 1 1 1 1 1 1 1 0 1 0 1 1 1 @17 NEW_SIMPLE_ATTRIB 1 @13 MERGE_PARTNER 0 4 1197148219 -1 13 0 #
simple-snl-attrib $-1 -1 $-1 $134 $111 1 1 1 1 1 1 1 1 1 1 1 1 0 1 0 1 1 1 @17 NEW_SIMPLE_ATTRIB 1 @9 ENTITY_ID 0 3 34 -2147483648 -1 #
integer_attrib-name_attrib-gen-attrib $-1 -1 $226 $-1 $135 2 1 1 1 1 1 1 1 1 1 1 1 1 1 0 1 1 1 @8 CUBIT_ID 35 #
face $227 -1 -1 $-1 $228 $229 $51 $-1 $230 forward single T -6.5 6.5 -6.5 6.5 6.5 6.5 F #
loop $-1 -1 -1 $-1 $-1 $231 $135 T -6.5 -6.5 -6.5 -6.5 6.5 6.5 unknown #
plane-surface $-1 -1 -1 $-1 -6.5 0 0 1 0 0 0 0 -1 forward_v I I I I #
coedge $-1 -1 -1 $-1 $180 $232 $233 $234 reversed $136 $-1 #
coedge $-1 -1 -1 $-1 $235 $138 $236 $237 reversed $112 $-1 #
coedge $-1 -1 -1 $-1 $138 $235 $232 $238 reversed $112 $-1 #
coedge $-1 -1 -1 $-1 $185 $184 $138 $178 forward $186 $-1 #
edge $239 -1 -1 $-1 $240 -6.5 $241 6.5 $177 $242 forward @7 unknown T 6.5 -6.5 -6.5 6.5 6.5 -6.5 #
coedge $-1 -1 -1 $-1 $140 $139 $243 $244 reversed $93 $-1 #
coedge $-1 -1 -1 $-1 $245 $174 $139 $181 forward $136 $-1 #
edge $246 -1 -1 $-1 $247 -6.5 $188 6.5 $180 $248 forward @7 unknown T -6.5 -6.5 6.5 6.5 -6.5 6.5 #
coedge $-1 -1 -1 $-1 $249 $250 $140 $183 forward $229 $-1 #
edge $251 -1 -1 $-1 $189 -6.5 $252 6.5 $182 $253 forward @7 unknown T -6.5 6.5 6.5 6.5 6.5 6.5 #
coedge $-1 -1 -1 $-1 $177 $141 $250 $254 forward $186 $-1 #
coedge $-1 -1 -1 $-1 $141 $177 $245 $255 reversed $186 $-1 #
loop $-1 -1 -1 $-1 $-1 $185 $228 T 6.5 -6.5 -6.5 6.5 6.5 6.5 unknown #
integer_attrib-name_attrib-gen-attrib $-1 -1 $256 $-1 $142 2 1 1 1 1 1 1 1 1 1 1 1 1 1 0 1 1 1 @8 CUBIT_ID 37 #
vertex $257 -1 -1 $-1 $142 $258 #
vertex $259 -1 -1 $-1 $142 $260 #
straight-curve $-1 -1 -1 $-1 6.5 0 6.5 0 1 0 I I #
simple-snl-attrib $-1 -1 $-1 $144 $117 1 1 1 1 1 1 1 1 1 1 1 1 0 1 0 1 1 1 @17 NEW_SIMPLE_ATTRIB 1 @9 ENTITY_ID 0 3 29 -2147483648 -1 #
integer_attrib-name_attrib-gen-attrib $-1 -1 $261 $-1 $145 2 1 1 1 1 1 1 1 1 1 1 1 1 1 0 1 1 1 @8 CUBIT_ID 30 #
face $262 -1 -1 $-1 $-1 $160 $35 $-1 $263 reversed single T 7 -7 -7 7 7 7 F #
loop $-1 -1 -1 $-1 $-1 $210 $145 T -7 7 -7 7 7 7 unknown #
plane-surface $-1 -1 -1 $-1 0 7 0 0 -1 0 0 0 -1 forward_v I I I I #
coedge $-1 -1 -1 $-1 $264 $208 $211 $265 forward $146 $-1 #
coedge $-1 -1 -1 $-1 $215 $148 $149 $201 reversed $118 $-1 #
coedge $-1 -1 -1 $-1 $208 $264 $148 $199 reversed $146 $-1 #
edge $266 -1 -1 $-1 $217 -7 $267 7 $198 $268 forward @7 unknown T -7 -7 -7 -7 -7 7 #
coedge $-1 -1 -1 $-1 $150 $149 $264 $269 forward $98 $-1 #
edge $270 -1 -1 $-1 $206 -7 $267 7 $197 $271 forward @7 unknown T -7 -7 -7 7 -7 -7 #
coedge $-1 -1 -1 $-1 $211 $210 $150 $203 reversed $194 $-1 #
edge $272 -1 -1 $-1 $273 -7 $205 7 $202 $274 forward @7 unknown T -7 7 -7 7 7 -7 #
integer_attrib-name_attrib-gen-attrib $-1 -1 $275 $-1 $152 2 1 1 1 1 1 1 1 1 1 1 1 1 1 0 1 1 1 @8 CUBIT_ID 29 #
vertex $276 -1 -1 $-1 $152 $277 #
vertex $278 -1 -1 $-1 $219 $279 #
straight-curve $-1 -1 -1 $-1 7 0 -7 0 -1 0 I I #
coedge $-1 -1 -1 $-1 $196 $198 $153 $209 reversed $146 $-1 #
edge $280 -1 -1 $-1 $213 -7 $217 7 $208 $281 forward @7 unknown T -7 -7 7 -7 7 7 #
coedge $-1 -1 -1 $-1 $202 $154 $159 $220 forward $194 $-1 #
coedge $-1 -1 -1 $-1 $154 $202 $196 $265 reversed $194 $-1 #
integer_attrib-name_attrib-gen-attrib $-1 -1 $282 $-1 $155 2 1 1 1 1 1 1 1 1 1 1 1 1 1 0 1 1 1 @8 CUBIT_ID 26 #
vertex $283 -1 -1 $-1 $155 $284 #
straight-curve $-1 -1 -1 $-1 0 7 7 -1 0 0 I I #
coedge $-1 -1 -1 $-1 $156 $197 $158 $219 reversed $118 $-1 #
integer_attrib-name_attrib-gen-attrib $-1 -1 $285 $-1 $157 2 1 1 1 1 1 1 1 1 1 1 1 1 1 0 1 1 1 @8 CUBIT_ID 28 #
vertex $286 -1 -1 $-1 $209 $287 #
straight-curve $-1 -1 -1 $-1 0 -7 7 1 0 0 I I #
edge $288 -1 -1 $-1 $162 -7 $206 7 $158 $289 forward @7 unknown T 7 -7 -7 7 -7 7 #
edge $290 -1 -1 $-1 $163 -7 $205 7 $159 $291 forward @7 unknown T 7 7 -7 7 7 7 #
simple-snl-attrib $-1 -1 $-1 $161 $124 1 1 1 1 1 1 1 1 1 1 1 1 0 1 0 1 1 1 @17 NEW_SIMPLE_ATTRIB 1 @9 ENTITY_ID 0 3 25 -2147483648 -1 #
integer_attrib-name_attrib-gen-attrib $-1 -1 $292 $-1 $162 2 1 1 1 1 1 1 1 1 1 1 1 1 1 0 1 1 1 @8 CUBIT_ID 17 #
point $-1 -1 -1 $-1 7 -7 7 #
integer_attrib-name_attrib-gen-attrib $-1 -1 $293 $-1 $163 2 1 1 1 1 1 1 1 1 1 1 1 1 1 0 1 1 1 @8 CUBIT_ID 18 #
point $-1 -1 -1 $-1 7 7 7 #
simple-snl-attrib $-1 -1 $-1 $170 $135 1 1 1 1 1 1 1 1 1 1 1 1 0 1 0 1 1 1 @17 NEW_SIMPLE_ATTRIB 1 @9 ENTITY_ID 0 3 35 -2147483648 -1 #
integer_attrib-name_attrib-gen-attrib $-1 -1 $294 $-1 $171 2 1 1 1 1 1 1 1 1 1 1 1 1 1 0 1 1 1 @8 CUBIT_ID 36 #
face $295 -1 -1 $-1 $-1 $186 $51 $-1 $296 forward single T 6.5 -6.5 -6.5 6.5 6.5 6.5 F #
loop $-1 -1 -1 $-1 $-1 $250 $171 T -6.5 6.5 -6.5 6.5 6.5 6.5 unknown #
plane-surface $-1 -1 -1 $-1 0 6.5 0 0 -1 0 0 0 -1 forward_v I I I I #
coedge $-1 -1 -1 $-1 $243 $297 $249 $298 reversed $172 $-1 #
coedge $-1 -1 -1 $-1 $174 $245 $176 $238 forward $136 $-1 #
coedge $-1 -1 -1 $-1 $297 $243 $174 $234 forward $172 $-1 #
edge $299 -1 -1 $-1 $247 -6.5 $300 6.5 $233 $301 forward @7 unknown T -6.5 -6.5 -6.5 -6.5 -6.5 6.5 #
coedge $-1 -1 -1 $-1 $176 $175 $297 $302 reversed $112 $-1 #
coedge $-1 -1 -1 $-1 $250 $249 $175 $237 forward $229 $-1 #
edge $303 -1 -1 $-1 $304 -6.5 $240 6.5 $236 $305 forward @7 unknown T -6.5 6.5 -6.5 6.5 6.5 -6.5 #
edge $306 -1 -1 $-1 $241 -6.5 $300 6.5 $232 $307 forward @7 unknown T -6.5 -6.5 -6.5 6.5 -6.5 -6.5 #
integer_attrib-name_attrib-gen-attrib $-1 -1 $308 $-1 $178 2 1 1 1 1 1 1 1 1 1 1 1 1 1 0 1 1 1 @8 CUBIT_ID 41 #
vertex $309 -1 -1 $-1 $178 $310 #
vertex $311 -1 -1 $-1 $255 $312 #
straight-curve $-1 -1 -1 $-1 6.5 0 -6.5 0 -1 0 I I #
coedge $-1 -1 -1 $-1 $233 $231 $179 $244 forward $172 $-1 #
edge $313 -1 -1 $-1 $252 -6.5 $247 6.5 $243 $314 forward @7 unknown T -6.5 -6.5 6.5 -6.5 6.5 6.5 #
coedge $-1 -1 -1 $-1 $232 $180 $185 $255 forward $136 $-1 #
integer_attrib-name_attrib-gen-attrib $-1 -1 $315 $-1 $181 2 1 1 1 1 1 1 1 1 1 1 1 1 1 0 1 1 1 @8 CUBIT_ID 38 #
vertex $316 -1 -1 $-1 $244 $317 #
straight-curve $-1 -1 -1 $-1 0 -6.5 6.5 1 0 0 I I #
coedge $-1 -1 -1 $-1 $236 $182 $231 $298 forward $229 $-1 #
coedge $-1 -1 -1 $-1 $182 $236 $184 $254 reversed $229 $-1 #
integer_attrib-name_attrib-gen-attrib $-1 -1 $318 $-1 $183 2 1 1 1 1 1 1 1 1 1 1 1 1 1 0 1 1 1 @8 CUBIT_ID 40 #
vertex $319 -1 -1 $-1 $183 $320 #
straight-curve $-1 -1 -1 $-1 0 6.5 6.5 -1 0 0 I I #
edge $321 -1 -1 $-1 $189 -6.5 $240 6.5 $184 $322 forward @7 unknown T 6.5 6.5 -6.5 6.5 6.5 6.5 #
edge $323 -1 -1 $-1 $188 -6.5 $241 6.5 $185 $324 forward @7 unknown T 6.5 -6.5 -6.5 6.5 -6.5 6.5 #
simple-snl-attrib $-1 -1 $-1 $187 $142 1 1 1 1 1 1 1 1 1 1 1 1 0 1 0 1 1 1 @17 NEW_SIMPLE_ATTRIB 1 @9 ENTITY_ID 0 3 37 -2147483648 -1 #
integer_attrib-name_attrib-gen-attrib $-1 -1 $325 $-1 $188 2 1 1 1 1 1 1 1 1 1 1 1 1 1 0 1 1 1 @8 CUBIT_ID 25 #
point $-1 -1 -1 $-1 6.5 -6.5 6.5 #
integer_attrib-name_attrib-gen-attrib $-1 -1 $326 $-1 $189 2 1 1 1 1 1 1 1 1 1 1 1 1 1 0 1 1 1 @8 CUBIT_ID 26 #
point $-1 -1 -1 $-1 6.5 6.5 6.5 #
simple-snl-attrib $-1 -1 $-1 $192 $145 1 1 1 1 1 1 1 1 1 1 1 1 0 1 0 1 1 1 @17 NEW_SIMPLE_ATTRIB 1 @9 ENTITY_ID 0 3 30 -2147483648 -1 #
integer_attrib-name_attrib-gen-attrib $-1 -1 $327 $-1 $193 2 1 1 1 1 1 1 1 1 1 1 1 1 1 0 1 1 1 @8 CUBIT_ID 31 #
plane-surface $-1 -1 -1 $-1 7 0 0 -1 0 0 0 -0 1 forward_v I I I I #
coedge $-1 -1 -1 $-1 $198 $196 $200 $269 reversed $146 $-1 #
edge $328 -1 -1 $-1 $213 -7 $273 7 $211 $329 forward @7 unknown T -7 7 -7 -7 7 7 #
integer_attrib-name_attrib-gen-attrib $-1 -1 $330 $-1 $199 2 1 1 1 1 1 1 1 1 1 1 1 1 1 0 1 1 1 @8 CUBIT_ID 33 #
vertex $331 -1 -1 $-1 $269 $332 #
straight-curve $-1 -1 -1 $-1 -7 -7 0 0 0 -1 I I #
edge $333 -1 -1 $-1 $267 -7 $273 7 $264 $334 forward @7 unknown T -7 -7 -7 -7 7 -7 #
integer_attrib-name_attrib-gen-attrib $-1 -1 $335 $-1 $201 2 1 1 1 1 1 1 1 1 1 1 1 1 1 0 1 1 1 @8 CUBIT_ID 30 #
straight-curve $-1 -1 -1 $-1 0 -7 -7 -1 0 0 I I #
integer_attrib-name_attrib-gen-attrib $-1 -1 $336 $-1 $203 2 1 1 1 1 1 1 1 1 1 1 1 1 1 0 1 1 1 @8 CUBIT_ID 32 #
vertex $337 -1 -1 $-1 $203 $338 #
straight-curve $-1 -1 -1 $-1 0 7 -7 1 0 0 I I #
simple-snl-attrib $-1 -1 $-1 $204 $152 1 1 1 1 1 1 1 1 1 1 1 1 0 1 0 1 1 1 @17 NEW_SIMPLE_ATTRIB 1 @9 ENTITY_ID 0 3 29 -2147483648 -1 #
integer_attrib-name_attrib-gen-attrib $-1 -1 $339 $-1 $205 2 1 1 1 1 1 1 1 1 1 1 1 1 1 0 1 1 1 @8 CUBIT_ID 21 #
point $-1 -1 -1 $-1 7 7 -7 #
integer_attrib-name_attrib-gen-attrib $-1 -1 $340 $-1 $206 2 1 1 1 1 1 1 1 1 1 1 1 1 1 0 1 1 1 @8 CUBIT_ID 22 #
point $-1 -1 -1 $-1 7 -7 -7 #
integer_attrib-name_attrib-gen-attrib $-1 -1 $341 $-1 $209 2 1 1 1 1 1 1 1 1 1 1 1 1 1 0 1 1 1 @8 CUBIT_ID 27 #
straight-curve $-1 -1 -1 $-1 -7 0 7 0 -1 0 I I #
simple-snl-attrib $-1 -1 $-1 $212 $155 1 1 1 1 1 1 1 1 1 1 1 1 0 1 0 1 1 1 @17 NEW_SIMPLE_ATTRIB 1 @9 ENTITY_ID 0 3 26 -2147483648 -1 #
integer_attrib-name_attrib-gen-attrib $-1 -1 $342 $-1 $213 2 1 1 1 1 1 1 1 1 1 1 1 1 1 0 1 1 1 @8 CUBIT_ID 19 #
point $-1 -1 -1 $-1 -7 7 7 #
simple-snl-attrib $-1 -1 $-1 $216 $157 1 1 1 1 1 1 1 1 1 1 1 1 0 1 0 1 1 1 @17 NEW_SIMPLE_ATTRIB 1 @9 ENTITY_ID 0 3 28 -2147483648 -1 #
integer_attrib-name_attrib-gen-attrib $-1 -1 $343 $-1 $217 2 1 1 1 1 1 1 1 1 1 1 1 1 1 0 1 1 1 @8 CUBIT_ID 20 #
point $-1 -1 -1 $-1 -7 -7 7 #
integer_attrib-name_attrib-gen-attrib $-1 -1 $344 $-1 $219 2 1 1 1 1 1 1 1 1 1 1 1 1 1 0 1 1 1 @8 CUBIT_ID 34 #
straight-curve $-1 -1 -1 $-1 7 -7 0 0 0 -1 I I #
integer_attrib-name_attrib-gen-attrib $-1 -1 $345 $-1 $220 2 1 1 1 1 1 1 1 1 1 1 1 1 1 0 1 1 1 @8 CUBIT_ID 36 #
straight-curve $-1 -1 -1 $-1 7 7 0 0 0 -1 I I #
simple-snl-attrib $-1 -1 $-1 $222 $162 1 1 1 1 1 1 1 1 1 1 1 1 0 1 0 1 1 1 @17 NEW_SIMPLE_ATTRIB 1 @9 ENTITY_ID 0 3 17 -2147483648 -1 #
simple-snl-attrib $-1 -1 $-1 $224 $163 1 1 1 1 1 1 1 1 1 1 1 1 0 1 0 1 1 1 @17 NEW_SIMPLE_ATTRIB 1 @9 ENTITY_ID 0 3 18 -2147483648 -1 #
simple-snl-attrib $-1 -1 $-1 $227 $171 1 1 1 1 1 1 1 1 1 1 1 1 0 1 0 1 1 1 @17 NEW_SIMPLE_ATTRIB 1 @9 ENTITY_ID 0 3 36 -2147483648 -1 #
integer_attrib-name_attrib-gen-attrib $-1 -1 $346 $-1 $228 2 1 1 1 1 1 1 1 1 1 1 1 1 1 0 1 1 1 @8 CUBIT_ID 37 #
plane-surface $-1 -1 -1 $-1 6.5 0 0 -1 0 0 0 -0 1 forward_v I I I I #
coedge $-1 -1 -1 $-1 $231 $233 $235 $302 forward $172 $-1 #
edge $347 -1 -1 $-1 $252 -6.5 $304 6.5 $249 $348 forward @7 unknown T -6.5 6.5 -6.5 -6.5 6.5 6.5 #
integer_attrib-name_attrib-gen-attrib $-1 -1 $349 $-1 $234 2 1 1 1 1 1 1 1 1 1 1 1 1 1 0 1 1 1 @8 CUBIT_ID 45 #
vertex $350 -1 -1 $-1 $302 $351 #
straight-curve $-1 -1 -1 $-1 -6.5 -6.5 0 0 0 -1 I I #
edge $352 -1 -1 $-1 $300 -6.5 $304 6.5 $297 $353 forward @7 unknown T -6.5 -6.5 -6.5 -6.5 6.5 -6.5 #
integer_attrib-name_attrib-gen-attrib $-1 -1 $354 $-1 $237 2 1 1 1 1 1 1 1 1 1 1 1 1 1 0 1 1 1 @8 CUBIT_ID 42 #
vertex $355 -1 -1 $-1 $237 $356 #
straight-curve $-1 -1 -1 $-1 0 6.5 -6.5 1 0 0 I I #
integer_attrib-name_attrib-gen-attrib $-1 -1 $357 $-1 $238 2 1 1 1 1 1 1 1 1 1 1 1 1 1 0 1 1 1 @8 CUBIT_ID 44 #
straight-curve $-1 -1 -1 $-1 0 -6.5 -6.5 -1 0 0 I I #
simple-snl-attrib $-1 -1 $-1 $239 $178 1 1 1 1 1 1 1 1 1 1 1 1 0 1 0 1 1 1 @17 NEW_SIMPLE_ATTRIB 1 @9 ENTITY_ID 0 3 41 -2147483648 -1 #
integer_attrib-name_attrib-gen-attrib $-1 -1 $358 $-1 $240 2 1 1 1 1 1 1 1 1 1 1 1 1 1 0 1 1 1 @8 CUBIT_ID 29 #
point $-1 -1 -1 $-1 6.5 6.5 -6.5 #
integer_attrib-name_attrib-gen-attrib $-1 -1 $359 $-1 $241 2 1 1 1 1 1 1 1 1 1 1 1 1 1 0 1 1 1 @8 CUBIT_ID 30 #
point $-1 -1 -1 $-1 6.5 -6.5 -6.5 #
integer_attrib-name_attrib-gen-attrib $-1 -1 $360 $-1 $244 2 1 1 1 1 1 1 1 1 1 1 1 1 1 0 1 1 1 @8 CUBIT_ID 39 #
straight-curve $-1 -1 -1 $-1 -6.5 0 6.5 0 -1 0 I I #
simple-snl-attrib $-1 -1 $-1 $246 $181 1 1 1 1 1 1 1 1 1 1 1 1 0 1 0 1 1 1 @17 NEW_SIMPLE_ATTRIB 1 @9 ENTITY_ID 0 3 38 -2147483648 -1 #
integer_attrib-name_attrib-gen-attrib $-1 -1 $361 $-1 $247 2 1 1 1 1 1 1 1 1 1 1 1 1 1 0 1 1 1 @8 CUBIT_ID 27 #
point $-1 -1 -1 $-1 -6.5 -6.5 6.5 #
simple-snl-attrib $-1 -1 $-1 $251 $183 1 1 1 1 1 1 1 1 1 1 1 1 0 1 0 1 1 1 @17 NEW_SIMPLE_ATTRIB 1 @9 ENTITY_ID 0 3 40 -2147483648 -1 #
integer_attrib-name_attrib-gen-attrib $-1 -1 $362 $-1 $252 2 1 1 1 1 1 1 1 1 1 1 1 1 1 0 1 1 1 @8 CUBIT_ID 28 #
point $-1 -1 -1 $-1 -6.5 6.5 6.5 #
integer_attrib-name_attrib-gen-attrib $-1 -1 $363 $-1 $254 2 1 1 1 1 1 1 1 1 1 1 1 1 1 0 1 1 1 @8 CUBIT_ID 48 #
straight-curve $-1 -1 -1 $-1 6.5 6.5 0 0 0 -1 I I #
integer_attrib-name_attrib-gen-attrib $-1 -1 $364 $-1 $255 2 1 1 1 1 1 1 1 1 1 1 1 1 1 0 1 1 1 @8 CUBIT_ID 46 #
straight-curve $-1 -1 -1 $-1 6.5 -6.5 0 0 0 -1 I I #
simple-snl-attrib $-1 -1 $-1 $257 $188 1 1 1 1 1 1 1 1 1 1 1 1 0 1 0 1 1 1 @17 NEW_SIMPLE_ATTRIB 1 @9 ENTITY_ID 0 3 25 -2147483648 -1 #
simple-snl-attrib $-1 -1 $-1 $259 $189 1 1 1 1 1 1 1 1 1 1 1 1 0 1 0 1 1 1 @17 NEW_SIMPLE_ATTRIB 1 @9 ENTITY_ID 0 3 26 -2147483648 -1 #
simple-snl-attrib $-1 -1 $-1 $262 $193 1 1 1 1 1 1 1 1 1 1 1 1 0 1 0 1 1 1 @17 NEW_SIMPLE_ATTRIB 1 @9 ENTITY_ID 0 3 31 -2147483648 -1 #
integer_attrib-name_attrib-gen-attrib $-1 -1 $365 $-1 $265 2 1 1 1 1 1 1 1 1 1 1 1 1 1 0 1 1 1 @8 CUBIT_ID 35 #
straight-curve $-1 -1 -1 $-1 -7 7 0 0 0 -1 I I #
simple-snl-attrib $-1 -1 $-1 $266 $199 1 1 1 1 1 1 1 1 1 1 1 1 0 1 0 1 1 1 @17 NEW_SIMPLE_ATTRIB 1 @9 ENTITY_ID 0 3 33 -2147483648 -1 #
integer_attrib-name_attrib-gen-attrib $-1 -1 $366 $-1 $267 2 1 1 1 1 1 1 1 1 1 1 1 1 1 0 1 1 1 @8 CUBIT_ID 23 #
point $-1 -1 -1 $-1 -7 -7 -7 #
integer_attrib-name_attrib-gen-attrib $-1 -1 $367 $-1 $269 2 1 1 1 1 1 1 1 1 1 1 1 1 1 0 1 1 1 @8 CUBIT_ID 31 #
straight-curve $-1 -1 -1 $-1 -7 0 -7 0 1 0 I I #
simple-snl-attrib $-1 -1 $-1 $270 $201 1 1 1 1 1 1 1 1 1 1 1 1 0 1 0 1 1 1 @17 NEW_SIMPLE_ATTRIB 1 @9 ENTITY_ID 0 3 30 -2147483648 -1 #
simple-snl-attrib $-1 -1 $-1 $272 $203 1 1 1 1 1 1 1 1 1 1 1 1 0 1 0 1 1 1 @17 NEW_SIMPLE_ATTRIB 1 @9 ENTITY_ID 0 3 32 -2147483648 -1 #
integer_attrib-name_attrib-gen-attrib $-1 -1 $368 $-1 $273 2 1 1 1 1 1 1 1 1 1 1 1 1 1 0 1 1 1 @8 CUBIT_ID 24 #
point $-1 -1 -1 $-1 -7 7 -7 #
simple-snl-attrib $-1 -1 $-1 $276 $205 1 1 1 1 1 1 1 1 1 1 1 1 0 1 0 1 1 1 @17 NEW_SIMPLE_ATTRIB 1 @9 ENTITY_ID 0 3 21 -2147483648 -1 #
simple-snl-attrib $-1 -1 $-1 $278 $206 1 1 1 1 1 1 1 1 1 1 1 1 0 1 0 1 1 1 @17 NEW_SIMPLE_ATTRIB 1 @9 ENTITY_ID 0 3 22 -2147483648 -1 #
simple-snl-attrib $-1 -1 $-1 $280 $209 1 1 1 1 1 1 1 1 1 1 1 1 0 1 0 1 1 1 @17 NEW_SIMPLE_ATTRIB 1 @9 ENTITY_ID 0 3 27 -2147483648 -1 #
simple-snl-attrib $-1 -1 $-1 $283 $213 1 1 1 1 1 1 1 1 1 1 1 1 0 1 0 1 1 1 @17 NEW_SIMPLE_ATTRIB 1 @9 ENTITY_ID 0 3 19 -2147483648 -1 #
simple-snl-attrib $-1 -1 $-1 $286 $217 1 1 1 1 1 1 1 1 1 1 1 1 0 1 0 1 1 1 @17 NEW_SIMPLE_ATTRIB 1 @9 ENTITY_ID 0 3 20 -2147483648 -1 #
simple-snl-attrib $-1 -1 $-1 $288 $219 1 1 1 1 1 1 1 1 1 1 1 1 0 1 0 1 1 1 @17 NEW_SIMPLE_ATTRIB 1 @9 ENTITY_ID 0 3 34 -2147483648 -1 #
simple-snl-attrib $-1 -1 $-1 $290 $220 1 1 1 1 1 1 1 1 1 1 1 1 0 1 0 1 1 1 @17 NEW_SIMPLE_ATTRIB 1 @9 ENTITY_ID 0 3 36 -2147483648 -1 #
simple-snl-attrib $-1 -1 $-1 $295 $228 1 1 1 1 1 1 1 1 1 1 1 1 0 1 0 1 1 1 @17 NEW_SIMPLE_ATTRIB 1 @9 ENTITY_ID 0 3 37 -2147483648 -1 #
integer_attrib-name_attrib-gen-attrib $-1 -1 $369 $-1 $298 2 1 1 1 1 1 1 1 1 1 1 1 1 1 0 1 1 1 @8 CUBIT_ID 47 #
straight-curve $-1 -1 -1 $-1 -6.5 6.5 0 0 0 -1 I I #
simple-snl-attrib $-1 -1 $-1 $299 $234 1 1 1 1 1 1 1 1 1 1 1 1 0 1 0 1 1 1 @17 NEW_SIMPLE_ATTRIB 1 @9 ENTITY_ID 0 3 45 -2147483648 -1 #
integer_attrib-name_attrib-gen-attrib $-1 -1 $370 $-1 $300 2 1 1 1 1 1 1 1 1 1 1 1 1 1 0 1 1 1 @8 CUBIT_ID 32 #
point $-1 -1 -1 $-1 -6.5 -6.5 -6.5 #
integer_attrib-name_attrib-gen-attrib $-1 -1 $371 $-1 $302 2 1 1 1 1 1 1 1 1 1 1 1 1 1 0 1 1 1 @8 CUBIT_ID 43 #
straight-curve $-1 -1 -1 $-1 -6.5 0 -6.5 0 1 0 I I #
simple-snl-attrib $-1 -1 $-1 $303 $237 1 1 1 1 1 1 1 1 1 1 1 1 0 1 0 1 1 1 @17 NEW_SIMPLE_ATTRIB 1 @9 ENTITY_ID 0 3 42 -2147483648 -1 #
integer_attrib-name_attrib-gen-attrib $-1 -1 $372 $-1 $304 2 1 1 1 1 1 1 1 1 1 1 1 1 1 0 1 1 1 @8 CUBIT_ID 31 #
point $-1 -1 -1 $-1 -6.5 6.5 -6.5 #
simple-snl-attrib $-1 -1 $-1 $306 $238 1 1 1 1 1 1 1 1 1 1 1 1 0 1 0 1 1 1 @17 NEW_SIMPLE_ATTRIB 1 @9 ENTITY_ID 0 3 44 -2147483648 -1 #
simple-snl-attrib $-1 -1 $-1 $309 $240 1 1 1 1 1 1 1 1 1 1 1 1 0 1 0 1 1 1 @17 NEW_SIMPLE_ATTRIB 1 @9 ENTITY_ID 0 3 29 -2147483648 -1 #
simple-snl-attrib $-1 -1 $-1 $311 $241 1 1 1 1 1 1 1 1 1 1 1 1 0 1 0 1 1 1 @17 NEW_SIMPLE_ATTRIB 1 @9 ENTITY_ID 0 3 30 -2147483648 -1 #
simple-snl-attrib $-1 -1 $-1 $313 $244 1 1 1 1 1 1 1 1 1 1 1 1 0 1 0 1 1 1 @17 NEW_SIMPLE_ATTRIB 1 @9 ENTITY_ID 0 3 39 -2147483648 -1 #
simple-snl-attrib $-1 -1 $-1 $316 $247 1 1 1 1 1 1 1 1 1 1 1 1 0 1 0 1 1 1 @17 NEW_SIMPLE_ATTRIB 1 @9 ENTITY_ID 0 3 27 -2147483648 -1 #
simple-snl-attrib $-1 -1 $-1 $319 $252 1 1 1 1 1 1 1 1 1 1 1 1 0 1 0 1 1 1 @17 NEW_SIMPLE_ATTRIB 1 @9 ENTITY_ID 0 3 28 -2147483648 -1 #
simple-snl-attrib $-1 -1 $-1 $321 $254 1 1 1 1 1 1 1 1 1 1 1 1 0 1 0 1 1 1 @17 NEW_SIMPLE_ATTRIB 1 @9 ENTITY_ID 0 3 48 -2147483648 -1 #
simple-snl-attrib $-1 -1 $-1 $323 $255 1 1 1 1 1 1 1 1 1 1 1 1 0 1 0 1 1 1 @17 NEW_SIMPLE_ATTRIB 1 @9 ENTITY_ID 0 3 46 -2147483648 -1 #
simple-snl-attrib $-1 -1 $-1 $328 $265 1 1 1 1 1 1 1 1 1 1 1 1 0 1 0 1 1 1 @17 NEW_SIMPLE_ATTRIB 1 @9 ENTITY_ID 0 3 35 -2147483648 -1 #
simple-snl-attrib $-1 -1 $-1 $331 $267 1 1 1 1 1 1 1 1 1 1 1 1 0 1 0 1 1 1 @17 NEW_SIMPLE_ATTRIB 1 @9 ENTITY_ID 0 3 23 -2147483648 -1 #
simple-snl-attrib $-1 -1 $-1 $333 $269 1 1 1 1 1 1 1 1 1 1 1 1 0 1 0 1 1 1 @17 NEW_SIMPLE_ATTRIB 1 @9 ENTITY_ID 0 3 31 -2147483648 -1 #
simple-snl-attrib $-1 -1 $-1 $337 $273 1 1 1 1 1 1 1 1 1 1 1 1 0 1 0 1 1 1 @17 NEW_SIMPLE_ATTRIB 1 @9 ENTITY_ID 0 3 24 -2147483648 -1 #
simple-snl-attrib $-1 -1 $-1 $347 $298 1 1 1 1 1 1 1 1 1 1 1 1 0 1 0 1 1 1 @17 NEW_SIMPLE_ATTRIB 1 @9 ENTITY_ID 0 3 47 -2147483648 -1 #
simple-snl-attrib $-1 -1 $-1 $350 $300 1 1 1 1 1 1 1 1 1 1 1 1 0 1 0 1 1 1 @17 NEW_SIMPLE_ATTRIB 1 @9 ENTITY_ID 0 3 32 -2147483648 -1 #
simple-snl-attrib $-1 -1 $-1 $352 $302 1 1 1 1 1 1 1 1 1 1 1 1 0 1 0 1 1 1 @17 NEW_SIMPLE_ATTRIB 1 @9 ENTITY_ID 0 3 43 -2147483648 -1 #
simple-snl-attrib $-1 -1 $-1 $355 $304 1 1 1 1 1 1 1 1 1 1 1 1 0 1 0 1 1 1 @17 NEW_SIMPLE_ATTRIB 1 @9 ENTITY_ID 0 3 31 -2147483648 -1 #
End-of-ACIS-data 