2100 0 3 0           
10 Cubit 13.0 17 ACIS 21.0.1 Linux 24 Tue Jan 14 17:43:32 2014 
1 9.9999999999999995e-07 1e-10 
body $3 -1 -1 $-1 $4 $-1 $5 T 0 0 0 10 10 10 #
body $6 -1 -1 $-1 $7 $-1 $8 T -10 -10 -10 0 0 0 #
body $9 -1 -1 $-1 $10 $-1 $-1 T -15 -15 -15 15 15 15 #
integer_attrib-name_attrib-gen-attrib $-1 -1 $-1 $-1 $0 2 1 1 1 1 1 1 1 1 1 1 1 1 1 0 1 1 1 @8 CUBIT_ID 1 #
lump $11 -1 -1 $-1 $-1 $12 $0 T 0 0 0 10 10 10 #
transform $-1 -1 1 0 0 0 1 0 0 0 1 0 0 0 1 no_rotate no_reflect no_shear #
integer_attrib-name_attrib-gen-attrib $-1 -1 $-1 $-1 $1 2 1 1 1 1 1 1 1 1 1 1 1 1 1 0 1 1 1 @8 CUBIT_ID 2 #
lump $13 -1 -1 $-1 $-1 $14 $1 T -10 -10 -10 0 0 0 #
transform $-1 -1 1 0 0 0 1 0 0 0 1 0 0 0 1 no_rotate no_reflect no_shear #
integer_attrib-name_attrib-gen-attrib $-1 -1 $-1 $-1 $2 2 1 1 1 1 1 1 1 1 1 1 1 1 1 0 1 1 1 @8 CUBIT_ID 4 #
lump $15 -1 -1 $-1 $-1 $16 $2 T -15 -15 -15 15 15 15 #
integer_attrib-name_attrib-gen-attrib $-1 -1 $-1 $-1 $4 2 1 1 1 1 1 1 1 1 1 1 1 1 1 0 1 1 1 @8 CUBIT_ID 1 #
shell $-1 -1 -1 $-1 $-1 $-1 $17 $-1 $4 T 0 0 0 10 10 10 #
integer_attrib-name_attrib-gen-attrib $-1 -1 $-1 $-1 $7 2 1 1 1 1 1 1 1 1 1 1 1 1 1 0 1 1 1 @8 CUBIT_ID 2 #
shell $-1 -1 -1 $-1 $-1 $-1 $18 $-1 $7 T -10 -10 -10 0 0 0 #
integer_attrib-name_attrib-gen-attrib $-1 -1 $-1 $-1 $10 2 1 1 1 1 1 1 1 1 1 1 1 1 1 0 1 1 1 @8 CUBIT_ID 5 #
shell $-1 -1 -1 $-1 $19 $-1 $20 $-1 $10 T -15 -15 -15 15 15 15 #
face $21 -1 -1 $-1 $-1 $22 $12 $-1 $23 forward single T 0 0 0 10 10 10 F #
face $24 -1 -1 $-1 $-1 $25 $14 $-1 $26 forward single T -10 -10 -10 0 0 0 F #
shell $-1 -1 -1 $-1 $-1 $-1 $27 $-1 $10 T -10 -10 -10 10 10 10 #
face $28 -1 -1 $-1 $29 $30 $16 $-1 $31 forward single T -15 -15 15 15 15 15 T -15 15 -15 15 #
integer_attrib-name_attrib-gen-attrib $-1 -1 $-1 $-1 $17 2 1 1 1 1 1 1 1 1 1 1 1 1 1 0 1 1 1 @8 CUBIT_ID 1 #
loop $-1 -1 -1 $-1 $32 $33 $17 F unknown #
sphere-surface $-1 -1 -1 $-1 5 5 5 5 1 0 0 0 0 1 forward_v I I I I #
integer_attrib-name_attrib-gen-attrib $-1 -1 $-1 $-1 $18 2 1 1 1 1 1 1 1 1 1 1 1 1 1 0 1 1 1 @8 CUBIT_ID 2 #
loop $-1 -1 -1 $-1 $34 $35 $18 F unknown #
sphere-surface $-1 -1 -1 $-1 -5 -5 -5 5 1 0 0 0 0 1 forward_v I I I I #
face $36 -1 -1 $-1 $37 $38 $19 $-1 $39 reversed single T -10 -10 10 10 10 10 F #
integer_attrib-name_attrib-gen-attrib $-1 -1 $-1 $-1 $20 2 1 1 1 1 1 1 1 1 1 1 1 1 1 0 1 1 1 @8 CUBIT_ID 9 #
face $40 -1 -1 $-1 $41 $42 $16 $-1 $43 reversed single T -15 -15 -15 15 15 -15 T -15 15 -15 15 #
loop $-1 -1 -1 $-1 $-1 $44 $20 T -15 -15 15 15 15 15 unknown #
plane-surface $-1 -1 -1 $-1 0 0 15 0 0 1 1 0 0 forward_v I I I I #
loop $-1 -1 -1 $-1 $45 $46 $17 F unknown #
coedge $-1 -1 -1 $-1 $33 $33 $-1 $47 forward $22 $-1 #
loop $-1 -1 -1 $-1 $48 $49 $18 F unknown #
coedge $-1 -1 -1 $-1 $35 $35 $-1 $50 forward $25 $-1 #
integer_attrib-name_attrib-gen-attrib $-1 -1 $-1 $-1 $27 2 1 1 1 1 1 1 1 1 1 1 1 1 1 0 1 1 1 @8 CUBIT_ID 15 #
face $51 -1 -1 $-1 $52 $53 $19 $-1 $54 forward single T -10 -10 -10 10 10 -10 F #
loop $-1 -1 -1 $-1 $55 $56 $27 F unknown #
plane-surface $-1 -1 -1 $-1 0 0 10 0 0 1 1 0 0 forward_v I I I I #
integer_attrib-name_attrib-gen-attrib $-1 -1 $-1 $-1 $29 2 1 1 1 1 1 1 1 1 1 1 1 1 1 0 1 1 1 @8 CUBIT_ID 10 #
face $57 -1 -1 $-1 $58 $59 $16 $-1 $60 reversed single T -15 -15 -15 15 -15 15 F #
loop $-1 -1 -1 $-1 $-1 $61 $29 T -15 -15 -15 15 15 -15 unknown #
plane-surface $-1 -1 -1 $-1 0 0 -15 0 0 1 1 0 0 forward_v I I I I #
coedge $-1 -1 -1 $-1 $62 $63 $64 $65 forward $30 $-1 #
loop $-1 -1 -1 $-1 $-1 $66 $17 F unknown #
coedge $-1 -1 -1 $-1 $46 $46 $-1 $67 forward $32 $-1 #
edge $68 -1 -1 $-1 $69 1 $69 0 $33 $-1 forward @7 unknown T 5 5 10 5 5 10 #
loop $-1 -1 -1 $-1 $-1 $70 $18 F unknown #
coedge $-1 -1 -1 $-1 $49 $49 $-1 $71 forward $34 $-1 #
edge $72 -1 -1 $-1 $73 1 $73 0 $35 $-1 forward @7 unknown T -5 -5 -10 -5 -5 -10 #
integer_attrib-name_attrib-gen-attrib $-1 -1 $-1 $-1 $37 2 1 1 1 1 1 1 1 1 1 1 1 1 1 0 1 1 1 @8 CUBIT_ID 16 #
face $74 -1 -1 $-1 $75 $76 $19 $-1 $77 forward single T -10 -10 -10 10 -10 10 F #
loop $-1 -1 -1 $-1 $78 $79 $37 F unknown #
plane-surface $-1 -1 -1 $-1 0 0 -10 0 0 1 1 0 0 forward_v I I I I #
loop $-1 -1 -1 $-1 $-1 $80 $27 T -10 -10 10 10 10 10 periphery $39 T #
coedge $-1 -1 -1 $-1 $56 $56 $-1 $81 forward $38 $-1 #
integer_attrib-name_attrib-gen-attrib $-1 -1 $-1 $-1 $41 2 1 1 1 1 1 1 1 1 1 1 1 1 1 0 1 1 1 @8 CUBIT_ID 11 #
face $82 -1 -1 $-1 $83 $84 $16 $-1 $85 reversed single T -15 -15 -15 -15 15 15 F #
loop $-1 -1 -1 $-1 $-1 $86 $41 T -15 -15 -15 15 -15 15 unknown #
plane-surface $-1 -1 -1 $-1 0 -15 0 0 1 -0 -0 0 1 forward_v I I I I #
coedge $-1 -1 -1 $-1 $87 $88 $89 $90 forward $42 $-1 #
coedge $-1 -1 -1 $-1 $91 $44 $92 $93 forward $30 $-1 #
coedge $-1 -1 -1 $-1 $44 $91 $94 $95 forward $30 $-1 #
coedge $-1 -1 -1 $-1 $96 $97 $44 $65 reversed $98 $-1 #
edge $99 -1 -1 $-1 $100 -15 $101 15 $64 $102 forward @7 unknown T 15 -15 15 15 15 15 #
coedge $-1 -1 -1 $-1 $66 $66 $-1 $103 forward $45 $-1 #
edge $104 -1 -1 $-1 $105 1 $105 0 $46 $-1 forward @7 unknown T 5 10 5 5 10 5 #
integer_attrib-name_attrib-gen-attrib $-1 -1 $106 $-1 $47 2 1 1 1 1 1 1 1 1 1 1 1 1 1 0 1 1 1 @8 CUBIT_ID 37 #
vertex $107 -1 -1 $-1 $47 $108 #
coedge $-1 -1 -1 $-1 $70 $70 $-1 $109 forward $48 $-1 #
edge $110 -1 -1 $-1 $111 1 $111 0 $49 $-1 forward @7 unknown T -5 -10 -5 -5 -10 -5 #
integer_attrib-name_attrib-gen-attrib $-1 -1 $112 $-1 $50 2 1 1 1 1 1 1 1 1 1 1 1 1 1 0 1 1 1 @8 CUBIT_ID 40 #
vertex $113 -1 -1 $-1 $50 $114 #
integer_attrib-name_attrib-gen-attrib $-1 -1 $-1 $-1 $52 2 1 1 1 1 1 1 1 1 1 1 1 1 1 0 1 1 1 @8 CUBIT_ID 17 #
face $115 -1 -1 $-1 $116 $117 $19 $-1 $118 forward single T -10 -10 -10 -10 10 10 F #
loop $-1 -1 -1 $-1 $119 $120 $52 F unknown #
plane-surface $-1 -1 -1 $-1 0 -10 0 0 1 -0 -0 0 1 forward_v I I I I #
loop $-1 -1 -1 $-1 $-1 $121 $37 T -10 -10 -10 10 10 -10 periphery $54 F #
coedge $-1 -1 -1 $-1 $79 $79 $-1 $122 forward $53 $-1 #
coedge $-1 -1 -1 $-1 $123 $124 $125 $126 reversed $55 $-1 #
edge $127 -1 -1 $-1 $128 1 $128 0 $56 $-1 forward @7 unknown T 5 5 10 5 5 10 #
integer_attrib-name_attrib-gen-attrib $-1 -1 $-1 $-1 $58 2 1 1 1 1 1 1 1 1 1 1 1 1 1 0 1 1 1 @8 CUBIT_ID 12 #
face $129 -1 -1 $-1 $130 $131 $16 $-1 $132 reversed single T -15 15 -15 15 15 15 F #
loop $-1 -1 -1 $-1 $-1 $133 $58 T -15 -15 -15 -15 15 15 periphery $85 T #
plane-surface $-1 -1 -1 $-1 -15 0 0 1 0 0 0 0 -1 forward_v I I I I #
coedge $-1 -1 -1 $-1 $134 $94 $135 $136 forward $59 $-1 #
coedge $-1 -1 -1 $-1 $137 $61 $134 $138 forward $42 $-1 #
coedge $-1 -1 -1 $-1 $61 $137 $139 $140 forward $42 $-1 #
coedge $-1 -1 -1 $-1 $97 $96 $61 $90 reversed $98 $-1 #
edge $141 -1 -1 $-1 $142 -15 $143 15 $89 $144 forward @7 unknown T 15 -15 -15 15 15 -15 #
coedge $-1 -1 -1 $-1 $63 $62 $145 $146 forward $30 $-1 #
coedge $-1 -1 -1 $-1 $147 $148 $62 $93 reversed $131 $-1 #
edge $149 -1 -1 $-1 $101 -15 $150 15 $92 $151 forward @7 unknown T -15 15 15 15 15 15 #
coedge $-1 -1 -1 $-1 $86 $152 $63 $95 reversed $59 $-1 #
edge $153 -1 -1 $-1 $154 -15 $100 15 $94 $155 forward @7 unknown T -15 -15 15 15 -15 15 #
coedge $-1 -1 -1 $-1 $89 $64 $152 $156 forward $98 $-1 #
coedge $-1 -1 -1 $-1 $64 $89 $147 $157 reversed $98 $-1 #
loop $-1 -1 -1 $-1 $-1 $96 $130 T 15 -15 -15 15 15 15 unknown #
integer_attrib-name_attrib-gen-attrib $-1 -1 $-1 $-1 $65 2 1 1 1 1 1 1 1 1 1 1 1 1 1 0 1 1 1 @8 CUBIT_ID 13 #
vertex $158 -1 -1 $-1 $65 $159 #
vertex $160 -1 -1 $-1 $65 $161 #
straight-curve $-1 -1 -1 $-1 15 0 15 0 1 0 I I #
edge $162 -1 -1 $-1 $163 1 $163 0 $66 $-1 forward @7 unknown T 10 5 5 10 5 5 #
integer_attrib-name_attrib-gen-attrib $-1 -1 $164 $-1 $67 2 1 1 1 1 1 1 1 1 1 1 1 1 1 0 1 1 1 @8 CUBIT_ID 38 #
vertex $165 -1 -1 $-1 $67 $166 #
simple-snl-attrib $-1 -1 $-1 $68 $47 1 1 1 1 1 1 1 1 1 1 1 1 0 1 0 1 1 1 @17 NEW_SIMPLE_ATTRIB 2 @14 SOURCE_FEATURE @7 IMPRINT 0 0 #
integer_attrib-name_attrib-gen-attrib $-1 -1 $-1 $-1 $69 2 1 1 1 1 1 1 1 1 1 1 1 1 1 0 1 1 1 @8 CUBIT_ID 25 #
point $-1 -1 -1 $-1 5 5 10 #
edge $167 -1 -1 $-1 $168 1 $168 0 $70 $-1 forward @7 unknown T -10 -5 -5 -10 -5 -5 #
integer_attrib-name_attrib-gen-attrib $-1 -1 $169 $-1 $71 2 1 1 1 1 1 1 1 1 1 1 1 1 1 0 1 1 1 @8 CUBIT_ID 41 #
vertex $170 -1 -1 $-1 $71 $171 #
simple-snl-attrib $-1 -1 $-1 $72 $50 1 1 1 1 1 1 1 1 1 1 1 1 0 1 0 1 1 1 @17 NEW_SIMPLE_ATTRIB 2 @14 SOURCE_FEATURE @7 IMPRINT 0 0 #
integer_attrib-name_attrib-gen-attrib $-1 -1 $-1 $-1 $73 2 1 1 1 1 1 1 1 1 1 1 1 1 1 0 1 1 1 @8 CUBIT_ID 28 #
point $-1 -1 -1 $-1 -5 -5 -10 #
integer_attrib-name_attrib-gen-attrib $-1 -1 $-1 $-1 $75 2 1 1 1 1 1 1 1 1 1 1 1 1 1 0 1 1 1 @8 CUBIT_ID 18 #
face $172 -1 -1 $-1 $173 $174 $19 $-1 $175 forward single T -10 10 -10 10 10 10 F #
loop $-1 -1 -1 $-1 $176 $177 $75 F unknown #
plane-surface $-1 -1 -1 $-1 -10 0 0 1 0 0 0 0 -1 forward_v I I I I #
loop $-1 -1 -1 $-1 $-1 $178 $52 T -10 -10 -10 10 -10 10 periphery $77 F #
coedge $-1 -1 -1 $-1 $120 $120 $-1 $179 forward $76 $-1 #
coedge $-1 -1 -1 $-1 $180 $181 $182 $183 reversed $78 $-1 #
edge $184 -1 -1 $-1 $185 1 $185 0 $79 $-1 forward @7 unknown T -5 -5 -10 -5 -5 -10 #
coedge $-1 -1 -1 $-1 $186 $80 $187 $188 reversed $55 $-1 #
coedge $-1 -1 -1 $-1 $80 $186 $189 $190 reversed $55 $-1 #
coedge $-1 -1 -1 $-1 $191 $192 $80 $126 forward $193 $-1 #
edge $194 -1 -1 $-1 $195 -10 $196 10 $125 $197 forward @7 unknown T 10 -10 10 10 10 10 #
integer_attrib-name_attrib-gen-attrib $-1 -1 $198 $-1 $81 2 1 1 1 1 1 1 1 1 1 1 1 1 1 0 1 1 1 @8 CUBIT_ID 43 #
vertex $199 -1 -1 $-1 $81 $200 #
integer_attrib-name_attrib-gen-attrib $-1 -1 $-1 $-1 $83 2 1 1 1 1 1 1 1 1 1 1 1 1 1 0 1 1 1 @8 CUBIT_ID 13 #
face $201 -1 -1 $-1 $-1 $98 $16 $-1 $202 reversed single T 15 -15 -15 15 15 15 F #
loop $-1 -1 -1 $-1 $-1 $147 $83 T -15 15 -15 15 15 15 unknown #
plane-surface $-1 -1 -1 $-1 0 15 0 0 -1 0 0 0 -1 forward_v I I I I #
coedge $-1 -1 -1 $-1 $203 $145 $148 $204 forward $84 $-1 #
coedge $-1 -1 -1 $-1 $152 $86 $87 $138 reversed $59 $-1 #
coedge $-1 -1 -1 $-1 $145 $203 $86 $136 reversed $84 $-1 #
edge $205 -1 -1 $-1 $154 -15 $206 15 $135 $207 forward @7 unknown T -15 -15 -15 -15 -15 15 #
coedge $-1 -1 -1 $-1 $88 $87 $203 $208 forward $42 $-1 #
edge $209 -1 -1 $-1 $143 -15 $206 15 $134 $210 forward @7 unknown T -15 -15 -15 15 -15 -15 #
coedge $-1 -1 -1 $-1 $148 $147 $88 $140 reversed $131 $-1 #
edge $211 -1 -1 $-1 $212 -15 $142 15 $139 $213 forward @7 unknown T -15 15 -15 15 15 -15 #
integer_attrib-name_attrib-gen-attrib $-1 -1 $-1 $-1 $90 2 1 1 1 1 1 1 1 1 1 1 1 1 1 0 1 1 1 @8 CUBIT_ID 17 #
vertex $214 -1 -1 $-1 $90 $215 #
vertex $216 -1 -1 $-1 $156 $217 #
straight-curve $-1 -1 -1 $-1 15 0 -15 0 -1 0 I I #
coedge $-1 -1 -1 $-1 $133 $135 $91 $146 reversed $84 $-1 #
edge $218 -1 -1 $-1 $150 -15 $154 15 $145 $219 forward @7 unknown T -15 -15 15 -15 15 15 #
coedge $-1 -1 -1 $-1 $139 $92 $97 $157 forward $131 $-1 #
coedge $-1 -1 -1 $-1 $92 $139 $133 $204 reversed $131 $-1 #
integer_attrib-name_attrib-gen-attrib $-1 -1 $-1 $-1 $93 2 1 1 1 1 1 1 1 1 1 1 1 1 1 0 1 1 1 @8 CUBIT_ID 14 #
vertex $220 -1 -1 $-1 $93 $221 #
straight-curve $-1 -1 -1 $-1 0 15 15 -1 0 0 I I #
coedge $-1 -1 -1 $-1 $94 $134 $96 $156 reversed $59 $-1 #
integer_attrib-name_attrib-gen-attrib $-1 -1 $-1 $-1 $95 2 1 1 1 1 1 1 1 1 1 1 1 1 1 0 1 1 1 @8 CUBIT_ID 16 #
vertex $222 -1 -1 $-1 $146 $223 #
straight-curve $-1 -1 -1 $-1 0 -15 15 1 0 0 I I #
edge $224 -1 -1 $-1 $100 -15 $143 15 $96 $225 forward @7 unknown T 15 -15 -15 15 -15 15 #
edge $226 -1 -1 $-1 $101 -15 $142 15 $97 $227 forward @7 unknown T 15 15 -15 15 15 15 #
integer_attrib-name_attrib-gen-attrib $-1 -1 $-1 $-1 $100 2 1 1 1 1 1 1 1 1 1 1 1 1 1 0 1 1 1 @8 CUBIT_ID 9 #
point $-1 -1 -1 $-1 15 -15 15 #
integer_attrib-name_attrib-gen-attrib $-1 -1 $-1 $-1 $101 2 1 1 1 1 1 1 1 1 1 1 1 1 1 0 1 1 1 @8 CUBIT_ID 10 #
point $-1 -1 -1 $-1 15 15 15 #
integer_attrib-name_attrib-gen-attrib $-1 -1 $228 $-1 $103 2 1 1 1 1 1 1 1 1 1 1 1 1 1 0 1 1 1 @8 CUBIT_ID 39 #
vertex $229 -1 -1 $-1 $103 $230 #
simple-snl-attrib $-1 -1 $-1 $104 $67 1 1 1 1 1 1 1 1 1 1 1 1 0 1 0 1 1 1 @17 NEW_SIMPLE_ATTRIB 2 @14 SOURCE_FEATURE @7 IMPRINT 0 0 #
integer_attrib-name_attrib-gen-attrib $-1 -1 $-1 $-1 $105 2 1 1 1 1 1 1 1 1 1 1 1 1 1 0 1 1 1 @8 CUBIT_ID 26 #
point $-1 -1 -1 $-1 5 10 5 #
integer_attrib-name_attrib-gen-attrib $-1 -1 $231 $-1 $109 2 1 1 1 1 1 1 1 1 1 1 1 1 1 0 1 1 1 @8 CUBIT_ID 42 #
vertex $232 -1 -1 $-1 $109 $233 #
simple-snl-attrib $-1 -1 $-1 $110 $71 1 1 1 1 1 1 1 1 1 1 1 1 0 1 0 1 1 1 @17 NEW_SIMPLE_ATTRIB 2 @14 SOURCE_FEATURE @7 IMPRINT 0 0 #
integer_attrib-name_attrib-gen-attrib $-1 -1 $-1 $-1 $111 2 1 1 1 1 1 1 1 1 1 1 1 1 1 0 1 1 1 @8 CUBIT_ID 29 #
point $-1 -1 -1 $-1 -5 -10 -5 #
integer_attrib-name_attrib-gen-attrib $-1 -1 $-1 $-1 $116 2 1 1 1 1 1 1 1 1 1 1 1 1 1 0 1 1 1 @8 CUBIT_ID 19 #
face $234 -1 -1 $-1 $-1 $235 $19 $-1 $236 forward single T 10 -10 -10 10 10 10 F #
loop $-1 -1 -1 $-1 $237 $238 $116 F unknown #
plane-surface $-1 -1 -1 $-1 0 10 0 0 -1 0 0 0 -1 forward_v I I I I #
loop $-1 -1 -1 $-1 $-1 $239 $75 T -10 -10 -10 -10 10 10 periphery $118 F #
coedge $-1 -1 -1 $-1 $177 $177 $-1 $240 forward $117 $-1 #
coedge $-1 -1 -1 $-1 $187 $241 $242 $243 reversed $119 $-1 #
edge $244 -1 -1 $-1 $245 1 $245 0 $120 $-1 forward @7 unknown T -5 -10 -5 -5 -10 -5 #
coedge $-1 -1 -1 $-1 $246 $121 $247 $248 reversed $78 $-1 #
coedge $-1 -1 -1 $-1 $121 $246 $241 $249 reversed $78 $-1 #
coedge $-1 -1 -1 $-1 $192 $191 $121 $183 forward $193 $-1 #
edge $250 -1 -1 $-1 $251 -10 $252 10 $182 $253 forward @7 unknown T 10 -10 -10 10 10 -10 #
integer_attrib-name_attrib-gen-attrib $-1 -1 $254 $-1 $122 2 1 1 1 1 1 1 1 1 1 1 1 1 1 0 1 1 1 @8 CUBIT_ID 44 #
vertex $255 -1 -1 $-1 $122 $256 #
coedge $-1 -1 -1 $-1 $124 $123 $257 $258 reversed $55 $-1 #
coedge $-1 -1 -1 $-1 $259 $178 $123 $188 forward $119 $-1 #
edge $260 -1 -1 $-1 $261 -10 $195 10 $187 $262 forward @7 unknown T -10 -10 10 10 -10 10 #
coedge $-1 -1 -1 $-1 $263 $264 $124 $190 forward $237 $-1 #
edge $265 -1 -1 $-1 $196 -10 $266 10 $189 $267 forward @7 unknown T -10 10 10 10 10 10 #
coedge $-1 -1 -1 $-1 $182 $125 $264 $268 forward $193 $-1 #
coedge $-1 -1 -1 $-1 $125 $182 $259 $269 reversed $193 $-1 #
loop $-1 -1 -1 $-1 $-1 $192 $173 T 10 -10 -10 10 10 10 periphery $236 F #
integer_attrib-name_attrib-gen-attrib $-1 -1 $-1 $-1 $126 2 1 1 1 1 1 1 1 1 1 1 1 1 1 0 1 1 1 @8 CUBIT_ID 25 #
vertex $270 -1 -1 $-1 $126 $271 #
vertex $272 -1 -1 $-1 $126 $273 #
straight-curve $-1 -1 -1 $-1 10 0 10 0 1 0 I I #
simple-snl-attrib $-1 -1 $-1 $127 $81 1 1 1 1 1 1 1 1 1 1 1 1 0 1 0 1 1 1 @17 NEW_SIMPLE_ATTRIB 2 @14 SOURCE_FEATURE @7 IMPRINT 0 0 #
integer_attrib-name_attrib-gen-attrib $-1 -1 $-1 $-1 $128 2 1 1 1 1 1 1 1 1 1 1 1 1 1 0 1 1 1 @8 CUBIT_ID 31 #
point $-1 -1 -1 $-1 5 5 10 #
integer_attrib-name_attrib-gen-attrib $-1 -1 $-1 $-1 $130 2 1 1 1 1 1 1 1 1 1 1 1 1 1 0 1 1 1 @8 CUBIT_ID 14 #
plane-surface $-1 -1 -1 $-1 15 0 0 -1 0 0 0 -0 1 forward_v I I I I #
coedge $-1 -1 -1 $-1 $135 $133 $137 $208 reversed $84 $-1 #
edge $274 -1 -1 $-1 $150 -15 $212 15 $148 $275 forward @7 unknown T -15 15 -15 -15 15 15 #
integer_attrib-name_attrib-gen-attrib $-1 -1 $-1 $-1 $136 2 1 1 1 1 1 1 1 1 1 1 1 1 1 0 1 1 1 @8 CUBIT_ID 21 #
vertex $276 -1 -1 $-1 $208 $277 #
straight-curve $-1 -1 -1 $-1 -15 -15 0 0 0 -1 I I #
edge $278 -1 -1 $-1 $206 -15 $212 15 $203 $279 forward @7 unknown T -15 -15 -15 -15 15 -15 #
integer_attrib-name_attrib-gen-attrib $-1 -1 $-1 $-1 $138 2 1 1 1 1 1 1 1 1 1 1 1 1 1 0 1 1 1 @8 CUBIT_ID 18 #
straight-curve $-1 -1 -1 $-1 0 -15 -15 -1 0 0 I I #
integer_attrib-name_attrib-gen-attrib $-1 -1 $-1 $-1 $140 2 1 1 1 1 1 1 1 1 1 1 1 1 1 0 1 1 1 @8 CUBIT_ID 20 #
vertex $280 -1 -1 $-1 $140 $281 #
straight-curve $-1 -1 -1 $-1 0 15 -15 1 0 0 I I #
integer_attrib-name_attrib-gen-attrib $-1 -1 $-1 $-1 $142 2 1 1 1 1 1 1 1 1 1 1 1 1 1 0 1 1 1 @8 CUBIT_ID 13 #
point $-1 -1 -1 $-1 15 15 -15 #
integer_attrib-name_attrib-gen-attrib $-1 -1 $-1 $-1 $143 2 1 1 1 1 1 1 1 1 1 1 1 1 1 0 1 1 1 @8 CUBIT_ID 14 #
point $-1 -1 -1 $-1 15 -15 -15 #
integer_attrib-name_attrib-gen-attrib $-1 -1 $-1 $-1 $146 2 1 1 1 1 1 1 1 1 1 1 1 1 1 0 1 1 1 @8 CUBIT_ID 15 #
straight-curve $-1 -1 -1 $-1 -15 0 15 0 -1 0 I I #
integer_attrib-name_attrib-gen-attrib $-1 -1 $-1 $-1 $150 2 1 1 1 1 1 1 1 1 1 1 1 1 1 0 1 1 1 @8 CUBIT_ID 11 #
point $-1 -1 -1 $-1 -15 15 15 #
integer_attrib-name_attrib-gen-attrib $-1 -1 $-1 $-1 $154 2 1 1 1 1 1 1 1 1 1 1 1 1 1 0 1 1 1 @8 CUBIT_ID 12 #
point $-1 -1 -1 $-1 -15 -15 15 #
integer_attrib-name_attrib-gen-attrib $-1 -1 $-1 $-1 $156 2 1 1 1 1 1 1 1 1 1 1 1 1 1 0 1 1 1 @8 CUBIT_ID 22 #
straight-curve $-1 -1 -1 $-1 15 -15 0 0 0 -1 I I #
integer_attrib-name_attrib-gen-attrib $-1 -1 $-1 $-1 $157 2 1 1 1 1 1 1 1 1 1 1 1 1 1 0 1 1 1 @8 CUBIT_ID 24 #
straight-curve $-1 -1 -1 $-1 15 15 0 0 0 -1 I I #
simple-snl-attrib $-1 -1 $-1 $162 $103 1 1 1 1 1 1 1 1 1 1 1 1 0 1 0 1 1 1 @17 NEW_SIMPLE_ATTRIB 2 @14 SOURCE_FEATURE @7 IMPRINT 0 0 #
integer_attrib-name_attrib-gen-attrib $-1 -1 $-1 $-1 $163 2 1 1 1 1 1 1 1 1 1 1 1 1 1 0 1 1 1 @8 CUBIT_ID 27 #
point $-1 -1 -1 $-1 10 5 5 #
simple-snl-attrib $-1 -1 $-1 $167 $109 1 1 1 1 1 1 1 1 1 1 1 1 0 1 0 1 1 1 @17 NEW_SIMPLE_ATTRIB 2 @14 SOURCE_FEATURE @7 IMPRINT 0 0 #
integer_attrib-name_attrib-gen-attrib $-1 -1 $-1 $-1 $168 2 1 1 1 1 1 1 1 1 1 1 1 1 1 0 1 1 1 @8 CUBIT_ID 30 #
point $-1 -1 -1 $-1 -10 -5 -5 #
integer_attrib-name_attrib-gen-attrib $-1 -1 $-1 $-1 $173 2 1 1 1 1 1 1 1 1 1 1 1 1 1 0 1 1 1 @8 CUBIT_ID 20 #
loop $-1 -1 -1 $-1 $193 $282 $173 F unknown #
plane-surface $-1 -1 -1 $-1 10 0 0 -1 0 0 0 -0 1 forward_v I I I I #
loop $-1 -1 -1 $-1 $-1 $264 $116 T -10 10 -10 10 10 10 periphery $175 F #
coedge $-1 -1 -1 $-1 $238 $238 $-1 $283 forward $174 $-1 #
coedge $-1 -1 -1 $-1 $257 $284 $263 $285 reversed $176 $-1 #
edge $286 -1 -1 $-1 $287 1 $287 0 $177 $-1 forward @7 unknown T -10 -5 -5 -10 -5 -5 #
coedge $-1 -1 -1 $-1 $178 $259 $181 $249 forward $119 $-1 #
coedge $-1 -1 -1 $-1 $284 $257 $178 $243 forward $176 $-1 #
edge $288 -1 -1 $-1 $261 -10 $289 10 $242 $290 forward @7 unknown T -10 -10 -10 -10 -10 10 #
integer_attrib-name_attrib-gen-attrib $-1 -1 $291 $-1 $179 2 1 1 1 1 1 1 1 1 1 1 1 1 1 0 1 1 1 @8 CUBIT_ID 45 #
vertex $292 -1 -1 $-1 $179 $293 #
coedge $-1 -1 -1 $-1 $181 $180 $284 $294 reversed $78 $-1 #
coedge $-1 -1 -1 $-1 $264 $263 $180 $248 forward $237 $-1 #
edge $295 -1 -1 $-1 $296 -10 $251 10 $247 $297 forward @7 unknown T -10 10 -10 10 10 -10 #
edge $298 -1 -1 $-1 $252 -10 $289 10 $241 $299 forward @7 unknown T -10 -10 -10 10 -10 -10 #
integer_attrib-name_attrib-gen-attrib $-1 -1 $-1 $-1 $183 2 1 1 1 1 1 1 1 1 1 1 1 1 1 0 1 1 1 @8 CUBIT_ID 29 #
vertex $300 -1 -1 $-1 $183 $301 #
vertex $302 -1 -1 $-1 $269 $303 #
straight-curve $-1 -1 -1 $-1 10 0 -10 0 -1 0 I I #
simple-snl-attrib $-1 -1 $-1 $184 $122 1 1 1 1 1 1 1 1 1 1 1 1 0 1 0 1 1 1 @17 NEW_SIMPLE_ATTRIB 2 @14 SOURCE_FEATURE @7 IMPRINT 0 0 #
integer_attrib-name_attrib-gen-attrib $-1 -1 $-1 $-1 $185 2 1 1 1 1 1 1 1 1 1 1 1 1 1 0 1 1 1 @8 CUBIT_ID 32 #
point $-1 -1 -1 $-1 -5 -5 -10 #
coedge $-1 -1 -1 $-1 $242 $239 $186 $258 forward $176 $-1 #
edge $304 -1 -1 $-1 $266 -10 $261 10 $257 $305 forward @7 unknown T -10 -10 10 -10 10 10 #
coedge $-1 -1 -1 $-1 $241 $187 $192 $269 forward $119 $-1 #
integer_attrib-name_attrib-gen-attrib $-1 -1 $-1 $-1 $188 2 1 1 1 1 1 1 1 1 1 1 1 1 1 0 1 1 1 @8 CUBIT_ID 26 #
vertex $306 -1 -1 $-1 $258 $307 #
straight-curve $-1 -1 -1 $-1 0 -10 10 1 0 0 I I #
coedge $-1 -1 -1 $-1 $247 $189 $239 $285 forward $237 $-1 #
coedge $-1 -1 -1 $-1 $189 $247 $191 $268 reversed $237 $-1 #
integer_attrib-name_attrib-gen-attrib $-1 -1 $-1 $-1 $190 2 1 1 1 1 1 1 1 1 1 1 1 1 1 0 1 1 1 @8 CUBIT_ID 28 #
vertex $308 -1 -1 $-1 $190 $309 #
straight-curve $-1 -1 -1 $-1 0 10 10 -1 0 0 I I #
edge $310 -1 -1 $-1 $196 -10 $251 10 $191 $311 forward @7 unknown T 10 10 -10 10 10 10 #
edge $312 -1 -1 $-1 $195 -10 $252 10 $192 $313 forward @7 unknown T 10 -10 -10 10 -10 10 #
integer_attrib-name_attrib-gen-attrib $-1 -1 $-1 $-1 $195 2 1 1 1 1 1 1 1 1 1 1 1 1 1 0 1 1 1 @8 CUBIT_ID 17 #
point $-1 -1 -1 $-1 10 -10 10 #
integer_attrib-name_attrib-gen-attrib $-1 -1 $-1 $-1 $196 2 1 1 1 1 1 1 1 1 1 1 1 1 1 0 1 1 1 @8 CUBIT_ID 18 #
point $-1 -1 -1 $-1 10 10 10 #
integer_attrib-name_attrib-gen-attrib $-1 -1 $-1 $-1 $204 2 1 1 1 1 1 1 1 1 1 1 1 1 1 0 1 1 1 @8 CUBIT_ID 23 #
straight-curve $-1 -1 -1 $-1 -15 15 0 0 0 -1 I I #
integer_attrib-name_attrib-gen-attrib $-1 -1 $-1 $-1 $206 2 1 1 1 1 1 1 1 1 1 1 1 1 1 0 1 1 1 @8 CUBIT_ID 15 #
point $-1 -1 -1 $-1 -15 -15 -15 #
integer_attrib-name_attrib-gen-attrib $-1 -1 $-1 $-1 $208 2 1 1 1 1 1 1 1 1 1 1 1 1 1 0 1 1 1 @8 CUBIT_ID 19 #
straight-curve $-1 -1 -1 $-1 -15 0 -15 0 1 0 I I #
integer_attrib-name_attrib-gen-attrib $-1 -1 $-1 $-1 $212 2 1 1 1 1 1 1 1 1 1 1 1 1 1 0 1 1 1 @8 CUBIT_ID 16 #
point $-1 -1 -1 $-1 -15 15 -15 #
coedge $-1 -1 -1 $-1 $282 $282 $-1 $314 forward $235 $-1 #
edge $315 -1 -1 $-1 $316 1 $316 0 $238 $-1 forward @7 unknown T 5 10 5 5 10 5 #
coedge $-1 -1 -1 $-1 $239 $242 $246 $294 forward $176 $-1 #
edge $317 -1 -1 $-1 $266 -10 $296 10 $263 $318 forward @7 unknown T -10 10 -10 -10 10 10 #
integer_attrib-name_attrib-gen-attrib $-1 -1 $319 $-1 $240 2 1 1 1 1 1 1 1 1 1 1 1 1 1 0 1 1 1 @8 CUBIT_ID 46 #
vertex $320 -1 -1 $-1 $240 $321 #
integer_attrib-name_attrib-gen-attrib $-1 -1 $-1 $-1 $243 2 1 1 1 1 1 1 1 1 1 1 1 1 1 0 1 1 1 @8 CUBIT_ID 33 #
vertex $322 -1 -1 $-1 $294 $323 #
straight-curve $-1 -1 -1 $-1 -10 -10 0 0 0 -1 I I #
simple-snl-attrib $-1 -1 $-1 $244 $179 1 1 1 1 1 1 1 1 1 1 1 1 0 1 0 1 1 1 @17 NEW_SIMPLE_ATTRIB 2 @14 SOURCE_FEATURE @7 IMPRINT 0 0 #
integer_attrib-name_attrib-gen-attrib $-1 -1 $-1 $-1 $245 2 1 1 1 1 1 1 1 1 1 1 1 1 1 0 1 1 1 @8 CUBIT_ID 33 #
point $-1 -1 -1 $-1 -5 -10 -5 #
edge $324 -1 -1 $-1 $289 -10 $296 10 $284 $325 forward @7 unknown T -10 -10 -10 -10 10 -10 #
integer_attrib-name_attrib-gen-attrib $-1 -1 $-1 $-1 $248 2 1 1 1 1 1 1 1 1 1 1 1 1 1 0 1 1 1 @8 CUBIT_ID 30 #
vertex $326 -1 -1 $-1 $248 $327 #
straight-curve $-1 -1 -1 $-1 0 10 -10 1 0 0 I I #
integer_attrib-name_attrib-gen-attrib $-1 -1 $-1 $-1 $249 2 1 1 1 1 1 1 1 1 1 1 1 1 1 0 1 1 1 @8 CUBIT_ID 32 #
straight-curve $-1 -1 -1 $-1 0 -10 -10 -1 0 0 I I #
integer_attrib-name_attrib-gen-attrib $-1 -1 $-1 $-1 $251 2 1 1 1 1 1 1 1 1 1 1 1 1 1 0 1 1 1 @8 CUBIT_ID 21 #
point $-1 -1 -1 $-1 10 10 -10 #
integer_attrib-name_attrib-gen-attrib $-1 -1 $-1 $-1 $252 2 1 1 1 1 1 1 1 1 1 1 1 1 1 0 1 1 1 @8 CUBIT_ID 22 #
point $-1 -1 -1 $-1 10 -10 -10 #
integer_attrib-name_attrib-gen-attrib $-1 -1 $-1 $-1 $258 2 1 1 1 1 1 1 1 1 1 1 1 1 1 0 1 1 1 @8 CUBIT_ID 27 #
straight-curve $-1 -1 -1 $-1 -10 0 10 0 -1 0 I I #
integer_attrib-name_attrib-gen-attrib $-1 -1 $-1 $-1 $261 2 1 1 1 1 1 1 1 1 1 1 1 1 1 0 1 1 1 @8 CUBIT_ID 19 #
point $-1 -1 -1 $-1 -10 -10 10 #
integer_attrib-name_attrib-gen-attrib $-1 -1 $-1 $-1 $266 2 1 1 1 1 1 1 1 1 1 1 1 1 1 0 1 1 1 @8 CUBIT_ID 20 #
point $-1 -1 -1 $-1 -10 10 10 #
integer_attrib-name_attrib-gen-attrib $-1 -1 $-1 $-1 $268 2 1 1 1 1 1 1 1 1 1 1 1 1 1 0 1 1 1 @8 CUBIT_ID 36 #
straight-curve $-1 -1 -1 $-1 10 10 0 0 0 -1 I I #
integer_attrib-name_attrib-gen-attrib $-1 -1 $-1 $-1 $269 2 1 1 1 1 1 1 1 1 1 1 1 1 1 0 1 1 1 @8 CUBIT_ID 34 #
straight-curve $-1 -1 -1 $-1 10 -10 0 0 0 -1 I I #
edge $328 -1 -1 $-1 $329 1 $329 0 $282 $-1 forward @7 unknown T 10 5 5 10 5 5 #
integer_attrib-name_attrib-gen-attrib $-1 -1 $330 $-1 $283 2 1 1 1 1 1 1 1 1 1 1 1 1 1 0 1 1 1 @8 CUBIT_ID 47 #
vertex $331 -1 -1 $-1 $283 $332 #
integer_attrib-name_attrib-gen-attrib $-1 -1 $-1 $-1 $285 2 1 1 1 1 1 1 1 1 1 1 1 1 1 0 1 1 1 @8 CUBIT_ID 35 #
straight-curve $-1 -1 -1 $-1 -10 10 0 0 0 -1 I I #
simple-snl-attrib $-1 -1 $-1 $286 $240 1 1 1 1 1 1 1 1 1 1 1 1 0 1 0 1 1 1 @17 NEW_SIMPLE_ATTRIB 2 @14 SOURCE_FEATURE @7 IMPRINT 0 0 #
integer_attrib-name_attrib-gen-attrib $-1 -1 $-1 $-1 $287 2 1 1 1 1 1 1 1 1 1 1 1 1 1 0 1 1 1 @8 CUBIT_ID 34 #
point $-1 -1 -1 $-1 -10 -5 -5 #
integer_attrib-name_attrib-gen-attrib $-1 -1 $-1 $-1 $289 2 1 1 1 1 1 1 1 1 1 1 1 1 1 0 1 1 1 @8 CUBIT_ID 24 #
point $-1 -1 -1 $-1 -10 -10 -10 #
integer_attrib-name_attrib-gen-attrib $-1 -1 $-1 $-1 $294 2 1 1 1 1 1 1 1 1 1 1 1 1 1 0 1 1 1 @8 CUBIT_ID 31 #
straight-curve $-1 -1 -1 $-1 -10 0 -10 0 1 0 I I #
integer_attrib-name_attrib-gen-attrib $-1 -1 $-1 $-1 $296 2 1 1 1 1 1 1 1 1 1 1 1 1 1 0 1 1 1 @8 CUBIT_ID 23 #
point $-1 -1 -1 $-1 -10 10 -10 #
integer_attrib-name_attrib-gen-attrib $-1 -1 $333 $-1 $314 2 1 1 1 1 1 1 1 1 1 1 1 1 1 0 1 1 1 @8 CUBIT_ID 48 #
vertex $334 -1 -1 $-1 $314 $335 #
simple-snl-attrib $-1 -1 $-1 $315 $283 1 1 1 1 1 1 1 1 1 1 1 1 0 1 0 1 1 1 @17 NEW_SIMPLE_ATTRIB 2 @14 SOURCE_FEATURE @7 IMPRINT 0 0 #
integer_attrib-name_attrib-gen-attrib $-1 -1 $-1 $-1 $316 2 1 1 1 1 1 1 1 1 1 1 1 1 1 0 1 1 1 @8 CUBIT_ID 35 #
point $-1 -1 -1 $-1 5 10 5 #
simple-snl-attrib $-1 -1 $-1 $328 $314 1 1 1 1 1 1 1 1 1 1 1 1 0 1 0 1 1 1 @17 NEW_SIMPLE_ATTRIB 2 @14 SOURCE_FEATURE @7 IMPRINT 0 0 #
integer_attrib-name_attrib-gen-attrib $-1 -1 $-1 $-1 $329 2 1 1 1 1 1 1 1 1 1 1 1 1 1 0 1 1 1 @8 CUBIT_ID 36 #
point $-1 -1 -1 $-1 10 5 5 #
End-of-ACIS-data 