1900 0 2 0           
10 Cubit 14.0 17 ACIS 22.0.2 Linux 24 Mon Mar  7 13:31:16 2016 
1 9.9999999999999995e-07 1e-10 
body $2 -1 -1 $-1 $3 $-1 $4 T -1 -1 -1 1 1 1 #
body $5 -1 -1 $-1 $6 $-1 $7 T -2 -2 -2 2 2 2 #
integer_attrib-name_attrib-gen-attrib $-1 -1 $8 $-1 $0 2 1 1 1 1 1 1 1 1 1 1 1 1 1 0 1 1 1 @8 CUBIT_ID 1 #
lump $9 -1 -1 $-1 $-1 $10 $0 T -1 -1 -1 1 1 1 #
transform $-1 -1 1 0 0 0 1 0 0 0 1 0 0 0 1 no_rotate no_reflect no_shear #
integer_attrib-name_attrib-gen-attrib $-1 -1 $11 $-1 $1 2 1 1 1 1 1 1 1 1 1 1 1 1 1 0 1 1 1 @8 CUBIT_ID 3 #
lump $12 -1 -1 $-1 $-1 $13 $1 T -2 -2 -2 2 2 2 #
transform $-1 -1 1 0 0 0 1 0 0 0 1 0 0 0 1 no_rotate no_reflect no_shear #
simple-snl-attrib $-1 -1 $-1 $2 $0 1 1 1 1 1 1 1 1 1 1 1 1 0 1 0 1 1 1 @17 NEW_SIMPLE_ATTRIB 1 @9 ENTITY_ID 0 3 1 -2147483648 -1 #
integer_attrib-name_attrib-gen-attrib $-1 -1 $14 $-1 $3 2 1 1 1 1 1 1 1 1 1 1 1 1 1 0 1 1 1 @8 CUBIT_ID 1 #
shell $-1 -1 -1 $-1 $-1 $-1 $15 $-1 $3 T -1 -1 -1 1 1 1 #
simple-snl-attrib $-1 -1 $-1 $5 $1 1 1 1 1 1 1 1 1 1 1 1 1 0 1 0 1 1 1 @17 NEW_SIMPLE_ATTRIB 1 @9 ENTITY_ID 0 3 3 -2147483648 -1 #
integer_attrib-name_attrib-gen-attrib $-1 -1 $16 $-1 $6 2 1 1 1 1 1 1 1 1 1 1 1 1 1 0 1 1 1 @8 CUBIT_ID 4 #
shell $-1 -1 -1 $-1 $17 $-1 $18 $-1 $6 T -2 -2 -2 2 2 2 #
simple-snl-attrib $-1 -1 $19 $9 $3 1 1 1 1 1 1 1 1 1 1 1 1 0 1 0 1 1 1 @17 NEW_SIMPLE_ATTRIB 1 @9 ENTITY_ID 0 3 1 -2147483648 -1 #
face $20 -1 -1 $-1 $-1 $-1 $10 $-1 $21 forward single T -1 -1 -1 1 1 1 F #
simple-snl-attrib $-1 -1 $22 $12 $6 1 1 1 1 1 1 1 1 1 1 1 1 0 1 0 1 1 1 @17 NEW_SIMPLE_ATTRIB 1 @9 ENTITY_ID 0 3 4 -2147483648 -1 #
shell $-1 -1 -1 $-1 $-1 $-1 $23 $-1 $6 T -1.5 -1.5 -1.5 1.5 1.5 1.5 #
face $24 -1 -1 $-1 $25 $26 $13 $-1 $27 forward single T -2 -2 2 2 2 2 F #
simple-snl-attrib $-1 -1 $28 $14 $3 1 1 1 1 1 1 1 1 1 1 1 1 0 1 0 1 1 1 @17 NEW_SIMPLE_ATTRIB 2 @5 GROUP @13 mat_1_rho_1.0 0 7 1 4 473043486 0 0 0 0 #
integer_attrib-name_attrib-gen-attrib $-1 -1 $29 $-1 $15 2 1 1 1 1 1 1 1 1 1 1 1 1 1 0 1 1 1 @8 CUBIT_ID 1 #
sphere-surface $-1 -1 -1 $-1 0 0 0 1 1 0 0 0 0 1 forward_v I I I I #
simple-snl-attrib $-1 -1 $30 $16 $6 1 1 1 1 1 1 1 1 1 1 1 1 0 1 0 1 1 1 @17 NEW_SIMPLE_ATTRIB 2 @5 GROUP @16 termination.cell 0 7 1 2 1353161807 0 0 0 0 #
face $31 -1 -1 $-1 $32 $33 $17 $-1 $34 reversed single T -1.5 -1.5 1.5 1.5 1.5 1.5 F #
integer_attrib-name_attrib-gen-attrib $-1 -1 $35 $-1 $18 2 1 1 1 1 1 1 1 1 1 1 1 1 1 0 1 1 1 @8 CUBIT_ID 8 #
face $36 -1 -1 $-1 $37 $38 $13 $-1 $39 reversed single T -2 -2 -2 2 2 -2 F #
loop $-1 -1 -1 $-1 $-1 $40 $18 T -2 -2 2 2 2 2 periphery $27 F #
plane-surface $-1 -1 -1 $-1 0 0 2 0 0 1 1 0 0 forward_v I I I I #
simple-snl-attrib $-1 -1 $-1 $19 $3 1 1 1 1 1 1 1 1 1 1 1 1 0 1 0 1 1 1 @17 NEW_SIMPLE_ATTRIB 7 @16 GRAPHICS_OPTIONS @14 geometry color @10 mesh color @19 geometry visibility @15 mesh visibility @11 render mode @11 transparent 0 6 4 4 1 1 0 0 #
simple-snl-attrib $-1 -1 $41 $20 $15 1 1 1 1 1 1 1 1 1 1 1 1 0 1 0 1 1 1 @17 NEW_SIMPLE_ATTRIB 1 @9 ENTITY_ID 0 3 1 -2147483648 -1 #
simple-snl-attrib $-1 -1 $-1 $22 $6 1 1 1 1 1 1 1 1 1 1 1 1 0 1 0 1 1 1 @17 NEW_SIMPLE_ATTRIB 7 @16 GRAPHICS_OPTIONS @14 geometry color @10 mesh color @19 geometry visibility @15 mesh visibility @11 render mode @11 transparent 0 6 7 7 1 1 0 0 #
integer_attrib-name_attrib-gen-attrib $-1 -1 $42 $-1 $23 2 1 1 1 1 1 1 1 1 1 1 1 1 1 0 1 1 1 @8 CUBIT_ID 14 #
face $43 -1 -1 $-1 $44 $45 $17 $-1 $46 forward single T -1.5 -1.5 -1.5 1.5 1.5 -1.5 F #
loop $-1 -1 -1 $-1 $-1 $47 $23 T -1.5 -1.5 1.5 1.5 1.5 1.5 unknown #
plane-surface $-1 -1 -1 $-1 0 0 1.5 0 0 1 1 0 0 forward_v I I I I #
simple-snl-attrib $-1 -1 $-1 $24 $18 1 1 1 1 1 1 1 1 1 1 1 1 0 1 0 1 1 1 @17 NEW_SIMPLE_ATTRIB 1 @9 ENTITY_ID 0 3 8 -2147483648 -1 #
integer_attrib-name_attrib-gen-attrib $-1 -1 $48 $-1 $25 2 1 1 1 1 1 1 1 1 1 1 1 1 1 0 1 1 1 @8 CUBIT_ID 9 #
face $49 -1 -1 $-1 $50 $51 $13 $-1 $52 reversed single T -2 -2 -2 2 -2 2 F #
loop $-1 -1 -1 $-1 $-1 $53 $25 T -2 -2 -2 2 2 -2 unknown #
plane-surface $-1 -1 -1 $-1 0 0 -2 0 0 1 1 0 0 forward_v I I I I #
coedge $-1 -1 -1 $-1 $54 $55 $56 $57 forward $26 $-1 #
simple-snl-attrib $-1 -1 $-1 $29 $15 1 1 1 1 1 1 1 1 1 1 1 1 0 1 0 1 1 1 @17 NEW_SIMPLE_ATTRIB 3 @5 GROUP @29 estimator_1.surface.current.n @26 estimator_2.surface.flux.n 0 11 2 3 5 301982425 1879606095 0 0 0 0 0 0 #
simple-snl-attrib $-1 -1 $-1 $31 $23 1 1 1 1 1 1 1 1 1 1 1 1 0 1 0 1 1 1 @17 NEW_SIMPLE_ATTRIB 1 @9 ENTITY_ID 0 3 14 -2147483648 -1 #
integer_attrib-name_attrib-gen-attrib $-1 -1 $58 $-1 $32 2 1 1 1 1 1 1 1 1 1 1 1 1 1 0 1 1 1 @8 CUBIT_ID 15 #
face $59 -1 -1 $-1 $60 $61 $17 $-1 $62 forward single T -1.5 -1.5 -1.5 1.5 -1.5 1.5 F #
loop $-1 -1 -1 $-1 $-1 $63 $32 T -1.5 -1.5 -1.5 1.5 1.5 -1.5 unknown #
plane-surface $-1 -1 -1 $-1 0 0 -1.5 0 0 1 1 0 0 forward_v I I I I #
coedge $-1 -1 -1 $-1 $64 $65 $66 $67 reversed $33 $-1 #
simple-snl-attrib $-1 -1 $-1 $36 $25 1 1 1 1 1 1 1 1 1 1 1 1 0 1 0 1 1 1 @17 NEW_SIMPLE_ATTRIB 1 @9 ENTITY_ID 0 3 9 -2147483648 -1 #
integer_attrib-name_attrib-gen-attrib $-1 -1 $68 $-1 $37 2 1 1 1 1 1 1 1 1 1 1 1 1 1 0 1 1 1 @8 CUBIT_ID 10 #
face $69 -1 -1 $-1 $70 $71 $13 $-1 $72 reversed single T -2 -2 -2 -2 2 2 F #
loop $-1 -1 -1 $-1 $-1 $73 $37 T -2 -2 -2 2 -2 2 unknown #
plane-surface $-1 -1 -1 $-1 0 -2 0 0 1 -0 -0 0 1 forward_v I I I I #
coedge $-1 -1 -1 $-1 $74 $75 $76 $77 forward $38 $-1 #
coedge $-1 -1 -1 $-1 $78 $40 $79 $80 forward $26 $-1 #
coedge $-1 -1 -1 $-1 $40 $78 $81 $82 forward $26 $-1 #
coedge $-1 -1 -1 $-1 $83 $84 $40 $57 reversed $85 $-1 #
edge $86 -1 -1 $-1 $87 -2 $88 2 $56 $89 forward @7 unknown T 2 -2 2 2 2 2 #
simple-snl-attrib $-1 -1 $-1 $43 $32 1 1 1 1 1 1 1 1 1 1 1 1 0 1 0 1 1 1 @17 NEW_SIMPLE_ATTRIB 1 @9 ENTITY_ID 0 3 15 -2147483648 -1 #
integer_attrib-name_attrib-gen-attrib $-1 -1 $90 $-1 $44 2 1 1 1 1 1 1 1 1 1 1 1 1 1 0 1 1 1 @8 CUBIT_ID 16 #
face $91 -1 -1 $-1 $92 $93 $17 $-1 $94 forward single T -1.5 -1.5 -1.5 -1.5 1.5 1.5 F #
loop $-1 -1 -1 $-1 $-1 $95 $44 T -1.5 -1.5 -1.5 1.5 -1.5 1.5 periphery $62 F #
plane-surface $-1 -1 -1 $-1 0 -1.5 0 0 1 -0 -0 0 1 forward_v I I I I #
coedge $-1 -1 -1 $-1 $96 $97 $98 $99 reversed $45 $-1 #
coedge $-1 -1 -1 $-1 $100 $47 $101 $102 reversed $33 $-1 #
coedge $-1 -1 -1 $-1 $47 $100 $103 $104 reversed $33 $-1 #
coedge $-1 -1 -1 $-1 $105 $106 $47 $67 forward $107 $-1 #
edge $108 -1 -1 $-1 $109 -1.5 $110 1.5 $66 $111 forward @7 unknown T 1.5 -1.5 1.5 1.5 1.5 1.5 #
simple-snl-attrib $-1 -1 $-1 $49 $37 1 1 1 1 1 1 1 1 1 1 1 1 0 1 0 1 1 1 @17 NEW_SIMPLE_ATTRIB 1 @9 ENTITY_ID 0 3 10 -2147483648 -1 #
integer_attrib-name_attrib-gen-attrib $-1 -1 $112 $-1 $50 2 1 1 1 1 1 1 1 1 1 1 1 1 1 0 1 1 1 @8 CUBIT_ID 11 #
face $113 -1 -1 $-1 $114 $115 $13 $-1 $116 reversed single T -2 2 -2 2 2 2 F #
loop $-1 -1 -1 $-1 $-1 $117 $50 T -2 -2 -2 -2 2 2 periphery $72 T #
plane-surface $-1 -1 -1 $-1 -2 0 0 1 0 0 0 0 -1 forward_v I I I I #
coedge $-1 -1 -1 $-1 $118 $81 $119 $120 forward $51 $-1 #
coedge $-1 -1 -1 $-1 $121 $53 $118 $122 forward $38 $-1 #
coedge $-1 -1 -1 $-1 $53 $121 $123 $124 forward $38 $-1 #
coedge $-1 -1 -1 $-1 $84 $83 $53 $77 reversed $85 $-1 #
edge $125 -1 -1 $-1 $126 -2 $127 2 $76 $128 forward @7 unknown T 2 -2 -2 2 2 -2 #
coedge $-1 -1 -1 $-1 $55 $54 $129 $130 forward $26 $-1 #
coedge $-1 -1 -1 $-1 $131 $132 $54 $80 reversed $115 $-1 #
edge $133 -1 -1 $-1 $88 -2 $134 2 $79 $135 forward @7 unknown T -2 2 2 2 2 2 #
coedge $-1 -1 -1 $-1 $73 $136 $55 $82 reversed $51 $-1 #
edge $137 -1 -1 $-1 $138 -2 $87 2 $81 $139 forward @7 unknown T -2 -2 2 2 -2 2 #
coedge $-1 -1 -1 $-1 $76 $56 $136 $140 forward $85 $-1 #
coedge $-1 -1 -1 $-1 $56 $76 $131 $141 reversed $85 $-1 #
loop $-1 -1 -1 $-1 $-1 $83 $114 T 2 -2 -2 2 2 2 unknown #
integer_attrib-name_attrib-gen-attrib $-1 -1 $142 $-1 $57 2 1 1 1 1 1 1 1 1 1 1 1 1 1 0 1 1 1 @8 CUBIT_ID 13 #
vertex $143 -1 -1 $-1 $57 $144 #
vertex $145 -1 -1 $-1 $57 $146 #
straight-curve $-1 -1 -1 $-1 2 0 2 0 1 0 I I #
simple-snl-attrib $-1 -1 $-1 $59 $44 1 1 1 1 1 1 1 1 1 1 1 1 0 1 0 1 1 1 @17 NEW_SIMPLE_ATTRIB 1 @9 ENTITY_ID 0 3 16 -2147483648 -1 #
integer_attrib-name_attrib-gen-attrib $-1 -1 $147 $-1 $60 2 1 1 1 1 1 1 1 1 1 1 1 1 1 0 1 1 1 @8 CUBIT_ID 17 #
face $148 -1 -1 $-1 $149 $150 $17 $-1 $151 forward single T -1.5 1.5 -1.5 1.5 1.5 1.5 F #
loop $-1 -1 -1 $-1 $-1 $152 $60 T -1.5 -1.5 -1.5 -1.5 1.5 1.5 unknown #
plane-surface $-1 -1 -1 $-1 -1.5 0 0 1 0 0 0 0 -1 forward_v I I I I #
coedge $-1 -1 -1 $-1 $101 $153 $154 $155 reversed $61 $-1 #
coedge $-1 -1 -1 $-1 $156 $63 $157 $158 reversed $45 $-1 #
coedge $-1 -1 -1 $-1 $63 $156 $153 $159 reversed $45 $-1 #
coedge $-1 -1 -1 $-1 $106 $105 $63 $99 forward $107 $-1 #
edge $160 -1 -1 $-1 $161 -1.5 $162 1.5 $98 $163 forward @7 unknown T 1.5 -1.5 -1.5 1.5 1.5 -1.5 #
coedge $-1 -1 -1 $-1 $65 $64 $164 $165 reversed $33 $-1 #
coedge $-1 -1 -1 $-1 $166 $95 $64 $102 forward $61 $-1 #
edge $167 -1 -1 $-1 $168 -1.5 $109 1.5 $101 $169 forward @7 unknown T -1.5 -1.5 1.5 1.5 -1.5 1.5 #
coedge $-1 -1 -1 $-1 $170 $171 $65 $104 forward $150 $-1 #
edge $172 -1 -1 $-1 $110 -1.5 $173 1.5 $103 $174 forward @7 unknown T -1.5 1.5 1.5 1.5 1.5 1.5 #
coedge $-1 -1 -1 $-1 $98 $66 $171 $175 forward $107 $-1 #
coedge $-1 -1 -1 $-1 $66 $98 $166 $176 reversed $107 $-1 #
loop $-1 -1 -1 $-1 $-1 $106 $149 T 1.5 -1.5 -1.5 1.5 1.5 1.5 unknown #
integer_attrib-name_attrib-gen-attrib $-1 -1 $177 $-1 $67 2 1 1 1 1 1 1 1 1 1 1 1 1 1 0 1 1 1 @8 CUBIT_ID 25 #
vertex $178 -1 -1 $-1 $67 $179 #
vertex $180 -1 -1 $-1 $67 $181 #
straight-curve $-1 -1 -1 $-1 1.5 0 1.5 0 1 0 I I #
simple-snl-attrib $-1 -1 $-1 $69 $50 1 1 1 1 1 1 1 1 1 1 1 1 0 1 0 1 1 1 @17 NEW_SIMPLE_ATTRIB 1 @9 ENTITY_ID 0 3 11 -2147483648 -1 #
integer_attrib-name_attrib-gen-attrib $-1 -1 $182 $-1 $70 2 1 1 1 1 1 1 1 1 1 1 1 1 1 0 1 1 1 @8 CUBIT_ID 12 #
face $183 -1 -1 $-1 $-1 $85 $13 $-1 $184 reversed single T 2 -2 -2 2 2 2 F #
loop $-1 -1 -1 $-1 $-1 $131 $70 T -2 2 -2 2 2 2 unknown #
plane-surface $-1 -1 -1 $-1 0 2 0 0 -1 0 0 0 -1 forward_v I I I I #
coedge $-1 -1 -1 $-1 $185 $129 $132 $186 forward $71 $-1 #
coedge $-1 -1 -1 $-1 $136 $73 $74 $122 reversed $51 $-1 #
coedge $-1 -1 -1 $-1 $129 $185 $73 $120 reversed $71 $-1 #
edge $187 -1 -1 $-1 $138 -2 $188 2 $119 $189 forward @7 unknown T -2 -2 -2 -2 -2 2 #
coedge $-1 -1 -1 $-1 $75 $74 $185 $190 forward $38 $-1 #
edge $191 -1 -1 $-1 $127 -2 $188 2 $118 $192 forward @7 unknown T -2 -2 -2 2 -2 -2 #
coedge $-1 -1 -1 $-1 $132 $131 $75 $124 reversed $115 $-1 #
edge $193 -1 -1 $-1 $194 -2 $126 2 $123 $195 forward @7 unknown T -2 2 -2 2 2 -2 #
integer_attrib-name_attrib-gen-attrib $-1 -1 $196 $-1 $77 2 1 1 1 1 1 1 1 1 1 1 1 1 1 0 1 1 1 @8 CUBIT_ID 17 #
vertex $197 -1 -1 $-1 $77 $198 #
vertex $199 -1 -1 $-1 $140 $200 #
straight-curve $-1 -1 -1 $-1 2 0 -2 0 -1 0 I I #
coedge $-1 -1 -1 $-1 $117 $119 $78 $130 reversed $71 $-1 #
edge $201 -1 -1 $-1 $134 -2 $138 2 $129 $202 forward @7 unknown T -2 -2 2 -2 2 2 #
coedge $-1 -1 -1 $-1 $123 $79 $84 $141 forward $115 $-1 #
coedge $-1 -1 -1 $-1 $79 $123 $117 $186 reversed $115 $-1 #
integer_attrib-name_attrib-gen-attrib $-1 -1 $203 $-1 $80 2 1 1 1 1 1 1 1 1 1 1 1 1 1 0 1 1 1 @8 CUBIT_ID 14 #
vertex $204 -1 -1 $-1 $80 $205 #
straight-curve $-1 -1 -1 $-1 0 2 2 -1 0 0 I I #
coedge $-1 -1 -1 $-1 $81 $118 $83 $140 reversed $51 $-1 #
integer_attrib-name_attrib-gen-attrib $-1 -1 $206 $-1 $82 2 1 1 1 1 1 1 1 1 1 1 1 1 1 0 1 1 1 @8 CUBIT_ID 16 #
vertex $207 -1 -1 $-1 $130 $208 #
straight-curve $-1 -1 -1 $-1 0 -2 2 1 0 0 I I #
edge $209 -1 -1 $-1 $87 -2 $127 2 $83 $210 forward @7 unknown T 2 -2 -2 2 -2 2 #
edge $211 -1 -1 $-1 $88 -2 $126 2 $84 $212 forward @7 unknown T 2 2 -2 2 2 2 #
simple-snl-attrib $-1 -1 $-1 $86 $57 1 1 1 1 1 1 1 1 1 1 1 1 0 1 0 1 1 1 @17 NEW_SIMPLE_ATTRIB 1 @9 ENTITY_ID 0 3 13 -2147483648 -1 #
integer_attrib-name_attrib-gen-attrib $-1 -1 $213 $-1 $87 2 1 1 1 1 1 1 1 1 1 1 1 1 1 0 1 1 1 @8 CUBIT_ID 9 #
point $-1 -1 -1 $-1 2 -2 2 #
integer_attrib-name_attrib-gen-attrib $-1 -1 $214 $-1 $88 2 1 1 1 1 1 1 1 1 1 1 1 1 1 0 1 1 1 @8 CUBIT_ID 10 #
point $-1 -1 -1 $-1 2 2 2 #
simple-snl-attrib $-1 -1 $-1 $91 $60 1 1 1 1 1 1 1 1 1 1 1 1 0 1 0 1 1 1 @17 NEW_SIMPLE_ATTRIB 1 @9 ENTITY_ID 0 3 17 -2147483648 -1 #
integer_attrib-name_attrib-gen-attrib $-1 -1 $215 $-1 $92 2 1 1 1 1 1 1 1 1 1 1 1 1 1 0 1 1 1 @8 CUBIT_ID 18 #
face $216 -1 -1 $-1 $-1 $107 $17 $-1 $217 forward single T 1.5 -1.5 -1.5 1.5 1.5 1.5 F #
loop $-1 -1 -1 $-1 $-1 $171 $92 T -1.5 1.5 -1.5 1.5 1.5 1.5 unknown #
plane-surface $-1 -1 -1 $-1 0 1.5 0 0 -1 0 0 0 -1 forward_v I I I I #
coedge $-1 -1 -1 $-1 $164 $218 $170 $219 reversed $93 $-1 #
coedge $-1 -1 -1 $-1 $95 $166 $97 $159 forward $61 $-1 #
coedge $-1 -1 -1 $-1 $218 $164 $95 $155 forward $93 $-1 #
edge $220 -1 -1 $-1 $168 -1.5 $221 1.5 $154 $222 forward @7 unknown T -1.5 -1.5 -1.5 -1.5 -1.5 1.5 #
coedge $-1 -1 -1 $-1 $97 $96 $218 $223 reversed $45 $-1 #
coedge $-1 -1 -1 $-1 $171 $170 $96 $158 forward $150 $-1 #
edge $224 -1 -1 $-1 $225 -1.5 $161 1.5 $157 $226 forward @7 unknown T -1.5 1.5 -1.5 1.5 1.5 -1.5 #
edge $227 -1 -1 $-1 $162 -1.5 $221 1.5 $153 $228 forward @7 unknown T -1.5 -1.5 -1.5 1.5 -1.5 -1.5 #
integer_attrib-name_attrib-gen-attrib $-1 -1 $229 $-1 $99 2 1 1 1 1 1 1 1 1 1 1 1 1 1 0 1 1 1 @8 CUBIT_ID 29 #
vertex $230 -1 -1 $-1 $99 $231 #
vertex $232 -1 -1 $-1 $176 $233 #
straight-curve $-1 -1 -1 $-1 1.5 0 -1.5 0 -1 0 I I #
coedge $-1 -1 -1 $-1 $154 $152 $100 $165 forward $93 $-1 #
edge $234 -1 -1 $-1 $173 -1.5 $168 1.5 $164 $235 forward @7 unknown T -1.5 -1.5 1.5 -1.5 1.5 1.5 #
coedge $-1 -1 -1 $-1 $153 $101 $106 $176 forward $61 $-1 #
integer_attrib-name_attrib-gen-attrib $-1 -1 $236 $-1 $102 2 1 1 1 1 1 1 1 1 1 1 1 1 1 0 1 1 1 @8 CUBIT_ID 26 #
vertex $237 -1 -1 $-1 $165 $238 #
straight-curve $-1 -1 -1 $-1 0 -1.5 1.5 1 0 0 I I #
coedge $-1 -1 -1 $-1 $157 $103 $152 $219 forward $150 $-1 #
coedge $-1 -1 -1 $-1 $103 $157 $105 $175 reversed $150 $-1 #
integer_attrib-name_attrib-gen-attrib $-1 -1 $239 $-1 $104 2 1 1 1 1 1 1 1 1 1 1 1 1 1 0 1 1 1 @8 CUBIT_ID 28 #
vertex $240 -1 -1 $-1 $104 $241 #
straight-curve $-1 -1 -1 $-1 0 1.5 1.5 -1 0 0 I I #
edge $242 -1 -1 $-1 $110 -1.5 $161 1.5 $105 $243 forward @7 unknown T 1.5 1.5 -1.5 1.5 1.5 1.5 #
edge $244 -1 -1 $-1 $109 -1.5 $162 1.5 $106 $245 forward @7 unknown T 1.5 -1.5 -1.5 1.5 -1.5 1.5 #
simple-snl-attrib $-1 -1 $-1 $108 $67 1 1 1 1 1 1 1 1 1 1 1 1 0 1 0 1 1 1 @17 NEW_SIMPLE_ATTRIB 1 @9 ENTITY_ID 0 3 25 -2147483648 -1 #
integer_attrib-name_attrib-gen-attrib $-1 -1 $246 $-1 $109 2 1 1 1 1 1 1 1 1 1 1 1 1 1 0 1 1 1 @8 CUBIT_ID 17 #
point $-1 -1 -1 $-1 1.5 -1.5 1.5 #
integer_attrib-name_attrib-gen-attrib $-1 -1 $247 $-1 $110 2 1 1 1 1 1 1 1 1 1 1 1 1 1 0 1 1 1 @8 CUBIT_ID 18 #
point $-1 -1 -1 $-1 1.5 1.5 1.5 #
simple-snl-attrib $-1 -1 $-1 $113 $70 1 1 1 1 1 1 1 1 1 1 1 1 0 1 0 1 1 1 @17 NEW_SIMPLE_ATTRIB 1 @9 ENTITY_ID 0 3 12 -2147483648 -1 #
integer_attrib-name_attrib-gen-attrib $-1 -1 $248 $-1 $114 2 1 1 1 1 1 1 1 1 1 1 1 1 1 0 1 1 1 @8 CUBIT_ID 13 #
plane-surface $-1 -1 -1 $-1 2 0 0 -1 0 0 0 -0 1 forward_v I I I I #
coedge $-1 -1 -1 $-1 $119 $117 $121 $190 reversed $71 $-1 #
edge $249 -1 -1 $-1 $134 -2 $194 2 $132 $250 forward @7 unknown T -2 2 -2 -2 2 2 #
integer_attrib-name_attrib-gen-attrib $-1 -1 $251 $-1 $120 2 1 1 1 1 1 1 1 1 1 1 1 1 1 0 1 1 1 @8 CUBIT_ID 21 #
vertex $252 -1 -1 $-1 $190 $253 #
straight-curve $-1 -1 -1 $-1 -2 -2 0 0 0 -1 I I #
edge $254 -1 -1 $-1 $188 -2 $194 2 $185 $255 forward @7 unknown T -2 -2 -2 -2 2 -2 #
integer_attrib-name_attrib-gen-attrib $-1 -1 $256 $-1 $122 2 1 1 1 1 1 1 1 1 1 1 1 1 1 0 1 1 1 @8 CUBIT_ID 18 #
straight-curve $-1 -1 -1 $-1 0 -2 -2 -1 0 0 I I #
integer_attrib-name_attrib-gen-attrib $-1 -1 $257 $-1 $124 2 1 1 1 1 1 1 1 1 1 1 1 1 1 0 1 1 1 @8 CUBIT_ID 20 #
vertex $258 -1 -1 $-1 $124 $259 #
straight-curve $-1 -1 -1 $-1 0 2 -2 1 0 0 I I #
simple-snl-attrib $-1 -1 $-1 $125 $77 1 1 1 1 1 1 1 1 1 1 1 1 0 1 0 1 1 1 @17 NEW_SIMPLE_ATTRIB 1 @9 ENTITY_ID 0 3 17 -2147483648 -1 #
integer_attrib-name_attrib-gen-attrib $-1 -1 $260 $-1 $126 2 1 1 1 1 1 1 1 1 1 1 1 1 1 0 1 1 1 @8 CUBIT_ID 13 #
point $-1 -1 -1 $-1 2 2 -2 #
integer_attrib-name_attrib-gen-attrib $-1 -1 $261 $-1 $127 2 1 1 1 1 1 1 1 1 1 1 1 1 1 0 1 1 1 @8 CUBIT_ID 14 #
point $-1 -1 -1 $-1 2 -2 -2 #
integer_attrib-name_attrib-gen-attrib $-1 -1 $262 $-1 $130 2 1 1 1 1 1 1 1 1 1 1 1 1 1 0 1 1 1 @8 CUBIT_ID 15 #
straight-curve $-1 -1 -1 $-1 -2 0 2 0 -1 0 I I #
simple-snl-attrib $-1 -1 $-1 $133 $80 1 1 1 1 1 1 1 1 1 1 1 1 0 1 0 1 1 1 @17 NEW_SIMPLE_ATTRIB 1 @9 ENTITY_ID 0 3 14 -2147483648 -1 #
integer_attrib-name_attrib-gen-attrib $-1 -1 $263 $-1 $134 2 1 1 1 1 1 1 1 1 1 1 1 1 1 0 1 1 1 @8 CUBIT_ID 11 #
point $-1 -1 -1 $-1 -2 2 2 #
simple-snl-attrib $-1 -1 $-1 $137 $82 1 1 1 1 1 1 1 1 1 1 1 1 0 1 0 1 1 1 @17 NEW_SIMPLE_ATTRIB 1 @9 ENTITY_ID 0 3 16 -2147483648 -1 #
integer_attrib-name_attrib-gen-attrib $-1 -1 $264 $-1 $138 2 1 1 1 1 1 1 1 1 1 1 1 1 1 0 1 1 1 @8 CUBIT_ID 12 #
point $-1 -1 -1 $-1 -2 -2 2 #
integer_attrib-name_attrib-gen-attrib $-1 -1 $265 $-1 $140 2 1 1 1 1 1 1 1 1 1 1 1 1 1 0 1 1 1 @8 CUBIT_ID 22 #
straight-curve $-1 -1 -1 $-1 2 -2 0 0 0 -1 I I #
integer_attrib-name_attrib-gen-attrib $-1 -1 $266 $-1 $141 2 1 1 1 1 1 1 1 1 1 1 1 1 1 0 1 1 1 @8 CUBIT_ID 24 #
straight-curve $-1 -1 -1 $-1 2 2 0 0 0 -1 I I #
simple-snl-attrib $-1 -1 $-1 $143 $87 1 1 1 1 1 1 1 1 1 1 1 1 0 1 0 1 1 1 @17 NEW_SIMPLE_ATTRIB 1 @9 ENTITY_ID 0 3 9 -2147483648 -1 #
simple-snl-attrib $-1 -1 $-1 $145 $88 1 1 1 1 1 1 1 1 1 1 1 1 0 1 0 1 1 1 @17 NEW_SIMPLE_ATTRIB 1 @9 ENTITY_ID 0 3 10 -2147483648 -1 #
simple-snl-attrib $-1 -1 $-1 $148 $92 1 1 1 1 1 1 1 1 1 1 1 1 0 1 0 1 1 1 @17 NEW_SIMPLE_ATTRIB 1 @9 ENTITY_ID 0 3 18 -2147483648 -1 #
integer_attrib-name_attrib-gen-attrib $-1 -1 $267 $-1 $149 2 1 1 1 1 1 1 1 1 1 1 1 1 1 0 1 1 1 @8 CUBIT_ID 19 #
plane-surface $-1 -1 -1 $-1 1.5 0 0 -1 0 0 0 -0 1 forward_v I I I I #
coedge $-1 -1 -1 $-1 $152 $154 $156 $223 forward $93 $-1 #
edge $268 -1 -1 $-1 $173 -1.5 $225 1.5 $170 $269 forward @7 unknown T -1.5 1.5 -1.5 -1.5 1.5 1.5 #
integer_attrib-name_attrib-gen-attrib $-1 -1 $270 $-1 $155 2 1 1 1 1 1 1 1 1 1 1 1 1 1 0 1 1 1 @8 CUBIT_ID 33 #
vertex $271 -1 -1 $-1 $223 $272 #
straight-curve $-1 -1 -1 $-1 -1.5 -1.5 0 0 0 -1 I I #
edge $273 -1 -1 $-1 $221 -1.5 $225 1.5 $218 $274 forward @7 unknown T -1.5 -1.5 -1.5 -1.5 1.5 -1.5 #
integer_attrib-name_attrib-gen-attrib $-1 -1 $275 $-1 $158 2 1 1 1 1 1 1 1 1 1 1 1 1 1 0 1 1 1 @8 CUBIT_ID 30 #
vertex $276 -1 -1 $-1 $158 $277 #
straight-curve $-1 -1 -1 $-1 0 1.5 -1.5 1 0 0 I I #
integer_attrib-name_attrib-gen-attrib $-1 -1 $278 $-1 $159 2 1 1 1 1 1 1 1 1 1 1 1 1 1 0 1 1 1 @8 CUBIT_ID 32 #
straight-curve $-1 -1 -1 $-1 0 -1.5 -1.5 -1 0 0 I I #
simple-snl-attrib $-1 -1 $-1 $160 $99 1 1 1 1 1 1 1 1 1 1 1 1 0 1 0 1 1 1 @17 NEW_SIMPLE_ATTRIB 1 @9 ENTITY_ID 0 3 29 -2147483648 -1 #
integer_attrib-name_attrib-gen-attrib $-1 -1 $279 $-1 $161 2 1 1 1 1 1 1 1 1 1 1 1 1 1 0 1 1 1 @8 CUBIT_ID 21 #
point $-1 -1 -1 $-1 1.5 1.5 -1.5 #
integer_attrib-name_attrib-gen-attrib $-1 -1 $280 $-1 $162 2 1 1 1 1 1 1 1 1 1 1 1 1 1 0 1 1 1 @8 CUBIT_ID 22 #
point $-1 -1 -1 $-1 1.5 -1.5 -1.5 #
integer_attrib-name_attrib-gen-attrib $-1 -1 $281 $-1 $165 2 1 1 1 1 1 1 1 1 1 1 1 1 1 0 1 1 1 @8 CUBIT_ID 27 #
straight-curve $-1 -1 -1 $-1 -1.5 0 1.5 0 -1 0 I I #
simple-snl-attrib $-1 -1 $-1 $167 $102 1 1 1 1 1 1 1 1 1 1 1 1 0 1 0 1 1 1 @17 NEW_SIMPLE_ATTRIB 1 @9 ENTITY_ID 0 3 26 -2147483648 -1 #
integer_attrib-name_attrib-gen-attrib $-1 -1 $282 $-1 $168 2 1 1 1 1 1 1 1 1 1 1 1 1 1 0 1 1 1 @8 CUBIT_ID 19 #
point $-1 -1 -1 $-1 -1.5 -1.5 1.5 #
simple-snl-attrib $-1 -1 $-1 $172 $104 1 1 1 1 1 1 1 1 1 1 1 1 0 1 0 1 1 1 @17 NEW_SIMPLE_ATTRIB 1 @9 ENTITY_ID 0 3 28 -2147483648 -1 #
integer_attrib-name_attrib-gen-attrib $-1 -1 $283 $-1 $173 2 1 1 1 1 1 1 1 1 1 1 1 1 1 0 1 1 1 @8 CUBIT_ID 20 #
point $-1 -1 -1 $-1 -1.5 1.5 1.5 #
integer_attrib-name_attrib-gen-attrib $-1 -1 $284 $-1 $175 2 1 1 1 1 1 1 1 1 1 1 1 1 1 0 1 1 1 @8 CUBIT_ID 36 #
straight-curve $-1 -1 -1 $-1 1.5 1.5 0 0 0 -1 I I #
integer_attrib-name_attrib-gen-attrib $-1 -1 $285 $-1 $176 2 1 1 1 1 1 1 1 1 1 1 1 1 1 0 1 1 1 @8 CUBIT_ID 34 #
straight-curve $-1 -1 -1 $-1 1.5 -1.5 0 0 0 -1 I I #
simple-snl-attrib $-1 -1 $-1 $178 $109 1 1 1 1 1 1 1 1 1 1 1 1 0 1 0 1 1 1 @17 NEW_SIMPLE_ATTRIB 1 @9 ENTITY_ID 0 3 17 -2147483648 -1 #
simple-snl-attrib $-1 -1 $-1 $180 $110 1 1 1 1 1 1 1 1 1 1 1 1 0 1 0 1 1 1 @17 NEW_SIMPLE_ATTRIB 1 @9 ENTITY_ID 0 3 18 -2147483648 -1 #
simple-snl-attrib $-1 -1 $-1 $183 $114 1 1 1 1 1 1 1 1 1 1 1 1 0 1 0 1 1 1 @17 NEW_SIMPLE_ATTRIB 1 @9 ENTITY_ID 0 3 13 -2147483648 -1 #
integer_attrib-name_attrib-gen-attrib $-1 -1 $286 $-1 $186 2 1 1 1 1 1 1 1 1 1 1 1 1 1 0 1 1 1 @8 CUBIT_ID 23 #
straight-curve $-1 -1 -1 $-1 -2 2 0 0 0 -1 I I #
simple-snl-attrib $-1 -1 $-1 $187 $120 1 1 1 1 1 1 1 1 1 1 1 1 0 1 0 1 1 1 @17 NEW_SIMPLE_ATTRIB 1 @9 ENTITY_ID 0 3 21 -2147483648 -1 #
integer_attrib-name_attrib-gen-attrib $-1 -1 $287 $-1 $188 2 1 1 1 1 1 1 1 1 1 1 1 1 1 0 1 1 1 @8 CUBIT_ID 15 #
point $-1 -1 -1 $-1 -2 -2 -2 #
integer_attrib-name_attrib-gen-attrib $-1 -1 $288 $-1 $190 2 1 1 1 1 1 1 1 1 1 1 1 1 1 0 1 1 1 @8 CUBIT_ID 19 #
straight-curve $-1 -1 -1 $-1 -2 0 -2 0 1 0 I I #
simple-snl-attrib $-1 -1 $-1 $191 $122 1 1 1 1 1 1 1 1 1 1 1 1 0 1 0 1 1 1 @17 NEW_SIMPLE_ATTRIB 1 @9 ENTITY_ID 0 3 18 -2147483648 -1 #
simple-snl-attrib $-1 -1 $-1 $193 $124 1 1 1 1 1 1 1 1 1 1 1 1 0 1 0 1 1 1 @17 NEW_SIMPLE_ATTRIB 1 @9 ENTITY_ID 0 3 20 -2147483648 -1 #
integer_attrib-name_attrib-gen-attrib $-1 -1 $289 $-1 $194 2 1 1 1 1 1 1 1 1 1 1 1 1 1 0 1 1 1 @8 CUBIT_ID 16 #
point $-1 -1 -1 $-1 -2 2 -2 #
simple-snl-attrib $-1 -1 $-1 $197 $126 1 1 1 1 1 1 1 1 1 1 1 1 0 1 0 1 1 1 @17 NEW_SIMPLE_ATTRIB 1 @9 ENTITY_ID 0 3 13 -2147483648 -1 #
simple-snl-attrib $-1 -1 $-1 $199 $127 1 1 1 1 1 1 1 1 1 1 1 1 0 1 0 1 1 1 @17 NEW_SIMPLE_ATTRIB 1 @9 ENTITY_ID 0 3 14 -2147483648 -1 #
simple-snl-attrib $-1 -1 $-1 $201 $130 1 1 1 1 1 1 1 1 1 1 1 1 0 1 0 1 1 1 @17 NEW_SIMPLE_ATTRIB 1 @9 ENTITY_ID 0 3 15 -2147483648 -1 #
simple-snl-attrib $-1 -1 $-1 $204 $134 1 1 1 1 1 1 1 1 1 1 1 1 0 1 0 1 1 1 @17 NEW_SIMPLE_ATTRIB 1 @9 ENTITY_ID 0 3 11 -2147483648 -1 #
simple-snl-attrib $-1 -1 $-1 $207 $138 1 1 1 1 1 1 1 1 1 1 1 1 0 1 0 1 1 1 @17 NEW_SIMPLE_ATTRIB 1 @9 ENTITY_ID 0 3 12 -2147483648 -1 #
simple-snl-attrib $-1 -1 $-1 $209 $140 1 1 1 1 1 1 1 1 1 1 1 1 0 1 0 1 1 1 @17 NEW_SIMPLE_ATTRIB 1 @9 ENTITY_ID 0 3 22 -2147483648 -1 #
simple-snl-attrib $-1 -1 $-1 $211 $141 1 1 1 1 1 1 1 1 1 1 1 1 0 1 0 1 1 1 @17 NEW_SIMPLE_ATTRIB 1 @9 ENTITY_ID 0 3 24 -2147483648 -1 #
simple-snl-attrib $-1 -1 $-1 $216 $149 1 1 1 1 1 1 1 1 1 1 1 1 0 1 0 1 1 1 @17 NEW_SIMPLE_ATTRIB 1 @9 ENTITY_ID 0 3 19 -2147483648 -1 #
integer_attrib-name_attrib-gen-attrib $-1 -1 $290 $-1 $219 2 1 1 1 1 1 1 1 1 1 1 1 1 1 0 1 1 1 @8 CUBIT_ID 35 #
straight-curve $-1 -1 -1 $-1 -1.5 1.5 0 0 0 -1 I I #
simple-snl-attrib $-1 -1 $-1 $220 $155 1 1 1 1 1 1 1 1 1 1 1 1 0 1 0 1 1 1 @17 NEW_SIMPLE_ATTRIB 1 @9 ENTITY_ID 0 3 33 -2147483648 -1 #
integer_attrib-name_attrib-gen-attrib $-1 -1 $291 $-1 $221 2 1 1 1 1 1 1 1 1 1 1 1 1 1 0 1 1 1 @8 CUBIT_ID 24 #
point $-1 -1 -1 $-1 -1.5 -1.5 -1.5 #
integer_attrib-name_attrib-gen-attrib $-1 -1 $292 $-1 $223 2 1 1 1 1 1 1 1 1 1 1 1 1 1 0 1 1 1 @8 CUBIT_ID 31 #
straight-curve $-1 -1 -1 $-1 -1.5 0 -1.5 0 1 0 I I #
simple-snl-attrib $-1 -1 $-1 $224 $158 1 1 1 1 1 1 1 1 1 1 1 1 0 1 0 1 1 1 @17 NEW_SIMPLE_ATTRIB 1 @9 ENTITY_ID 0 3 30 -2147483648 -1 #
integer_attrib-name_attrib-gen-attrib $-1 -1 $293 $-1 $225 2 1 1 1 1 1 1 1 1 1 1 1 1 1 0 1 1 1 @8 CUBIT_ID 23 #
point $-1 -1 -1 $-1 -1.5 1.5 -1.5 #
simple-snl-attrib $-1 -1 $-1 $227 $159 1 1 1 1 1 1 1 1 1 1 1 1 0 1 0 1 1 1 @17 NEW_SIMPLE_ATTRIB 1 @9 ENTITY_ID 0 3 32 -2147483648 -1 #
simple-snl-attrib $-1 -1 $-1 $230 $161 1 1 1 1 1 1 1 1 1 1 1 1 0 1 0 1 1 1 @17 NEW_SIMPLE_ATTRIB 1 @9 ENTITY_ID 0 3 21 -2147483648 -1 #
simple-snl-attrib $-1 -1 $-1 $232 $162 1 1 1 1 1 1 1 1 1 1 1 1 0 1 0 1 1 1 @17 NEW_SIMPLE_ATTRIB 1 @9 ENTITY_ID 0 3 22 -2147483648 -1 #
simple-snl-attrib $-1 -1 $-1 $234 $165 1 1 1 1 1 1 1 1 1 1 1 1 0 1 0 1 1 1 @17 NEW_SIMPLE_ATTRIB 1 @9 ENTITY_ID 0 3 27 -2147483648 -1 #
simple-snl-attrib $-1 -1 $-1 $237 $168 1 1 1 1 1 1 1 1 1 1 1 1 0 1 0 1 1 1 @17 NEW_SIMPLE_ATTRIB 1 @9 ENTITY_ID 0 3 19 -2147483648 -1 #
simple-snl-attrib $-1 -1 $-1 $240 $173 1 1 1 1 1 1 1 1 1 1 1 1 0 1 0 1 1 1 @17 NEW_SIMPLE_ATTRIB 1 @9 ENTITY_ID 0 3 20 -2147483648 -1 #
simple-snl-attrib $-1 -1 $-1 $242 $175 1 1 1 1 1 1 1 1 1 1 1 1 0 1 0 1 1 1 @17 NEW_SIMPLE_ATTRIB 1 @9 ENTITY_ID 0 3 36 -2147483648 -1 #
simple-snl-attrib $-1 -1 $-1 $244 $176 1 1 1 1 1 1 1 1 1 1 1 1 0 1 0 1 1 1 @17 NEW_SIMPLE_ATTRIB 1 @9 ENTITY_ID 0 3 34 -2147483648 -1 #
simple-snl-attrib $-1 -1 $-1 $249 $186 1 1 1 1 1 1 1 1 1 1 1 1 0 1 0 1 1 1 @17 NEW_SIMPLE_ATTRIB 1 @9 ENTITY_ID 0 3 23 -2147483648 -1 #
simple-snl-attrib $-1 -1 $-1 $252 $188 1 1 1 1 1 1 1 1 1 1 1 1 0 1 0 1 1 1 @17 NEW_SIMPLE_ATTRIB 1 @9 ENTITY_ID 0 3 15 -2147483648 -1 #
simple-snl-attrib $-1 -1 $-1 $254 $190 1 1 1 1 1 1 1 1 1 1 1 1 0 1 0 1 1 1 @17 NEW_SIMPLE_ATTRIB 1 @9 ENTITY_ID 0 3 19 -2147483648 -1 #
simple-snl-attrib $-1 -1 $-1 $258 $194 1 1 1 1 1 1 1 1 1 1 1 1 0 1 0 1 1 1 @17 NEW_SIMPLE_ATTRIB 1 @9 ENTITY_ID 0 3 16 -2147483648 -1 #
simple-snl-attrib $-1 -1 $-1 $268 $219 1 1 1 1 1 1 1 1 1 1 1 1 0 1 0 1 1 1 @17 NEW_SIMPLE_ATTRIB 1 @9 ENTITY_ID 0 3 35 -2147483648 -1 #
simple-snl-attrib $-1 -1 $-1 $271 $221 1 1 1 1 1 1 1 1 1 1 1 1 0 1 0 1 1 1 @17 NEW_SIMPLE_ATTRIB 1 @9 ENTITY_ID 0 3 24 -2147483648 -1 #
simple-snl-attrib $-1 -1 $-1 $273 $223 1 1 1 1 1 1 1 1 1 1 1 1 0 1 0 1 1 1 @17 NEW_SIMPLE_ATTRIB 1 @9 ENTITY_ID 0 3 31 -2147483648 -1 #
simple-snl-attrib $-1 -1 $-1 $276 $225 1 1 1 1 1 1 1 1 1 1 1 1 0 1 0 1 1 1 @17 NEW_SIMPLE_ATTRIB 1 @9 ENTITY_ID 0 3 23 -2147483648 -1 #
End-of-ACIS-data 