<?xml version="1.0" encoding="UTF-8" standalone="no"?>
<!-- Created with Inkscape (http://www.inkscape.org/) -->

<svg
   xmlns:dc="http://purl.org/dc/elements/1.1/"
   xmlns:cc="http://creativecommons.org/ns#"
   xmlns:rdf="http://www.w3.org/1999/02/22-rdf-syntax-ns#"
   xmlns:svg="http://www.w3.org/2000/svg"
   xmlns="http://www.w3.org/2000/svg"
   xmlns:sodipodi="http://sodipodi.sourceforge.net/DTD/sodipodi-0.dtd"
   xmlns:inkscape="http://www.inkscape.org/namespaces/inkscape"
   width="744.09448819"
   height="1052.3622047"
   id="svg5989"
   version="1.1"
   inkscape:version="0.48.4 r9939"
   sodipodi:docname="New document 10">
  <defs
     id="defs5991" />
  <sodipodi:namedview
     id="base"
     pagecolor="#ffffff"
     bordercolor="#666666"
     borderopacity="1.0"
     inkscape:pageopacity="0.0"
     inkscape:pageshadow="2"
     inkscape:zoom="0.65760309"
     inkscape:cx="427.14286"
     inkscape:cy="502.85714"
     inkscape:document-units="px"
     inkscape:current-layer="layer1"
     showgrid="false"
     inkscape:snap-object-midpoints="true"
     inkscape:snap-nodes="true"
     inkscape:snap-midpoints="false"
     inkscape:window-width="1545"
     inkscape:window-height="876"
     inkscape:window-x="55"
     inkscape:window-y="24"
     inkscape:window-maximized="1">
    <inkscape:grid
       type="xygrid"
       id="grid6511" />
  </sodipodi:namedview>
  <metadata
     id="metadata5994">
    <rdf:RDF>
      <cc:Work
         rdf:about="">
        <dc:format>image/svg+xml</dc:format>
        <dc:type
           rdf:resource="http://purl.org/dc/dcmitype/StillImage" />
        <dc:title></dc:title>
      </cc:Work>
    </rdf:RDF>
  </metadata>
  <g
     inkscape:label="Layer 1"
     inkscape:groupmode="layer"
     id="layer1">
    <path
       sodipodi:type="arc"
       style="fill:#000000;fill-opacity:1;fill-rule:evenodd;stroke:none"
       id="path5999"
       sodipodi:cx="258.51459"
       sodipodi:cy="450.17523"
       sodipodi:rx="6.0826964"
       sodipodi:ry="6.0826964"
       d="m 264.59728,450.17523 a 6.0826964,6.0826964 0 1 1 -12.16539,0 6.0826964,6.0826964 0 1 1 12.16539,0 z"
       transform="translate(101.88517,22.810112)" />
    <path
       sodipodi:type="arc"
       style="fill:none;stroke:#000000;stroke-opacity:1;stroke-width:1.89603782;stroke-miterlimit:4;stroke-dasharray:none"
       id="path6509"
       sodipodi:cx="262.31628"
       sodipodi:cy="449.41489"
       sodipodi:rx="105.68685"
       sodipodi:ry="105.68685"
       d="m 368.00314,449.41489 a 105.68685,105.68685 0 1 1 -211.37371,0 105.68685,105.68685 0 1 1 211.37371,0 z"
       transform="matrix(0.52741564,0,0,0.52741564,221.65029,235.33374)" />
    <path
       sodipodi:type="arc"
       style="fill:none;stroke:#000000;stroke-width:1;stroke-miterlimit:4;stroke-opacity:1;stroke-dasharray:none;stroke-dashoffset:0"
       id="path6513"
       sodipodi:cx="360"
       sodipodi:cy="472.36218"
       sodipodi:rx="100"
       sodipodi:ry="100"
       d="m 460,472.36218 a 100,100 0 1 1 -200,0 100,100 0 1 1 200,0 z"
       transform="matrix(1.2,0,0,1.2,-71.999999,-94.472434)" />
    <path
       sodipodi:type="arc"
       style="fill:none;stroke:#000000;stroke-width:1.07702985;stroke-miterlimit:4;stroke-opacity:1;stroke-dasharray:none;stroke-dashoffset:0"
       id="path6524"
       sodipodi:cx="332.2673"
       sodipodi:cy="531.53131"
       sodipodi:rx="201.48932"
       sodipodi:ry="201.48932"
       d="m 533.75662,531.53131 a 201.48932,201.48932 0 1 1 -402.97864,0 201.48932,201.48932 0 1 1 402.97864,0 z"
       transform="matrix(0.92847937,0,0,0.92847937,51.496663,-21.153674)" />
    <path
       sodipodi:type="arc"
       style="fill:none;stroke:#000000;stroke-width:1;stroke-miterlimit:4;stroke-opacity:1;stroke-dasharray:none;stroke-dashoffset:0"
       id="path6526"
       sodipodi:cx="330"
       sodipodi:cy="562.36218"
       sodipodi:rx="250"
       sodipodi:ry="250"
       d="m 580,562.36218 a 250,250 0 1 1 -500,0 250,250 0 1 1 500,0 z"
       transform="translate(30,-90)" />
    <path
       sodipodi:type="arc"
       style="fill:none;stroke:#000000;stroke-width:0.93548389;stroke-miterlimit:4;stroke-opacity:1;stroke-dasharray:none;stroke-dashoffset:0"
       id="path6528"
       sodipodi:cx="330"
       sodipodi:cy="782.36218"
       sodipodi:rx="290"
       sodipodi:ry="290"
       d="m 620,782.36218 a 290,290 0 1 1 -580,0 290,290 0 1 1 580,0 z"
       transform="matrix(1.0689655,0,0,1.0689655,7.241385,-363.956)" />
  </g>
</svg>
